<svg version="1.1" xmlns="http://www.w3.org/2000/svg" viewBox="-371.0169334455099 -101.29418093544717 734.3889606898604 135.64470727657698" fill="none" stroke="black" stroke-width="0.6%" vector-effect="non-scaling-stroke">
    <path d="M -346.57037 -37.68627 L -24.49265 14.00194" />
    <path d="M -346.57037 -54.52989 L -346.57037 -37.68627" />
    <path d="M -346.57037 -54.52989 L -24.49265 -2.84169" />
    <path d="M -348.09935 -36.0256 L -341.15795 -36.81766" />
    <path d="M -348.09935 -36.0256 L -348.09935 -55.84163 L -332.80954 -57.58631 L -332.80954 -56.10011 L -346.57037 -54.52989" />
    <path d="M -336.422 -58.16605 L -331.13155 -58.76973 L -331.13155 -60.25593 L -344.02425 -62.325 L -370.01693 -59.35904 L -348.09935 -55.84163" />
    <path d="M -31.06252 -96.19604 L -337.32256 -61.24949" />
    <path d="M -18.16982 -93.77295 L -31.06252 -95.84202 L -31.06252 -97.32822 L -18.16982 -95.25915 L -18.16982 -93.77295 L -7.46695 -94.99423 L 1.55793 -93.54588 L 1.55793 -95.03208 L 16.84775 -96.77677 L -5.06984 -100.29418 L -31.06252 -97.32822" />
    <path d="M 15.31876 -95.1161 L 1.55793 -93.54588" />
    <path d="M 333.51304 -44.05112 L 15.31876 -95.1161" />
    <path d="M 325.16463 -41.6123 L 328.7771 -41.03256" />
    <path d="M 335.09008 -37.08052 L 323.48665 -38.94268 L 323.48665 -40.42888 L 336.37935 -38.35981 L 362.37203 -41.32577 L 340.45444 -44.84319 L 325.16463 -43.0985 L 325.16463 -41.6123" />
    <path d="M 0.24318 1.12801 L 335.09008 -37.08052 L 335.09008 -20.23689" />
    <path d="M -1.04609 0.9211 L 0.24318 1.12801" />
    <path d="M 23.41761 -1.87039 L -1.04609 0.9211" />
    <path d="M -9.20284 -5.65273 L -24.49265 -3.90805 L -2.57507 -0.39063 L 23.41761 -3.35659 L 10.52492 -5.42566" />
    <path d="M -24.49265 15.90798 L -24.49265 -3.90805" />
    <path d="M -370.01693 -39.54301 L -348.09935 -36.0256" />
    <path d="M -370.01693 -39.54301 L -370.01693 -59.35904" />
    <path d="M -331.13155 -60.25593 L -341.83442 -59.03466 L -332.80954 -57.58631" />
    <path d="M -7.46695 -94.99423 L -7.46695 -96.48043 L -18.16982 -95.25915" />
    <path d="M 1.55793 -95.03208 L -7.46695 -96.48043" />
    <path d="M 16.84775 -94.87072 L 16.84775 -96.77677" />
    <path d="M 334.18952 -41.65016 L 325.16463 -43.0985" />
    <path d="M 323.48665 -40.42888 L 334.18952 -41.65016" />
    <path d="M 329.67766 -19.6193 L 336.37935 -18.54378 L 362.37203 -21.50974 L 362.37203 -41.32577" />
    <path d="M 336.37935 -18.54378 L 336.37935 -38.35981" />
    <path d="M 0.24318 17.97163 L 335.09008 -20.23689" />
    <path d="M 0.24318 17.97163 L 0.24318 1.12801" />
    <path d="M -1.04609 17.76473 L 0.24318 17.97163" />
    <path d="M -1.04609 17.76473 L -1.04609 0.9211" />
    <path d="M -2.57507 19.4254 L 23.41761 16.45944 L 23.41761 15.32726" />
    <path d="M 23.41761 -1.87039 L 23.41761 -3.35659" />
    <path d="M -2.57507 19.4254 L -2.57507 -0.39063" />
    <path d="M -0.17795 -4.20438 L 10.52492 -5.42566" />
    <path d="M -9.20284 -5.65273 L -0.17795 -4.20438" />
    <path d="M -24.49265 15.90798 L -2.57507 19.4254" />
    <path d="M 190.72223 -66.96671 L 193.22988 -67.25285 L 193.59281 -67.29985 L 193.59281 -66.50603" />
    <path d="M 193.22988 -67.25285 L 193.22988 -66.56427" />
    <path d="M 193.22988 -4.04959 L 193.22988 31.8273 L 193.59281 31.7803 A 4 0.54129 180 0 0 194.65134 31.41349 L 194.65134 -4.21179" />
    <path d="M 180.99803 33.22305 L 193.22988 31.8273" />
    <path d="M 180.99803 -2.65384 L 180.99803 33.22305" />
    <path d="M 170.66766 -70.87372 L 168.16001 -70.58758" />
    <path d="M 170.86476 -70.89481 L 170.66766 -70.87372" />
    <path d="M 176.30416 -70.80884 A 4 0.54129 180 0 0 170.86476 -70.89481" />
    <path d="M 193.7093 -68.0156 L 176.30416 -70.80884" />
    <path d="M 193.59281 -67.29985 A 4 0.54129 180 0 0 194.65134 -67.66666 A 4 0.54129 180 0 0 193.7093 -68.0156" />
    <path d="M 157.01435 30.01599 A 4 0.54129 180 0 0 157.95638 30.36493 L 175.36153 33.15817 A 4 0.54129 180 0 0 180.80093 33.24414 L 180.99803 33.22305" />
    <path d="M 180.80093 -2.63135 L 180.80093 33.24414" />
    <path d="M 193.59281 -4.091 L 193.59281 31.7803" />
    <path d="M 157.95638 -0.02462 L 157.95638 30.36493" />
    <path d="M 175.36153 -2.01067 L 175.36153 33.15817" />
    <path d="M 157.01435 30.01599 L 157.01435 0.08288" />
    <path d="M 194.65134 -66.33615 L 194.65134 -67.66666" />
</svg>