<svg version="1.1" xmlns="http://www.w3.org/2000/svg" viewBox="-366.4903109325961 -67.83797656130204 732.9806218651922 131.33077918795863" fill="none" stroke="black" stroke-width="0.6%" vector-effect="non-scaling-stroke">
    <path d="M -341.91663 18.80272 C -341.89 18.81 -341.86 18.82 -341.82618 18.83114 C -341.8 18.84 -341.77 18.85 -341.73557 18.85989 C -341.71 18.87 -341.68 18.88 -341.64485 18.88895 C -341.61 18.9 -341.58 18.91 -341.55409 18.9183 C -341.52 18.93 -341.49 18.94 -341.46336 18.94794 C -341.43 18.96 -341.4 18.97 -341.37274 18.97782 C -341.34 18.99 -341.31 19 -341.28231 19.00795 C -341.25 19.02 -341.22 19.03 -341.19214 19.03828 C -341.14 19.05 -341.1 19.07 -341.04855 19.08722 C -341 19.1 -340.95 19.12 -340.90623 19.13651 C -340.86 19.15 -340.81 19.17 -340.76563 19.18601 C -340.72 19.2 -340.67 19.22 -340.62718 19.23559 C -340.58 19.25 -340.54 19.27 -340.49129 19.2851 C -340.45 19.3 -340.4 19.32 -340.35842 19.33437 C -340.31 19.35 -340.27 19.37 -340.22899 19.38326 C -340.19 19.4 -340.14 19.42 -340.10344 19.4316" />
    <path d="M -346.903 17.99424 C -346.9 17.99 -346.9 17.98 -346.8968 17.97873 C -346.89 17.97 -346.89 17.97 -346.88713 17.9644 C -346.88 17.96 -346.88 17.96 -346.87409 17.9512 C -346.87 17.95 -346.86 17.94 -346.85776 17.93912 C -346.85 17.93 -346.84 17.93 -346.83002 17.92427 C -346.82 17.92 -346.81 17.92 -346.79639 17.91144 C -346.78 17.91 -346.77 17.9 -346.75705 17.90058 C -346.74 17.9 -346.73 17.89 -346.7122 17.89164 C -346.7 17.89 -346.69 17.89 -346.67769 17.88651 C -346.67 17.88 -346.65 17.88 -346.64062 17.88228 C -346.63 17.88 -346.61 17.88 -346.60104 17.87894 C -346.59 17.88 -346.57 17.88 -346.559 17.87646 C -346.54 17.88 -346.53 17.88 -346.51454 17.87485 C -346.5 17.87 -346.48 17.87 -346.46771 17.87408 C -346.45 17.87 -346.44 17.87 -346.41854 17.87415 C -346.4 17.87 -346.38 17.87 -346.36707 17.87505 C -346.35 17.88 -346.33 17.88 -346.31335 17.87677 C -346.3 17.88 -346.28 17.88 -346.2574 17.8793 C -346.24 17.88 -346.22 17.88 -346.19926 17.88263 C -346.18 17.88 -346.16 17.89 -346.13895 17.88676 C -346.12 17.89 -346.1 17.89 -346.07652 17.89169 C -346.06 17.89 -346.03 17.9 -346.01198 17.89739 C -345.99 17.9 -345.97 17.9 -345.94536 17.90389 C -345.92 17.91 -345.9 17.91 -345.87669 17.91116 C -345.83 17.92 -345.79 17.92 -345.73817 17.92741 C -345.69 17.93 -345.64 17.94 -345.59223 17.94656 C -345.49 17.96 -345.39 17.98 -345.27864 17.99352 C -345.06 18.03 -344.82 18.07 -344.56812 18.1226 C -344.38 18.16 -344.17 18.2 -343.95963 18.25285 C -343.35 18.39 -342.65 18.57 -341.91663 18.80272" />
    <path d="M -338.69444 20.20164 C -338.69 20.2 -338.69 20.19 -338.69279 20.18397 C -338.69 20.18 -338.69 20.17 -338.69606 20.16787 C -338.7 20.16 -338.7 20.16 -338.70368 20.15046 C -338.71 20.14 -338.71 20.14 -338.71577 20.13171 C -338.72 20.13 -338.73 20.12 -338.73247 20.1116 C -338.74 20.1 -338.75 20.1 -338.75391 20.09007 C -338.76 20.08 -338.77 20.08 -338.78023 20.06711 C -338.79 20.06 -338.8 20.05 -338.81155 20.04267 C -338.82 20.03 -338.83 20.03 -338.84803 20.01673 C -338.86 20.01 -338.87 20 -338.87846 19.99651 C -338.89 19.99 -338.9 19.98 -338.91185 19.97545 C -338.92 19.97 -338.94 19.96 -338.94824 19.95352 C -338.96 19.95 -338.97 19.94 -338.98767 19.93074 C -339 19.92 -339.02 19.92 -339.03019 19.90708 C -339.04 19.9 -339.06 19.89 -339.07584 19.88256 C -339.09 19.87 -339.11 19.87 -339.12464 19.85716 C -339.14 19.85 -339.16 19.84 -339.17662 19.83091 C -339.19 19.82 -339.21 19.82 -339.22006 19.80949 C -339.23 19.8 -339.25 19.79 -339.26553 19.78755 C -339.28 19.78 -339.3 19.77 -339.31301 19.76507 C -339.33 19.76 -339.35 19.75 -339.36249 19.74208 C -339.38 19.73 -339.4 19.73 -339.41397 19.71858 C -339.43 19.71 -339.45 19.7 -339.46742 19.69458 C -339.49 19.69 -339.5 19.68 -339.52282 19.67011 C -339.54 19.66 -339.56 19.65 -339.58016 19.64518 C -339.6 19.64 -339.62 19.63 -339.6394 19.61981 C -339.66 19.61 -339.68 19.6 -339.70049 19.594 C -339.72 19.59 -339.74 19.58 -339.76341 19.5678 C -339.78 19.56 -339.81 19.55 -339.82811 19.54122 C -339.92 19.51 -340.01 19.47 -340.10344 19.4316" />
    <path d="M -341.50028 24.49226 A 4.25 0.56323 195.43056 0 1 -340.10964 25.32881 A 4.25 0.56323 195.43056 1 1 -348.30325 23.06722 A 4.25 0.56323 195.43056 0 1 -341.50028 24.49226 Z" />
    <path d="M -316.11882 21.33214 C -316.18 21.37 -316.24 21.4 -316.30162 21.43256 C -316.36 21.47 -316.42 21.5 -316.4853 21.52939 C -316.57 21.57 -316.65 21.61 -316.73399 21.64631 C -316.82 21.68 -316.9 21.72 -316.98408 21.75719 C -317.07 21.79 -317.15 21.83 -317.2355 21.86197 C -317.32 21.9 -317.4 21.93 -317.48815 21.96057 C -317.54 21.98 -317.59 22 -317.64294 22.0177 C -317.69 22.04 -317.75 22.05 -317.79813 22.07251 C -317.85 22.09 -317.9 22.11 -317.95371 22.12499 C -318.01 22.14 -318.06 22.16 -318.10965 22.17514 C -318.16 22.19 -318.21 22.21 -318.26592 22.22296 C -318.32 22.24 -318.37 22.25 -318.42251 22.26845 C -318.47 22.28 -318.53 22.3 -318.57939 22.31162 C -318.63 22.33 -318.68 22.34 -318.73653 22.35248 C -318.79 22.37 -318.84 22.38 -318.89392 22.39103 C -318.95 22.4 -319 22.42 -319.05153 22.4273 C -319.1 22.44 -319.16 22.45 -319.20935 22.46129 C -319.26 22.47 -319.31 22.48 -319.36734 22.49302 C -319.42 22.5 -319.47 22.51 -319.5255 22.52252 C -319.58 22.53 -319.63 22.54 -319.6838 22.5498 C -319.74 22.56 -319.79 22.57 -319.84222 22.57488 C -319.9 22.58 -319.95 22.59 -320.00075 22.5978 C -320.05 22.61 -320.11 22.61 -320.15936 22.61857 C -320.21 22.63 -320.27 22.63 -320.31805 22.63723 C -320.42 22.65 -320.53 22.66 -320.63554 22.6683 C -320.74 22.68 -320.85 22.68 -320.95311 22.69127 C -321.06 22.7 -321.16 22.7 -321.27062 22.7064 C -321.38 22.71 -321.48 22.71 -321.58796 22.71394 C -321.69 22.72 -321.8 22.72 -321.90502 22.71418 C -322.01 22.71 -322.12 22.71 -322.2217 22.70741 C -322.33 22.7 -322.43 22.7 -322.5379 22.69391 C -322.84 22.68 -323.15 22.65 -323.44767 22.61983 C -323.52 22.61 -323.6 22.6 -323.67147 22.59407 C -323.75 22.59 -323.82 22.58 -323.89495 22.56554 C -323.97 22.56 -324.04 22.55 -324.11811 22.53434 C -324.19 22.52 -324.27 22.51 -324.34093 22.50056 C -324.42 22.49 -324.49 22.48 -324.56341 22.46429 C -324.64 22.45 -324.71 22.44 -324.78555 22.42563 C -324.86 22.41 -324.93 22.4 -325.00735 22.38465 C -325.08 22.37 -325.16 22.36 -325.2288 22.34144 C -325.3 22.33 -325.38 22.31 -325.44989 22.29608 C -325.52 22.28 -325.6 22.26 -325.67064 22.24865 C -325.74 22.23 -325.82 22.22 -325.89104 22.19922 C -325.96 22.18 -326.04 22.17 -326.1111 22.14786 C -326.18 22.13 -326.26 22.11 -326.33081 22.09466 C -326.4 22.08 -326.48 22.06 -326.55019 22.03967 C -326.62 22.02 -326.7 22 -326.76924 21.98296 C -326.84 21.96 -326.92 21.94 -326.98797 21.92459 C -327.05 21.91 -327.12 21.89 -327.1837 21.87093 C -327.25 21.85 -327.31 21.83 -327.37918 21.81603 C -327.51 21.78 -327.64 21.74 -327.76937 21.70268 C -327.9 21.66 -328.03 21.62 -328.15858 21.58486 C -328.29 21.54 -328.42 21.5 -328.54686 21.46286 C -328.68 21.42 -328.81 21.38 -328.93424 21.33695 C -329.06 21.29 -329.19 21.25 -329.32075 21.20738 C -329.45 21.16 -329.58 21.12 -329.70643 21.07441 C -329.83 21.03 -329.96 20.98 -330.09133 20.93824 C -330.22 20.89 -330.35 20.85 -330.47546 20.79909 C -330.6 20.75 -330.73 20.7 -330.85888 20.65715 C -330.99 20.61 -331.11 20.56 -331.24161 20.5126 C -331.37 20.46 -331.5 20.42 -331.62368 20.36562 C -332.13 20.17 -332.64 19.96 -333.14616 19.75635 C -333.23 19.72 -333.32 19.69 -333.40358 19.65101 C -333.49 19.62 -333.58 19.58 -333.66129 19.54667 C -333.75 19.51 -333.83 19.48 -333.91929 19.44339 C -334.01 19.41 -334.09 19.38 -334.17759 19.3412 C -334.26 19.31 -334.35 19.27 -334.43621 19.24015 C -334.52 19.21 -334.61 19.17 -334.69514 19.14028 C -334.78 19.11 -334.87 19.07 -334.95441 19.04165 C -335.04 19.01 -335.13 18.98 -335.21402 18.9443 C -335.3 18.91 -335.39 18.88 -335.47397 18.8483 C -335.56 18.82 -335.65 18.78 -335.73429 18.75369 C -335.82 18.72 -335.91 18.69 -335.99498 18.66054 C -336.08 18.63 -336.17 18.6 -336.25605 18.56891 C -336.34 18.54 -336.43 18.51 -336.51752 18.47885 C -336.6 18.45 -336.69 18.42 -336.77938 18.39045 C -336.87 18.36 -336.95 18.33 -337.04165 18.30375 C -337.13 18.28 -337.22 18.25 -337.30435 18.21885 C -337.37 18.2 -337.44 18.18 -337.50304 18.15699" />
    <path d="M -347.43826 19.93343 C -347.52 19.92 -347.59 19.9 -347.66903 19.88683 C -347.75 19.87 -347.82 19.85 -347.89943 19.83794 C -347.98 19.82 -348.05 19.8 -348.12944 19.78686 C -348.21 19.77 -348.28 19.75 -348.35908 19.73368 C -348.44 19.72 -348.51 19.7 -348.58835 19.67846 C -348.66 19.66 -348.74 19.64 -348.81725 19.62129 C -348.89 19.6 -348.97 19.58 -349.0458 19.56224 C -349.12 19.54 -349.2 19.52 -349.27399 19.50139 C -349.34 19.48 -349.4 19.47 -349.46972 19.44772 C -349.53 19.43 -349.6 19.41 -349.6652 19.39282 C -349.8 19.36 -349.93 19.32 -350.05539 19.27948 C -350.19 19.24 -350.32 19.2 -350.4446 19.16166 C -350.57 19.12 -350.7 19.08 -350.83288 19.03965 C -350.96 19 -351.09 18.96 -351.22025 18.91374 C -351.35 18.87 -351.48 18.83 -351.60677 18.78418 C -351.74 18.74 -351.86 18.7 -351.99245 18.6512 C -352.12 18.61 -352.25 18.56 -352.37735 18.51503 C -352.51 18.47 -352.63 18.42 -352.76148 18.37588 C -352.89 18.33 -353.02 18.28 -353.1449 18.23394 C -353.27 18.19 -353.4 18.14 -353.52762 18.0894 C -353.66 18.04 -353.78 17.99 -353.9097 17.94242 C -354.04 17.89 -354.16 17.84 -354.29116 17.79316 C -354.42 17.74 -354.55 17.69 -354.67203 17.64178 C -354.8 17.59 -354.93 17.54 -355.05236 17.4884 C -355.18 17.44 -355.31 17.39 -355.43217 17.33315 C -355.52 17.3 -355.6 17.26 -355.6896 17.22781 C -355.78 17.19 -355.86 17.16 -355.94731 17.12347 C -356.03 17.09 -356.12 17.05 -356.20531 17.02019 C -356.29 16.99 -356.38 16.95 -356.46361 16.91799 C -356.55 16.88 -356.64 16.85 -356.72222 16.81694 C -356.81 16.78 -356.89 16.75 -356.98116 16.71708 C -357.07 16.68 -357.15 16.65 -357.24043 16.61844 C -357.33 16.59 -357.41 16.55 -357.50003 16.5211 C -357.59 16.49 -357.67 16.46 -357.75999 16.4251 C -357.85 16.39 -357.93 16.36 -358.02031 16.33049 C -358.11 16.3 -358.19 16.27 -358.281 16.23734 C -358.37 16.21 -358.45 16.18 -358.54207 16.1457 C -358.63 16.12 -358.72 16.09 -358.80353 16.05565 C -358.89 16.03 -358.98 16 -359.0654 15.96724 C -359.15 15.94 -359.24 15.91 -359.32767 15.88055 C -359.42 15.85 -359.5 15.82 -359.59037 15.79565 C -359.59 15.79 -359.59 15.79 -359.59731 15.79335 C -359.6 15.79 -359.6 15.79 -359.60519 15.79075 C -359.61 15.79 -359.61 15.79 -359.61393 15.78786 C -359.62 15.79 -359.62 15.79 -359.62345 15.78472 C -359.63 15.78 -359.63 15.78 -359.63367 15.78135 C -359.64 15.78 -359.64 15.78 -359.64452 15.77778 C -359.65 15.78 -359.65 15.78 -359.65593 15.77402 C -359.66 15.77 -359.66 15.77 -359.66783 15.77011 C -359.67 15.77 -359.68 15.77 -359.68016 15.76606 C -359.68 15.76 -359.69 15.76 -359.69286 15.7619 C -359.7 15.76 -359.7 15.76 -359.70587 15.75764 C -359.71 15.76 -359.71 15.75 -359.71912 15.7533 C -359.72 15.75 -359.73 15.75 -359.73257 15.74891 C -359.74 15.75 -359.74 15.75 -359.74616 15.74448 C -359.76 15.74 -359.76 15.74 -359.77354 15.73557 C -359.78 15.73 -359.79 15.73 -359.80086 15.7267 C -359.81 15.72 -359.82 15.72 -359.82772 15.71801 C -359.84 15.72 -359.85 15.71 -359.85372 15.70962 C -359.86 15.71 -359.87 15.7 -359.87847 15.70165 C -359.89 15.7 -359.89 15.7 -359.90159 15.69423 C -359.91 15.69 -359.91 15.69 -359.9124 15.69076 C -359.92 15.69 -359.92 15.69 -359.92264 15.68748 C -359.93 15.69 -359.93 15.69 -359.93227 15.68441 C -359.94 15.68 -359.94 15.68 -359.94122 15.68155 C -359.94 15.68 -359.95 15.68 -359.94943 15.67892 C -359.95 15.68 -359.95 15.68 -359.95685 15.67656 C -359.98 15.67 -360 15.66 -360.01504 15.65723 C -360.03 15.65 -360.05 15.64 -360.07178 15.63824 C -360.09 15.63 -360.11 15.63 -360.12704 15.61961 C -360.15 15.61 -360.16 15.61 -360.18078 15.60136 C -360.2 15.6 -360.22 15.59 -360.23297 15.58349 C -360.25 15.58 -360.27 15.57 -360.2836 15.56601 C -360.3 15.56 -360.32 15.55 -360.33262 15.54894 C -360.35 15.54 -360.36 15.54 -360.38003 15.53227 C -360.4 15.53 -360.41 15.52 -360.4258 15.51601 C -360.44 15.51 -360.46 15.51 -360.46992 15.50018 C -360.48 15.49 -360.5 15.49 -360.51238 15.48477 C -360.53 15.48 -360.54 15.47 -360.55316 15.46978 C -360.57 15.46 -360.58 15.46 -360.59226 15.45523 C -360.61 15.45 -360.62 15.45 -360.62968 15.44111 C -360.64 15.44 -360.65 15.43 -360.66541 15.42743 C -360.68 15.42 -360.69 15.42 -360.69945 15.41418 C -360.71 15.41 -360.73 15.4 -360.74419 15.3964 C -360.76 15.39 -360.77 15.38 -360.78566 15.37946 C -360.8 15.37 -360.81 15.37 -360.82389 15.36336 C -360.84 15.36 -360.85 15.35 -360.85889 15.34808 C -360.87 15.34 -360.88 15.34 -360.89071 15.33361 C -360.9 15.33 -360.91 15.32 -360.91938 15.31995 C -360.93 15.32 -360.94 15.31 -360.94494 15.30709 C -360.95 15.3 -360.96 15.3 -360.96744 15.29499 C -360.98 15.29 -360.99 15.28 -361.00116 15.2746 C -361.01 15.27 -361.02 15.26 -361.02484 15.25671 C -361.03 15.25 -361.04 15.25 -361.03881 15.24121 C -361.04 15.24 -361.04 15.23 -361.04339 15.228 C -361.04 15.22 -361.04 15.22 -361.03912 15.21719 C -361.04 15.21 -361.03 15.21 -361.02649 15.20835 C -361.02 15.21 -361.02 15.2 -361.0091 15.20225 C -361 15.2 -360.99 15.2 -360.98587 15.19748 C -360.98 15.2 -360.97 15.19 -360.95698 15.19399 C -360.95 15.19 -360.93 15.19 -360.92259 15.19174 C -360.91 15.19 -360.9 15.19 -360.88284 15.19067 C -360.87 15.19 -360.85 15.19 -360.83787 15.19074 C -360.82 15.19 -360.81 15.19 -360.78783 15.1919 C -360.77 15.19 -360.75 15.19 -360.73284 15.19412 C -360.71 15.2 -360.69 15.2 -360.67302 15.19736 C -360.65 15.2 -360.63 15.2 -360.60849 15.20158 C -360.59 15.2 -360.56 15.2 -360.53934 15.20677 C -360.52 15.21 -360.49 15.21 -360.46569 15.21289 C -360.44 15.22 -360.41 15.22 -360.38762 15.21992 C -360.36 15.22 -360.33 15.23 -360.30522 15.22785 C -360.28 15.23 -360.25 15.23 -360.21856 15.23665 C -360.19 15.24 -360.16 15.24 -360.1277 15.24633 L -342.93563 17.11565 C -342.9 17.12 -342.87 17.12 -342.83435 17.1269 C -342.8 17.13 -342.76 17.13 -342.72852 17.13911 C -342.69 17.14 -342.66 17.15 -342.6182 17.15228 C -342.58 17.16 -342.54 17.16 -342.50345 17.16641 C -342.46 17.17 -342.42 17.18 -342.38435 17.18151 C -342.34 17.19 -342.3 17.19 -342.26095 17.19758 C -342.22 17.2 -342.18 17.21 -342.13332 17.21465 C -342.09 17.22 -342.05 17.23 -342.00154 17.23271 C -341.96 17.24 -341.91 17.25 -341.86566 17.25179 C -341.82 17.26 -341.77 17.27 -341.72577 17.27192 C -341.68 17.28 -341.63 17.29 -341.58193 17.2931 C -341.53 17.3 -341.48 17.31 -341.43424 17.31538 C -341.38 17.32 -341.33 17.33 -341.28277 17.33878 C -341.23 17.35 -341.18 17.35 -341.12761 17.36333 C -341.08 17.37 -341.02 17.38 -340.96884 17.38907 C -340.92 17.4 -340.86 17.41 -340.80656 17.41604 C -340.77 17.42 -340.73 17.43 -340.68505 17.43668 C -340.64 17.44 -340.6 17.45 -340.56179 17.45801 C -340.52 17.47 -340.48 17.47 -340.43686 17.48005 C -340.39 17.49 -340.35 17.5 -340.31032 17.50282 C -340.27 17.51 -340.23 17.52 -340.18225 17.52632 C -340.14 17.53 -340.1 17.54 -340.05276 17.55056 C -340.01 17.56 -339.97 17.57 -339.92194 17.57557 C -339.88 17.58 -339.83 17.59 -339.7899 17.60133 C -339.75 17.61 -339.72 17.62 -339.67909 17.62338 C -339.64 17.63 -339.6 17.64 -339.56761 17.64597 C -339.53 17.65 -339.49 17.66 -339.45555 17.66909 C -339.42 17.68 -339.38 17.68 -339.34299 17.69275 C -339.19 17.72 -339.04 17.76 -338.89002 17.79264 C -338.41 17.9 -337.93 18.03 -337.50304 18.15699" />
    <path d="M -316.11882 21.33214 C -316.1 21.32 -316.08 21.31 -316.06532 21.2995 C -316.05 21.29 -316.03 21.28 -316.0132 21.2666 C -316 21.26 -315.98 21.24 -315.96246 21.23346 C -315.95 21.22 -315.93 21.21 -315.91312 21.20009 C -315.9 21.19 -315.88 21.18 -315.86518 21.16653 C -315.85 21.16 -315.83 21.14 -315.81865 21.1328 C -315.8 21.12 -315.79 21.11 -315.77353 21.09891 C -315.76 21.09 -315.74 21.08 -315.72982 21.06491 C -315.72 21.05 -315.7 21.04 -315.68752 21.0308 C -315.67 21.02 -315.66 21.01 -315.64663 20.99661 C -315.62 20.97 -315.59 20.95 -315.56906 20.92808 C -315.54 20.91 -315.52 20.88 -315.49706 20.85949 C -315.47 20.84 -315.45 20.81 -315.4306 20.79099 C -315.42 20.78 -315.4 20.76 -315.38746 20.74333 C -315.37 20.73 -315.36 20.71 -315.34695 20.69584 C -315.33 20.68 -315.32 20.66 -315.30904 20.64856 C -315.3 20.63 -315.29 20.62 -315.2737 20.60154 C -315.26 20.59 -315.25 20.57 -315.24091 20.55481 C -315.23 20.54 -315.22 20.52 -315.21063 20.50842 C -315.2 20.49 -315.19 20.48 -315.18283 20.46241 C -315.17 20.45 -315.17 20.43 -315.15749 20.41681 C -315.14 20.39 -315.13 20.37 -315.12179 20.3444 C -315.11 20.32 -315.1 20.3 -315.09224 20.27331 C -315.08 20.25 -315.08 20.23 -315.06872 20.20366 C -315.06 20.18 -315.06 20.16 -315.05112 20.13558 C -315.04 20.11 -315.04 20.08 -315.03695 20.05003 C -315.03 20.02 -315.03 19.99 -315.03228 19.96757 L -315.03228 -16.10843" />
    <path d="M -316.11882 -16.22657 L -316.11882 21.33214" />
    <path d="M -316.4853 -16.26642 L -316.4853 21.52939" />
    <path d="M -337.30435 -18.53011 L -337.30435 18.21885" />
    <path d="M -342.20094 -17.5865 L -342.20094 -19.06253" />
    <path d="M -337.50304 -18.55172 L -337.50304 18.15699" />
    <path d="M -342.29888 -19.07318 L -189.79885 -2.49154 L -189.79885 33.76653 L -172.60678 35.63586" />
    <path d="M -343.84104 -17.46489 L -342.20094 -17.5865" />
    <path d="M -365.49031 -19.81886 L -343.84104 -17.46489 L -343.84104 -37.38411 L -328.41952 -38.52757 L -328.41952 -37.03362 L -342.29888 -36.00451 L -21.64889 -1.13959" />
    <path d="M -326.53887 -40.29727 L -339.27373 -41.68195 L -365.49031 -39.73808 L -343.84104 -37.38411" />
    <path d="M -326.53887 -38.80332 L -326.53887 -40.29727 L -337.33393 -39.49685 L -328.41952 -38.52757" />
    <path d="M -342.29888 -19.07318 L -342.29888 -36.00451" />
    <path d="M 162.81731 10.05616 C 162.75 9.96 162.68 9.86 162.60849 9.75804 C 162.54 9.66 162.47 9.56 162.39885 9.46094 C 162.33 9.36 162.26 9.26 162.18834 9.16491 C 162.12 9.07 162.05 8.97 161.97691 8.86999" />
    <path d="M 166.9755 15.55662 C 166.88 15.45 166.79 15.34 166.70234 15.23024 C 166.61 15.12 166.52 15.01 166.43144 14.90077 C 166.34 14.79 166.25 14.68 166.16267 14.56841 C 166.07 14.46 165.98 14.35 165.89591 14.23335 C 165.81 14.12 165.72 14.01 165.63106 13.89576 C 165.54 13.78 165.46 13.67 165.36802 13.55581 C 165.28 13.44 165.19 13.33 165.10667 13.21366 C 165.02 13.1 164.93 12.98 164.84694 12.86946 C 164.76 12.75 164.67 12.64 164.58873 12.52333 C 164.5 12.41 164.42 12.29 164.33197 12.17541 C 164.25 12.06 164.16 11.94 164.07655 11.82581 C 163.99 11.71 163.91 11.59 163.82243 11.47464 C 163.74 11.36 163.65 11.24 163.56951 11.122 C 163.49 11 163.4 10.89 163.31772 10.76799 C 163.23 10.65 163.15 10.53 163.06701 10.41268 C 162.98 10.29 162.9 10.18 162.81731 10.05616" />
    <path d="M 189.26152 4.16175 L 189.26152 17.97982 C 189.17 17.87 189.08 17.76 188.98836 17.65345 C 188.9 17.54 188.81 17.43 188.71746 17.32398 C 188.63 17.21 188.54 17.1 188.44869 16.99162 C 188.36 16.88 188.27 16.77 188.18193 16.65655 C 188.09 16.54 188.01 16.43 187.91708 16.31896 C 187.83 16.21 187.74 16.09 187.65403 15.97902 C 187.57 15.87 187.48 15.75 187.39269 15.63687 C 187.31 15.52 187.22 15.41 187.13296 15.29266 C 187.05 15.18 186.96 15.06 186.87475 14.94654 C 186.79 14.83 186.7 14.71 186.61798 14.59862 C 186.53 14.48 186.45 14.37 186.36257 14.24902 C 186.28 14.13 186.19 14.02 186.10844 13.89785 C 186.02 13.78 185.94 13.66 185.85552 13.54521 C 185.77 13.43 185.69 13.31 185.60374 13.19119 C 185.52 13.07 185.44 12.95 185.35303 12.83589 C 185.27 12.72 185.19 12.6 185.10332 12.47937 C 185 12.33 184.9 12.19 184.79412 12.03868 C 184.69 11.89 184.59 11.75 184.48305 11.60028 C 184.38 11.45 184.27 11.31 184.16999 11.16432 C 184.12 11.09 184.07 11.02 184.01266 10.94731 C 183.96 10.88 183.91 10.8 183.85479 10.73098 C 183.8 10.66 183.75 10.59 183.69634 10.51534 C 183.64 10.44 183.59 10.37 183.53731 10.30044 C 183.48 10.23 183.43 10.16 183.37767 10.08629 C 183.32 10.02 183.27 9.94 183.21741 9.87292 C 183.16 9.8 183.11 9.73 183.05649 9.66037 C 183 9.59 182.95 9.52 182.89491 9.44866 C 182.84 9.38 182.79 9.31 182.73265 9.23784 C 182.68 9.17 182.62 9.1 182.56967 9.02793 C 182.52 8.96 182.46 8.89 182.40597 8.81897 C 182.35 8.75 182.3 8.68 182.24151 8.611 C 182.19 8.54 182.13 8.47 182.07628 8.40406 C 182.02 8.34 181.97 8.27 181.91025 8.1982 C 181.85 8.13 181.8 8.06 181.74339 7.99344 C 181.69 7.93 181.63 7.86 181.57569 7.78985 C 181.52 7.72 181.46 7.65 181.40712 7.58747 C 181.35 7.52 181.29 7.45 181.23765 7.38634 C 181.18 7.32 181.12 7.25 181.06725 7.18652 C 181.01 7.12 180.95 7.05 180.89591 6.98805 C 180.84 6.92 180.78 6.86 180.72357 6.791 C 180.67 6.73 180.61 6.66 180.55023 6.59542 C 180.49 6.53 180.43 6.47 180.37585 6.40138 C 180.32 6.34 180.26 6.27 180.20039 6.20892 C 180.14 6.15 180.08 6.08 180.02383 6.01811 C 179.96 5.95 179.91 5.89 179.84614 5.82903 C 179.55 5.52 179.26 5.22 178.95396 4.92602" />
    <path d="M 333.14616 28.57636 C 333.08 28.48 333.01 28.38 332.93734 28.27824 C 332.87 28.18 332.8 28.08 332.7277 27.98114 C 332.66 27.88 332.59 27.78 332.51719 27.68511 C 332.45 27.59 332.38 27.49 332.30576 27.39019" />
    <path d="M 328.64881 22.75503 C 328.59 22.68 328.52 22.61 328.46075 22.54494 C 328.4 22.48 328.33 22.41 328.27146 22.33669 C 328.21 22.27 328.14 22.2 328.08087 22.13036 C 328.02 22.06 327.95 21.99 327.88897 21.92603 C 327.83 21.86 327.77 21.8 327.70844 21.73701 C 327.65 21.67 327.59 21.61 327.52669 21.5499 C 327.47 21.49 327.4 21.43 327.3437 21.36478 C 327.28 21.3 327.22 21.24 327.15944 21.18174 C 327.1 21.12 327.04 21.06 326.97387 21.00086 C 326.91 20.94 326.85 20.88 326.78696 20.82223 C 326.72 20.76 326.66 20.7 326.59868 20.64595 C 326.54 20.59 326.47 20.53 326.40899 20.4721 C 326.35 20.41 326.28 20.36 326.21788 20.3008 C 326.15 20.24 326.09 20.19 326.02531 20.13215 C 325.96 20.08 325.9 20.02 325.83125 19.96625 C 325.77 19.91 325.7 19.86 325.63568 19.80322 C 325.57 19.75 325.5 19.7 325.43857 19.64318 C 325.37 19.59 325.31 19.54 325.23989 19.48622 C 325.17 19.43 325.11 19.38 325.03964 19.33249 C 324.97 19.28 324.91 19.23 324.83777 19.18209 C 324.75 19.12 324.66 19.05 324.56793 18.98825 C 324.48 18.92 324.39 18.86 324.29522 18.80079" />
    <path d="M 337.30435 34.07682 C 337.21 33.97 337.12 33.86 337.03119 33.75044 C 336.94 33.64 336.85 33.53 336.76029 33.42098 C 336.67 33.31 336.58 33.2 336.49152 33.08861 C 336.4 32.98 336.31 32.87 336.22476 32.75355 C 336.14 32.64 336.05 32.53 335.95991 32.41596 C 335.87 32.3 335.78 32.19 335.69687 32.07601 C 335.61 31.96 335.52 31.85 335.43552 31.73387 C 335.35 31.62 335.26 31.5 335.17579 31.38966 C 335.09 31.27 335 31.16 334.91758 31.04353 C 334.83 30.93 334.75 30.81 334.66082 30.69561 C 334.58 30.58 334.49 30.46 334.4054 30.34601 C 334.32 30.23 334.24 30.11 334.15128 29.99484 C 334.07 29.88 333.98 29.76 333.89836 29.64221 C 333.81 29.52 333.73 29.41 333.64657 29.28819 C 333.56 29.17 333.48 29.05 333.39586 28.93288 C 333.31 28.81 333.23 28.7 333.14616 28.57636" />
    <path d="M 315.94797 17.89318 C 315.93 17.89 315.9 17.89 315.88152 17.88548 C 315.86 17.88 315.84 17.88 315.81726 17.87705 C 315.8 17.87 315.78 17.87 315.75523 17.86792 C 315.73 17.86 315.71 17.86 315.69545 17.85807 C 315.68 17.85 315.66 17.85 315.63796 17.84751 C 315.62 17.84 315.6 17.84 315.58278 17.83625 C 315.56 17.83 315.55 17.83 315.52996 17.82429 C 315.51 17.82 315.5 17.82 315.47952 17.81165 C 315.46 17.81 315.45 17.8 315.43151 17.79831 C 315.42 17.79 315.4 17.79 315.38596 17.7843 C 315.37 17.78 315.36 17.77 315.34292 17.76962 C 315.33 17.76 315.32 17.76 315.30243 17.75427 C 315.29 17.75 315.28 17.74 315.26453 17.73827 C 315.25 17.73 315.24 17.73 315.22928 17.72163 C 315.22 17.72 315.21 17.71 315.19672 17.70435 C 315.19 17.7 315.18 17.69 315.16691 17.68644 C 315.16 17.68 315.15 17.67 315.13622 17.66519 C 315.13 17.66 315.12 17.65 315.10931 17.64317 C 315.1 17.64 315.09 17.63 315.08624 17.62039 C 315.08 17.61 315.07 17.6 315.06713 17.59688 C 315.06 17.59 315.06 17.58 315.05206 17.57265 C 315.05 17.56 315.04 17.56 315.04115 17.54774 C 315.04 17.54 315.04 17.53 315.03452 17.52217 C 315.03 17.51 315.03 17.5 315.03228 17.49599 L 315.03228 -5.16375" />
    <path d="M 315.94797 17.89318 L 333.14005 19.76251 C 333.18 19.77 333.22 19.77 333.25711 19.77387 C 333.3 19.78 333.34 19.78 333.38015 19.78317 C 333.46 19.79 333.55 19.79 333.6438 19.79552 C 333.69 19.8 333.74 19.8 333.78426 19.79857 C 333.83 19.8 333.88 19.8 333.93035 19.79954 C 333.98 19.8 334.03 19.8 334.08201 19.79843 C 334.13 19.8 334.19 19.8 334.23914 19.79525 C 334.29 19.79 334.35 19.79 334.40165 19.79001 C 334.46 19.79 334.51 19.79 334.56944 19.78272 C 334.63 19.78 334.68 19.78 334.74241 19.7734 C 334.8 19.77 334.86 19.77 334.92045 19.76209 C 334.98 19.76 335.04 19.75 335.10347 19.74881 C 335.17 19.74 335.23 19.74 335.29133 19.7336 C 335.35 19.73 335.42 19.72 335.48394 19.71652 C 335.55 19.71 335.61 19.7 335.68118 19.69762 C 335.72 19.69 335.77 19.69 335.80894 19.68468 C 335.85 19.68 335.89 19.68 335.9384 19.67106 C 335.98 19.67 336.03 19.66 336.06951 19.65678 C 336.11 19.65 336.16 19.65 336.20219 19.64187 C 336.25 19.64 336.29 19.63 336.33634 19.62636 C 336.38 19.62 336.43 19.62 336.47186 19.61028 C 336.52 19.6 336.56 19.6 336.60865 19.59368 C 336.65 19.59 336.7 19.58 336.74657 19.57659 C 336.78 19.57 336.81 19.57 336.84908 19.56369 C 336.88 19.56 336.92 19.55 336.95206 19.55057 C 336.99 19.55 337.02 19.54 337.05543 19.53725 C 337.09 19.53 337.12 19.53 337.15912 19.52376 C 337.23 19.51 337.3 19.51 337.36706 19.49639 C 337.44 19.49 337.51 19.48 337.57509 19.46865 C 337.92 19.42 338.26 19.38 338.57263 19.33492" />
    <path d="M -14.77447 54.37355 C -14.86 54.34 -14.95 54.3 -15.0319 54.26821 C -15.12 54.23 -15.2 54.2 -15.28961 54.16387 C -15.38 54.13 -15.46 54.09 -15.54761 54.06059 C -15.63 54.03 -15.72 53.99 -15.80591 53.9584 C -15.89 53.92 -15.98 53.89 -16.06452 53.85735 C -16.15 53.82 -16.24 53.79 -16.32346 53.75748 C -16.41 53.72 -16.5 53.69 -16.58273 53.65885 C -16.67 53.63 -16.76 53.59 -16.84233 53.5615 C -16.93 53.53 -17.02 53.5 -17.10229 53.4655 C -17.19 53.43 -17.28 53.4 -17.36261 53.37089 C -17.45 53.34 -17.54 53.31 -17.6233 53.27774 C -17.71 53.25 -17.8 53.22 -17.88437 53.18611 C -17.97 53.16 -18.06 53.13 -18.14583 53.09605 C -18.23 53.07 -18.32 53.04 -18.4077 53.00765 C -18.5 52.98 -18.58 52.95 -18.66997 52.92095 C -18.76 52.89 -18.85 52.86 -18.93267 52.83605 C -18.93 52.84 -18.94 52.83 -18.93961 52.83376 C -18.94 52.83 -18.94 52.83 -18.94749 52.83115 C -18.95 52.83 -18.95 52.83 -18.95623 52.82827 C -18.96 52.83 -18.96 52.83 -18.96575 52.82512 C -18.97 52.82 -18.97 52.82 -18.97597 52.82175 C -18.98 52.82 -18.98 52.82 -18.98682 52.81818 C -18.99 52.82 -18.99 52.82 -18.99823 52.81443 C -19 52.81 -19.01 52.81 -19.01013 52.81051 C -19.01 52.81 -19.02 52.81 -19.02246 52.80647 C -19.03 52.81 -19.03 52.8 -19.03516 52.8023 C -19.04 52.8 -19.04 52.8 -19.04817 52.79804 C -19.05 52.8 -19.06 52.8 -19.06142 52.79371 C -19.07 52.79 -19.07 52.79 -19.07487 52.78932 C -19.08 52.79 -19.08 52.79 -19.08846 52.78489 C -19.1 52.78 -19.11 52.78 -19.11584 52.77597 C -19.12 52.77 -19.13 52.77 -19.14316 52.76711 C -19.15 52.76 -19.16 52.76 -19.17002 52.75842 C -19.18 52.76 -19.19 52.75 -19.19602 52.75002 C -19.2 52.75 -19.21 52.74 -19.22077 52.74206 C -19.23 52.74 -19.24 52.74 -19.24389 52.73463 C -19.25 52.73 -19.25 52.73 -19.2547 52.73117 C -19.26 52.73 -19.26 52.73 -19.26494 52.72789 C -19.27 52.73 -19.27 52.73 -19.27457 52.72481 C -19.28 52.72 -19.28 52.72 -19.28352 52.72195 C -19.29 52.72 -19.29 52.72 -19.29173 52.71933 C -19.29 52.72 -19.3 52.72 -19.29915 52.71696" />
    <path d="M -6.78056 56.97383 C -6.86 56.96 -6.93 56.94 -7.01133 56.92723 C -7.09 56.91 -7.16 56.9 -7.24173 56.87835 C -7.32 56.86 -7.4 56.84 -7.47174 56.82727 C -7.55 56.81 -7.62 56.79 -7.70138 56.77408 C -7.78 56.76 -7.85 56.74 -7.93065 56.71886 C -8.01 56.7 -8.08 56.68 -8.15955 56.66169 C -8.24 56.64 -8.31 56.62 -8.3881 56.60264 C -8.46 56.58 -8.54 56.56 -8.61629 56.54179 C -8.68 56.52 -8.75 56.51 -8.81202 56.48813 C -8.88 56.47 -8.94 56.45 -9.0075 56.43323 C -9.14 56.4 -9.27 56.36 -9.39769 56.31988 C -9.53 56.28 -9.66 56.24 -9.7869 56.20206 C -9.92 56.16 -10.05 56.12 -10.17518 56.08006 C -10.3 56.04 -10.43 56 -10.56255 55.95415 C -10.69 55.91 -10.82 55.87 -10.94907 55.82458 C -11.08 55.78 -11.21 55.74 -11.33475 55.69161 C -11.46 55.65 -11.59 55.6 -11.71965 55.55544 C -11.85 55.51 -11.98 55.46 -12.10378 55.41629 C -12.23 55.37 -12.36 55.32 -12.4872 55.27435 C -12.61 55.23 -12.74 55.18 -12.86992 55.1298 C -13 55.08 -13.12 55.03 -13.252 54.98282 C -13.38 54.93 -13.51 54.88 -13.63346 54.83357 C -13.76 54.78 -13.89 54.73 -14.01433 54.68218 C -14.14 54.63 -14.27 54.58 -14.39466 54.5288 C -14.52 54.48 -14.65 54.43 -14.77447 54.37355" />
    <path d="M -146.15645 2.25378 L -146.15645 40.04959 C -146.24 40.09 -146.32 40.13 -146.40514 40.16651 C -146.49 40.2 -146.57 40.24 -146.65523 40.2774 C -146.74 40.31 -146.82 40.35 -146.90665 40.38217 C -146.99 40.42 -147.07 40.45 -147.1593 40.48077 C -147.21 40.5 -147.26 40.52 -147.31409 40.5379 C -147.37 40.56 -147.42 40.57 -147.46928 40.59271 C -147.52 40.61 -147.57 40.63 -147.62486 40.64519 C -147.68 40.66 -147.73 40.68 -147.7808 40.69534 C -147.83 40.71 -147.88 40.73 -147.93707 40.74316 C -147.99 40.76 -148.04 40.77 -148.09366 40.78865 C -148.15 40.8 -148.2 40.82 -148.25054 40.83182 C -148.3 40.85 -148.36 40.86 -148.40768 40.87268 C -148.46 40.89 -148.51 40.9 -148.56507 40.91124 C -148.62 40.92 -148.67 40.94 -148.72268 40.9475 C -148.78 40.96 -148.83 40.97 -148.8805 40.98149 C -148.93 40.99 -148.99 41 -149.03849 41.01323 C -149.09 41.02 -149.14 41.03 -149.19665 41.04272 C -149.25 41.05 -149.3 41.06 -149.35495 41.07 C -149.41 41.08 -149.46 41.09 -149.51337 41.09509 C -149.57 41.1 -149.62 41.11 -149.6719 41.118 C -149.72 41.13 -149.78 41.13 -149.83051 41.13877 C -149.88 41.15 -149.94 41.15 -149.9892 41.15743 C -150.1 41.17 -150.2 41.18 -150.30669 41.18851 C -150.41 41.2 -150.52 41.21 -150.62426 41.21148 C -150.73 41.22 -150.84 41.22 -150.94177 41.2266 C -151.05 41.23 -151.15 41.23 -151.25911 41.23414 C -151.36 41.24 -151.47 41.24 -151.57617 41.23438 C -151.68 41.23 -151.79 41.23 -151.89285 41.22761 C -152 41.22 -152.1 41.22 -152.20905 41.21412 C -152.51 41.2 -152.82 41.17 -153.11882 41.14004 C -153.19 41.13 -153.27 41.12 -153.34262 41.11427 C -153.42 41.11 -153.49 41.1 -153.5661 41.08574 C -153.64 41.08 -153.71 41.07 -153.78926 41.05454 C -153.86 41.04 -153.94 41.03 -154.01208 41.02076 C -154.09 41.01 -154.16 41 -154.23456 40.9845 C -154.31 40.97 -154.38 40.96 -154.4567 40.94583 C -154.53 40.93 -154.6 40.92 -154.6785 40.90485 C -154.75 40.89 -154.83 40.88 -154.89995 40.86164 C -154.97 40.85 -155.05 40.83 -155.12104 40.81628 C -155.19 40.8 -155.27 40.78 -155.34179 40.76885 C -155.42 40.75 -155.49 40.74 -155.56219 40.71942 C -155.64 40.7 -155.71 40.69 -155.78225 40.66807 C -155.86 40.65 -155.93 40.63 -156.00196 40.61486 C -156.08 40.6 -156.15 40.58 -156.22134 40.55987 C -156.29 40.54 -156.37 40.52 -156.44039 40.50316 C -156.51 40.48 -156.59 40.46 -156.65912 40.44479 C -156.72 40.43 -156.79 40.41 -156.85485 40.39113 C -156.92 40.37 -156.99 40.35 -157.05033 40.33623 C -157.18 40.3 -157.31 40.26 -157.44052 40.22288 C -157.57 40.18 -157.7 40.15 -157.82973 40.10506 C -157.96 40.07 -158.09 40.02 -158.21801 39.98306 C -158.35 39.94 -158.48 39.9 -158.60539 39.85715 C -158.73 39.81 -158.86 39.77 -158.9919 39.72759 C -159.12 39.68 -159.25 39.64 -159.37758 39.59461 C -159.51 39.55 -159.63 39.5 -159.76248 39.45844 C -159.89 39.41 -160.02 39.37 -160.14661 39.31929 C -160.27 39.27 -160.4 39.23 -160.53003 39.17735 C -160.66 39.13 -160.79 39.08 -160.91276 39.03281 C -161.04 38.98 -161.17 38.94 -161.29483 38.88583 C -161.8 38.69 -162.31 38.48 -162.81731 38.27656 C -162.9 38.24 -162.99 38.21 -163.07473 38.17121 C -163.16 38.14 -163.25 38.1 -163.33244 38.06688 C -163.42 38.03 -163.5 38 -163.59044 37.96359 C -163.68 37.93 -163.76 37.9 -163.84874 37.8614 C -163.93 37.83 -164.02 37.79 -164.10736 37.76035 C -164.19 37.73 -164.28 37.69 -164.36629 37.66048 C -164.45 37.63 -164.54 37.59 -164.62556 37.56185 C -164.71 37.53 -164.8 37.5 -164.88517 37.46451 C -164.97 37.43 -165.06 37.4 -165.14513 37.3685 C -165.23 37.34 -165.32 37.31 -165.40544 37.2739 C -165.49 37.24 -165.58 37.21 -165.66613 37.18074 C -165.75 37.15 -165.84 37.12 -165.9272 37.08911 C -166.01 37.06 -166.1 37.03 -166.18867 36.99905 C -166.28 36.97 -166.36 36.94 -166.45053 36.91065 C -166.54 36.88 -166.63 36.85 -166.7128 36.82396 C -166.8 36.8 -166.89 36.77 -166.9755 36.73906 C -167.04 36.72 -167.11 36.7 -167.17419 36.6772 C -167.21 36.67 -167.24 36.66 -167.27758 36.64619 C -167.31 36.64 -167.35 36.63 -167.38312 36.61532 C -167.42 36.61 -167.45 36.59 -167.49061 36.58462 C -167.53 36.57 -167.56 36.56 -167.59988 36.55414 C -167.64 36.54 -167.67 36.53 -167.71072 36.52395 C -167.75 36.51 -167.79 36.5 -167.82295 36.49407 C -167.86 36.48 -167.9 36.47 -167.93639 36.46454 C -167.97 36.45 -168.01 36.45 -168.05086 36.43541 C -168.09 36.43 -168.13 36.42 -168.16617 36.40669 C -168.2 36.4 -168.24 36.39 -168.28215 36.37844 C -168.32 36.37 -168.36 36.36 -168.39862 36.35065 C -168.44 36.34 -168.48 36.33 -168.51542 36.32337 C -168.55 36.31 -168.59 36.31 -168.63239 36.29662 C -168.67 36.29 -168.71 36.28 -168.74937 36.2704 C -168.79 36.26 -168.83 36.25 -168.86619 36.24473 C -168.91 36.24 -168.94 36.23 -168.98271 36.21964 C -169.02 36.21 -169.05 36.21 -169.08195 36.19865 C -169.11 36.19 -169.15 36.18 -169.18083 36.17807 C -169.21 36.17 -169.25 36.16 -169.27929 36.15791 C -169.31 36.15 -169.34 36.14 -169.37727 36.13817 C -169.41 36.13 -169.44 36.13 -169.47472 36.11884 C -169.51 36.11 -169.54 36.11 -169.57158 36.09993 C -169.6 36.09 -169.64 36.09 -169.6678 36.08143 C -169.7 36.08 -169.73 36.07 -169.76333 36.06333 C -169.8 36.06 -169.83 36.05 -169.85812 36.04565 C -169.89 36.04 -169.92 36.03 -169.95215 36.02836 C -169.98 36.02 -170.01 36.02 -170.04537 36.01147 C -170.08 36.01 -170.11 36 -170.13775 35.99497 C -170.26 35.97 -170.38 35.95 -170.49823 35.93279 C -171.36 35.79 -172.08 35.69 -172.60678 35.63586" />
    <path d="M -166.9755 -0.00991 L -166.9755 36.73906" />
    <path d="M -145.78997 2.29363 L -145.78997 39.85234 C -145.77 39.84 -145.75 39.83 -145.73647 39.81971 C -145.72 39.81 -145.7 39.8 -145.68435 39.78681 C -145.67 39.78 -145.65 39.76 -145.63361 39.75366 C -145.62 39.74 -145.6 39.73 -145.58427 39.72029 C -145.57 39.71 -145.55 39.7 -145.53633 39.68673 C -145.52 39.68 -145.51 39.66 -145.4898 39.653 C -145.47 39.64 -145.46 39.63 -145.44468 39.61912 C -145.43 39.61 -145.42 39.6 -145.40097 39.58511 C -145.39 39.57 -145.37 39.56 -145.35867 39.551 C -145.34 39.54 -145.33 39.53 -145.31778 39.51681 C -145.29 39.49 -145.27 39.47 -145.24021 39.44828 C -145.22 39.43 -145.19 39.4 -145.16821 39.37969 C -145.15 39.36 -145.12 39.33 -145.10175 39.31119 C -145.09 39.3 -145.07 39.28 -145.05861 39.26354 C -145.04 39.25 -145.03 39.23 -145.0181 39.21604 C -145.01 39.2 -144.99 39.18 -144.98019 39.16876 C -144.97 39.15 -144.96 39.14 -144.94485 39.12174 C -144.93 39.11 -144.92 39.09 -144.91206 39.07501 C -144.9 39.06 -144.89 39.04 -144.88178 39.02862 C -144.87 39.01 -144.86 39 -144.85398 38.98261 C -144.85 38.97 -144.84 38.95 -144.82864 38.93701 C -144.82 38.91 -144.8 38.89 -144.79294 38.86461 C -144.78 38.84 -144.77 38.82 -144.76339 38.79351 C -144.75 38.77 -144.75 38.75 -144.73987 38.72386 C -144.73 38.7 -144.73 38.68 -144.72227 38.65579 C -144.72 38.63 -144.71 38.6 -144.7081 38.57023 C -144.7 38.54 -144.7 38.51 -144.70343 38.48777 L -144.70343 2.41177" />
    <path d="M -145.78997 39.85234 C -145.85 39.89 -145.91 39.92 -145.97277 39.95276 C -146.03 39.99 -146.1 40.02 -146.15645 40.04959" />
    <path d="M -185.10332 35.85335 C -185.19 35.82 -185.27 35.78 -185.36075 35.74801 C -185.45 35.71 -185.53 35.68 -185.61846 35.64367 C -185.7 35.61 -185.79 35.57 -185.87646 35.54039 C -185.96 35.51 -186.05 35.47 -186.13476 35.4382 C -186.22 35.4 -186.31 35.37 -186.39337 35.33714 C -186.48 35.3 -186.57 35.27 -186.65231 35.23728 C -186.74 35.2 -186.83 35.17 -186.91158 35.13865 C -187 35.11 -187.08 35.07 -187.17118 35.0413 C -187.26 35.01 -187.34 34.98 -187.43114 34.9453 C -187.52 34.91 -187.6 34.88 -187.69146 34.85069 C -187.78 34.82 -187.87 34.79 -187.95215 34.75754 C -188.04 34.73 -188.13 34.7 -188.21322 34.66591 C -188.3 34.64 -188.39 34.61 -188.47468 34.57585 C -188.56 34.55 -188.65 34.52 -188.73655 34.48744 C -188.82 34.46 -188.91 34.43 -188.99882 34.40075 C -189.09 34.37 -189.17 34.34 -189.26152 34.31585 C -189.26 34.32 -189.27 34.31 -189.26846 34.31356 C -189.27 34.31 -189.27 34.31 -189.27634 34.31095 C -189.28 34.31 -189.28 34.31 -189.28508 34.30806 C -189.29 34.31 -189.29 34.31 -189.2946 34.30492 C -189.3 34.3 -189.3 34.3 -189.30482 34.30155 C -189.31 34.3 -189.31 34.3 -189.31567 34.29798 C -189.32 34.3 -189.32 34.3 -189.32708 34.29422 C -189.33 34.29 -189.33 34.29 -189.33898 34.29031 C -189.34 34.29 -189.35 34.29 -189.35131 34.28626 C -189.36 34.28 -189.36 34.28 -189.36401 34.2821 C -189.37 34.28 -189.37 34.28 -189.37702 34.27784 C -189.38 34.28 -189.39 34.27 -189.39027 34.27351 C -189.39 34.27 -189.4 34.27 -189.40372 34.26911 C -189.41 34.27 -189.41 34.27 -189.41731 34.26468 C -189.43 34.26 -189.44 34.26 -189.44469 34.25577 C -189.45 34.25 -189.46 34.25 -189.47201 34.24691 C -189.48 34.24 -189.49 34.24 -189.49887 34.23821 C -189.51 34.24 -189.52 34.23 -189.52487 34.22982 C -189.53 34.23 -189.54 34.22 -189.54962 34.22185 C -189.56 34.22 -189.57 34.22 -189.57274 34.21443 C -189.58 34.21 -189.58 34.21 -189.58355 34.21097 C -189.59 34.21 -189.59 34.21 -189.59379 34.20769 C -189.6 34.21 -189.6 34.21 -189.60342 34.20461 C -189.61 34.2 -189.61 34.2 -189.61237 34.20175 C -189.62 34.2 -189.62 34.2 -189.62058 34.19913 C -189.62 34.2 -189.63 34.2 -189.628 34.19676" />
    <path d="M -177.10941 38.45363 C -177.19 38.44 -177.26 38.42 -177.34018 38.40703 C -177.42 38.39 -177.49 38.37 -177.57058 38.35814 C -177.65 38.34 -177.72 38.32 -177.80059 38.30707 C -177.88 38.29 -177.95 38.27 -178.03023 38.25388 C -178.11 38.24 -178.18 38.22 -178.2595 38.19866 C -178.34 38.18 -178.41 38.16 -178.4884 38.14149 C -178.56 38.12 -178.64 38.1 -178.71695 38.08244 C -178.79 38.06 -178.87 38.04 -178.94514 38.02159 C -179.01 38 -179.08 37.99 -179.14087 37.96792 C -179.21 37.95 -179.27 37.93 -179.33635 37.91303 C -179.47 37.88 -179.6 37.84 -179.72654 37.79968 C -179.86 37.76 -179.99 37.72 -180.11575 37.68186 C -180.25 37.64 -180.37 37.6 -180.50403 37.55986 C -180.63 37.52 -180.76 37.48 -180.8914 37.43395 C -181.02 37.39 -181.15 37.35 -181.27792 37.30438 C -181.41 37.26 -181.54 37.22 -181.6636 37.1714 C -181.79 37.13 -181.92 37.08 -182.0485 37.03523 C -182.18 36.99 -182.3 36.94 -182.43263 36.89608 C -182.56 36.85 -182.69 36.8 -182.81605 36.75414 C -182.94 36.71 -183.07 36.66 -183.19877 36.6096 C -183.33 36.56 -183.45 36.51 -183.58085 36.46262 C -183.71 36.41 -183.84 36.36 -183.96231 36.31337 C -184.09 36.26 -184.22 36.21 -184.34318 36.16198 C -184.47 36.11 -184.6 36.06 -184.72351 36.0086 C -184.85 35.96 -184.98 35.91 -185.10332 35.85335" />
    <path d="M -189.79885 33.76653 C -189.83 33.76 -189.86 33.76 -189.89475 33.75633 C -189.93 33.75 -189.96 33.75 -189.98595 33.7471 C -190.02 33.74 -190.04 33.74 -190.07238 33.73886 C -190.1 33.74 -190.13 33.73 -190.15396 33.73162 C -190.18 33.73 -190.21 33.73 -190.23058 33.7254 C -190.26 33.72 -190.28 33.72 -190.30214 33.72024 C -190.33 33.72 -190.35 33.72 -190.36851 33.71615 C -190.39 33.71 -190.41 33.71 -190.42957 33.71319 C -190.45 33.71 -190.47 33.71 -190.48518 33.71138 C -190.5 33.71 -190.52 33.71 -190.53518 33.71077 C -190.55 33.71 -190.57 33.71 -190.57943 33.71141 C -190.59 33.71 -190.61 33.71 -190.61776 33.71335 C -190.63 33.71 -190.64 33.72 -190.65 33.71665 C -190.66 33.72 -190.67 33.72 -190.67595 33.72136 C -190.68 33.72 -190.69 33.73 -190.69543 33.72756 C -190.7 33.73 -190.71 33.73 -190.70824 33.73532 C -190.71 33.74 -190.71 33.74 -190.71296 33.74139 C -190.71 33.74 -190.71 33.75 -190.71455 33.7482 C -190.71 33.75 -190.71 33.76 -190.71001 33.76134 C -190.71 33.77 -190.7 33.77 -190.69618 33.77674 C -190.69 33.78 -190.68 33.79 -190.67275 33.79451 C -190.66 33.8 -190.65 33.81 -190.63939 33.81475 C -190.63 33.82 -190.63 33.82 -190.61889 33.82583 C -190.61 33.83 -190.6 33.83 -190.5958 33.83756 C -190.59 33.84 -190.58 33.85 -190.57008 33.84997 C -190.56 33.85 -190.55 33.86 -190.54171 33.86305 C -190.53 33.87 -190.52 33.87 -190.51064 33.87682 C -190.5 33.88 -190.49 33.89 -190.47685 33.89129 C -190.47 33.9 -190.45 33.9 -190.44031 33.90646 C -190.43 33.91 -190.41 33.92 -190.40101 33.92235 C -190.39 33.93 -190.38 33.93 -190.36659 33.93596 C -190.35 33.94 -190.34 33.95 -190.33029 33.95005 C -190.32 33.95 -190.31 33.96 -190.29209 33.96463 C -190.28 33.97 -190.27 33.97 -190.252 33.9797 C -190.24 33.98 -190.22 33.99 -190.21002 33.99526 C -190.2 34 -190.18 34.01 -190.16616 34.01129 C -190.15 34.02 -190.14 34.02 -190.12044 34.0278 C -190.1 34.03 -190.09 34.04 -190.07285 34.04479 C -190.06 34.05 -190.04 34.06 -190.02343 34.06225 C -190.01 34.07 -189.99 34.07 -189.97218 34.08016 C -189.95 34.09 -189.94 34.09 -189.91913 34.09853 C -189.9 34.1 -189.88 34.11 -189.86431 34.11734 C -189.85 34.12 -189.83 34.13 -189.80775 34.13658 C -189.79 34.14 -189.77 34.15 -189.74948 34.15624 C -189.73 34.16 -189.71 34.17 -189.68955 34.1763 C -189.67 34.18 -189.65 34.19 -189.628 34.19676" />
    <path d="M -172.60678 -0.62221 L -21.64889 15.79174" />
    <path d="M -172.60678 -0.62221 L -172.60678 35.63586" />
    <path d="M -365.49031 -19.81886 L -365.49031 -39.73808" />
    <path d="M -24.94347 -63.26169 L -329.83122 -40.65525" />
    <path d="M -13.48209 -62.01547 L -24.94347 -63.26169" />
    <path d="M -13.48209 -63.50941 L -13.48209 -62.01547 L -2.68703 -62.81589 L -2.68703 -64.30983 L -13.48209 -63.50941 Z" />
    <path d="M -26.21696 -64.8941 L -13.48209 -63.50941" />
    <path d="M -26.21696 -63.16727 L -26.21696 -64.8941" />
    <path d="M -329.1649 -38.60861 L -326.53887 -38.80332" />
    <path d="M -2.68703 -62.81589 L 6.22738 -61.84661 L 6.22738 -63.34055 L 21.64889 -64.48401 L -0.00038 -66.83798 L -26.21696 -64.8941" />
    <path d="M 20.10674 -62.87572 L 6.22738 -61.84661" />
    <path d="M 334.12986 -28.73135 L 20.10674 -62.87572" />
    <path d="M 328.41952 -26.814 L 329.1649 -26.73296" />
    <path d="M 338.00025 -23.79808 L 326.53887 -25.0443 L 326.53887 -26.53824 L 339.27373 -25.15356 L 365.49031 -27.09743 L 343.84104 -29.4514 L 328.41952 -28.30794 L 328.41952 -26.814" />
    <path d="M 26.21696 -0.68036 L 338.00025 -23.79808 L 338.00025 -6.86675" />
    <path d="M 189.628 18.42907 C 189.57 18.35 189.51 18.28 189.44419 18.20531 C 189.38 18.13 189.32 18.06 189.26152 17.97982" />
    <path d="M 189.628 18.42907 C 189.65 18.45 189.67 18.48 189.68428 18.50118 C 189.7 18.53 189.72 18.55 189.73947 18.57286 C 189.76 18.6 189.78 18.62 189.79355 18.64409 C 189.81 18.67 189.83 18.69 189.84648 18.71482 C 189.88 18.76 189.92 18.81 189.94876 18.8547 C 189.98 18.9 190.01 18.95 190.04605 18.99226 C 190.08 19.04 190.11 19.08 190.13805 19.12724 C 190.17 19.17 190.2 19.22 190.22445 19.25937 C 190.25 19.3 190.28 19.35 190.30495 19.38837 C 190.33 19.43 190.36 19.47 190.37922 19.51396 C 190.4 19.55 190.42 19.59 190.44496 19.63217 C 190.47 19.67 190.49 19.71 190.50422 19.74664 C 190.52 19.78 190.54 19.82 190.55673 19.8571 C 190.57 19.89 190.59 19.93 190.60217 19.96329 C 190.61 19.98 190.62 20 190.62303 20.01704 C 190.63 20.03 190.64 20.05 190.64184 20.06951 C 190.65 20.09 190.65 20.1 190.65857 20.12067 C 190.66 20.14 190.67 20.15 190.67318 20.17049 C 190.68 20.19 190.68 20.2 190.68563 20.21893 C 190.69 20.23 190.69 20.25 190.6959 20.26595 C 190.7 20.28 190.7 20.3 190.70395 20.31154 C 190.71 20.33 190.71 20.34 190.70976 20.35566 C 190.71 20.37 190.71 20.38 190.71334 20.39911 C 190.71 20.41 190.71 20.43 190.71455 20.44099 L 190.71455 4.05401" />
    <path d="M 190.71455 20.44099 C 190.71 20.45 190.71 20.46 190.71361 20.47643 C 190.71 20.49 190.71 20.5 190.71082 20.51062 C 190.71 20.52 190.71 20.53 190.70614 20.54353 C 190.7 20.55 190.7 20.56 190.69957 20.57516 C 190.7 20.59 190.69 20.6 190.6911 20.60548 C 190.69 20.62 190.68 20.63 190.68074 20.63449 C 190.68 20.64 190.67 20.65 190.66847 20.66218 C 190.66 20.67 190.66 20.68 190.65429 20.68854 C 190.65 20.7 190.64 20.71 190.63012 20.72467 C 190.62 20.74 190.61 20.75 190.60188 20.75792 C 190.59 20.77 190.58 20.78 190.56958 20.78826 C 190.56 20.8 190.55 20.81 190.53324 20.81569 C 190.52 20.82 190.51 20.83 190.4929 20.84019 C 190.48 20.85 190.46 20.86 190.44859 20.86175 C 190.43 20.87 190.42 20.87 190.40035 20.88039 C 190.38 20.89 190.37 20.89 190.34823 20.89609 C 190.33 20.9 190.31 20.91 190.29227 20.90887 C 190.27 20.91 190.25 20.92 190.23255 20.91872 C 190.21 20.92 190.19 20.92 190.16911 20.92565 C 190.15 20.93 190.12 20.93 190.10204 20.92967 C 190.08 20.93 190.06 20.93 190.03139 20.93079 C 190.01 20.93 189.98 20.93 189.95726 20.92901 C 189.93 20.93 189.91 20.93 189.87971 20.92435 C 189.85 20.92 189.83 20.92 189.79885 20.91682" />
    <path d="M 172.60678 19.04749 L 189.79885 20.91682" />
    <path d="M 172.60678 19.04749 C 172.58 19.04 172.55 19.04 172.52236 19.03704 C 172.49 19.03 172.46 19.03 172.43479 19.02372 C 172.41 19.02 172.37 19.01 172.34417 19.00754 C 172.31 19 172.28 19 172.2506 18.98851 C 172.22 18.98 172.19 18.97 172.15418 18.96664 C 172.12 18.96 172.09 18.95 172.05503 18.94194 C 172.02 18.93 171.99 18.92 171.95326 18.91442 C 171.92 18.9 171.88 18.89 171.84898 18.88411 C 171.81 18.87 171.78 18.86 171.74234 18.85101 C 171.71 18.84 171.67 18.83 171.63345 18.81514 C 171.6 18.8 171.56 18.79 171.52245 18.77653 C 171.49 18.76 171.45 18.75 171.40947 18.73518 C 171.37 18.72 171.33 18.71 171.29467 18.69113 C 171.26 18.68 171.22 18.66 171.17818 18.64441 C 171.14 18.63 171.1 18.61 171.06016 18.59503 C 171.02 18.58 170.98 18.56 170.94077 18.54305 C 170.89 18.52 170.84 18.5 170.79482 18.47678 C 170.75 18.45 170.7 18.43 170.64738 18.40682 C 170.6 18.38 170.55 18.36 170.49875 18.33328 C 170.45 18.31 170.4 18.28 170.34923 18.25625 C 170.3 18.23 170.25 18.2 170.19912 18.17584 C 170.15 18.15 170.1 18.12 170.04869 18.09217 C 170 18.06 169.95 18.03 169.89824 18.00536 C 169.85 17.98 169.8 17.95 169.74805 17.91554 C 169.7 17.88 169.65 17.85 169.59501 17.82074 C 169.54 17.79 169.49 17.76 169.4428 17.72309 C 169.39 17.69 169.34 17.66 169.29167 17.62277 C 169.24 17.59 169.19 17.55 169.14189 17.51993 C 168.94 17.38 168.75 17.24 168.56045 17.08673 C 168.04 16.68 167.57 16.23 167.17419 15.78489 C 167.11 15.71 167.04 15.63 166.9755 15.55662" />
    <path d="M 189.628 4.13457 L 189.628 18.42907" />
    <path d="M 355.43217 30.99957 C 355.33 30.85 355.23 30.71 355.12297 30.55888 C 355.02 30.41 354.92 30.27 354.8119 30.12049 C 354.71 29.97 354.6 29.83 354.49884 29.68453 C 354.45 29.61 354.39 29.54 354.34151 29.46751 C 354.29 29.4 354.24 29.32 354.18364 29.25118 C 354.13 29.18 354.08 29.11 354.02519 29.03555 C 353.97 28.96 353.92 28.89 353.86616 28.82064 C 353.81 28.75 353.76 28.68 353.70652 28.60649 C 353.65 28.54 353.6 28.46 353.54626 28.39312 C 353.49 28.32 353.44 28.25 353.38534 28.18057 C 353.33 28.11 353.28 28.04 353.22376 27.96886 C 353.17 27.9 353.12 27.83 353.0615 27.75804 C 353.01 27.69 352.95 27.62 352.89852 27.54813 C 352.84 27.48 352.79 27.41 352.73482 27.33917 C 352.68 27.27 352.63 27.2 352.57036 27.1312 C 352.52 27.06 352.46 26.99 352.40513 26.92426 C 352.35 26.86 352.29 26.79 352.2391 26.7184 C 352.18 26.65 352.13 26.58 352.07224 26.51365 C 352.02 26.45 351.96 26.38 351.90454 26.31005 C 351.85 26.24 351.79 26.17 351.73597 26.10767 C 351.68 26.04 351.62 25.97 351.5665 25.90654 C 351.51 25.84 351.45 25.77 351.3961 25.70672 C 351.34 25.64 351.28 25.57 351.22476 25.50825 C 351.17 25.44 351.11 25.38 351.05242 25.3112 C 350.99 25.25 350.94 25.18 350.87908 25.11563 C 350.82 25.05 350.76 24.99 350.7047 24.92158 C 350.65 24.86 350.59 24.79 350.52924 24.72912 C 350.47 24.67 350.41 24.6 350.35268 24.53832 C 350.29 24.47 350.23 24.41 350.17499 24.34923 C 347.72 21.72 344.78 19.59 341.47506 19.26861 C 341.42 19.26 341.36 19.26 341.3072 19.25174 C 341.25 19.25 341.2 19.24 341.13906 19.23757 C 341.08 19.23 341.03 19.23 340.97069 19.2261 C 340.91 19.22 340.86 19.22 340.8021 19.2173 C 340.75 19.21 340.69 19.21 340.63333 19.21115 C 340.58 19.21 340.52 19.21 340.46439 19.20761 C 340.41 19.21 340.35 19.21 340.29531 19.20666 C 340.24 19.21 340.18 19.21 340.12612 19.20827 C 340.07 19.21 340.01 19.21 339.95684 19.21241 C 339.9 19.21 339.84 19.22 339.7875 19.21904 C 339.73 19.22 339.67 19.22 339.61811 19.22812 C 339.56 19.23 339.51 19.24 339.44871 19.23962 C 339.34 19.25 339.22 19.26 339.10993 19.26971 C 339 19.28 338.88 19.29 338.77132 19.30899 C 338.71 19.32 338.64 19.33 338.57263 19.33492" />
    <path d="M 338.26402 21.03406 C 338.27 21.03 338.27 21.02 338.27219 21.00744 C 338.27 21 338.28 20.99 338.27833 20.97979 C 338.28 20.97 338.28 20.96 338.28237 20.95112 C 338.28 20.94 338.28 20.93 338.28428 20.92144 C 338.28 20.91 338.28 20.89 338.28341 20.88035 C 338.28 20.87 338.28 20.85 338.27853 20.83748 C 338.28 20.82 338.27 20.81 338.2695 20.79285 C 338.27 20.78 338.26 20.76 338.2562 20.74649 C 338.25 20.73 338.25 20.71 338.23848 20.69841 C 338.23 20.68 338.22 20.67 338.21619 20.64867 C 338.21 20.63 338.2 20.61 338.18919 20.59729 C 338.18 20.58 338.17 20.56 338.15734 20.54434 C 338.15 20.53 338.14 20.52 338.13084 20.50459 C 338.12 20.49 338.11 20.48 338.10161 20.46405 C 338.09 20.45 338.08 20.44 338.06958 20.42275 C 338.06 20.41 338.05 20.39 338.03472 20.38072 C 338.02 20.37 338.01 20.35 337.99697 20.33802 C 337.98 20.32 337.97 20.31 337.95628 20.29466 C 337.94 20.28 337.93 20.27 337.91262 20.25071 C 337.9 20.24 337.88 20.22 337.86597 20.20621 C 337.85 20.19 337.84 20.18 337.82838 20.17196 C 337.82 20.16 337.8 20.15 337.78902 20.13744 C 337.78 20.13 337.76 20.11 337.74788 20.10269 C 337.73 20.09 337.72 20.08 337.70498 20.06773 C 337.69 20.06 337.68 20.04 337.6603 20.03259 C 337.65 20.02 337.63 20.01 337.61386 19.99731 C 337.6 19.99 337.58 19.97 337.56567 19.96193 C 337.55 19.95 337.53 19.94 337.51575 19.92646 C 337.38 19.83 337.23 19.74 337.05722 19.64432 C 337 19.62 336.95 19.59 336.89352 19.55804" />
    <path d="M 359.59037 36.50002 C 359.5 36.39 359.41 36.28 359.31721 36.17365 C 359.23 36.06 359.14 35.95 359.04631 35.84418 C 358.96 35.73 358.87 35.62 358.77754 35.51182 C 358.69 35.4 358.6 35.29 358.51078 35.17675 C 358.42 35.06 358.33 34.95 358.24593 34.83917 C 358.16 34.73 358.07 34.61 357.98288 34.49922 C 357.9 34.39 357.81 34.27 357.72154 34.15707 C 357.63 34.04 357.55 33.93 357.46181 33.81287 C 357.38 33.7 357.29 33.58 357.2036 33.46674 C 357.12 33.35 357.03 33.24 356.94683 33.11882 C 356.86 33 356.78 32.89 356.69142 32.76922 C 356.61 32.65 356.52 32.54 356.43729 32.41805 C 356.35 32.3 356.27 32.18 356.18437 32.06541 C 356.1 31.95 356.02 31.83 355.93259 31.71139 C 355.85 31.59 355.77 31.47 355.68188 31.35609 C 355.6 31.24 355.52 31.12 355.43217 30.99957 L 333.14616 28.57636" />
    <path d="M 337.50304 34.30509 C 337.44 34.23 337.37 34.15 337.30435 34.07682" />
    <path d="M 337.50304 34.30509 C 337.53 34.34 337.56 34.37 337.59244 34.40356 C 337.62 34.44 337.65 34.47 337.68392 34.50182 C 337.71 34.53 337.75 34.57 337.77747 34.59981 C 337.81 34.63 337.84 34.66 337.87305 34.69748 C 337.91 34.73 337.94 34.76 337.97064 34.79476 C 338 34.83 338.04 34.86 338.07021 34.89157 C 338.1 34.92 338.14 34.96 338.17172 34.98787 C 338.21 35.02 338.24 35.05 338.27513 35.08357 C 338.31 35.11 338.34 35.14 338.36552 35.16533 C 338.4 35.19 338.43 35.22 338.45726 35.24654 C 338.49 35.27 338.52 35.3 338.5503 35.32718 C 338.58 35.35 338.61 35.38 338.64463 35.40718 C 338.68 35.43 338.71 35.46 338.74018 35.4865 C 338.77 35.51 338.8 35.54 338.83692 35.56509 C 338.87 35.59 338.9 35.62 338.9348 35.64288 C 338.97 35.67 339 35.69 339.03377 35.71984 C 339.07 35.75 339.1 35.77 339.13377 35.7959 C 339.17 35.82 339.2 35.85 339.23475 35.87101 C 339.27 35.9 339.3 35.92 339.33665 35.94512 C 339.37 35.97 339.41 35.99 339.43939 36.01817 C 339.47 36.04 339.51 36.07 339.5429 36.09011 C 339.58 36.11 339.61 36.14 339.64712 36.16087 C 339.68 36.18 339.72 36.21 339.75197 36.23042 C 339.79 36.25 339.82 36.28 339.85736 36.29869 C 339.89 36.32 339.92 36.34 339.94479 36.3541 C 339.97 36.37 340 36.39 340.03249 36.40858 C 340.09 36.44 340.15 36.48 340.20846 36.51459 C 340.33 36.58 340.44 36.65 340.56115 36.71408 C 340.8 36.84 341.03 36.96 341.25658 37.05745 C 341.9 37.35 342.49 37.52 342.93563 37.56769 L 360.1277 39.43702" />
    <path d="M 359.95685 36.94927 C 359.98 36.97 359.99 37 360.01306 37.0213 C 360.03 37.05 360.05 37.07 360.06819 37.09289 C 360.09 37.12 360.1 37.14 360.1222 37.16403 C 360.14 37.19 360.16 37.21 360.17507 37.23468 C 360.21 37.28 360.24 37.33 360.27725 37.3744 C 360.31 37.42 360.34 37.47 360.37444 37.5118 C 360.41 37.56 360.44 37.6 360.46635 37.64663 C 360.5 37.69 360.52 37.74 360.55269 37.77862 C 360.58 37.82 360.61 37.87 360.63314 37.90749 C 360.66 37.95 360.68 37.99 360.70738 38.03296 C 360.73 38.07 360.75 38.11 360.77317 38.15119 C 360.79 38.19 360.81 38.23 360.83249 38.26568 C 360.85 38.3 360.87 38.34 360.88506 38.37616 C 360.9 38.41 360.92 38.45 360.93057 38.48237 C 360.94 38.5 360.94 38.52 360.95146 38.53613 C 360.96 38.55 360.96 38.57 360.97031 38.58861 C 360.98 38.61 360.98 38.62 360.98708 38.63978 C 360.99 38.66 361 38.67 361.00173 38.68961 C 361.01 38.71 361.01 38.72 361.01423 38.73806 C 361.02 38.75 361.02 38.77 361.02454 38.7851 C 361.03 38.8 361.03 38.82 361.03264 38.8307 C 361.03 38.85 361.04 38.86 361.0385 38.87484 C 361.04 38.89 361.04 38.9 361.04217 38.91882 C 361.04 38.93 361.04 38.95 361.04339 38.96119 L 361.04339 -6.84849" />
    <path d="M 361.04339 38.96119 C 361.04 38.97 361.04 38.98 361.04247 38.99648 C 361.04 39.01 361.04 39.02 361.0397 39.03053 C 361.04 39.04 361.04 39.05 361.03506 39.06332 C 361.03 39.07 361.03 39.08 361.02855 39.09482 C 361.03 39.11 361.02 39.12 361.02016 39.12504 C 361.02 39.13 361.01 39.14 361.00988 39.15396 C 361.01 39.16 361 39.17 360.99772 39.18156 C 360.99 39.19 360.99 39.2 360.98366 39.20785 C 360.98 39.22 360.97 39.23 360.95955 39.24411 C 360.95 39.26 360.94 39.27 360.93135 39.27747 C 360.92 39.29 360.91 39.3 360.89909 39.30791 C 360.89 39.32 360.88 39.33 360.86277 39.33543 C 360.85 39.34 360.84 39.35 360.82244 39.36001 C 360.81 39.37 360.79 39.37 360.77813 39.38166 C 360.76 39.39 360.75 39.39 360.72987 39.40036 C 360.71 39.41 360.7 39.41 360.67772 39.41613 C 360.66 39.42 360.64 39.43 360.62172 39.42895 C 360.6 39.43 360.58 39.44 360.56194 39.43885 C 360.54 39.44 360.52 39.44 360.49844 39.44581 C 360.48 39.45 360.45 39.45 360.43129 39.44986 C 360.41 39.45 360.38 39.45 360.36056 39.45099 C 360.34 39.45 360.31 39.45 360.28633 39.44922 C 360.26 39.45 360.24 39.45 360.20868 39.44456 C 360.18 39.44 360.16 39.44 360.1277 39.43702" />
    <path d="M 359.95685 36.94927 C 359.9 36.87 359.83 36.8 359.77304 36.72551 C 359.71 36.65 359.65 36.58 359.59037 36.50002" />
    <path d="M 26.21696 16.25097 L 338.00025 -6.86675" />
    <path d="M 338.57263 -5.31057 L 338.57263 19.33492" />
    <path d="M 337.91937 -5.3816 L 337.91937 -6.86075" />
    <path d="M 24.53888 58.37254 C 24.48 58.41 24.42 58.44 24.35608 58.47296 C 24.29 58.51 24.23 58.54 24.1724 58.56979 C 24.09 58.61 24.01 58.65 23.92371 58.68671 C 23.84 58.72 23.76 58.76 23.67362 58.7976 C 23.59 58.83 23.51 58.87 23.4222 58.90237 C 23.34 58.94 23.25 58.97 23.16955 59.00097 C 23.12 59.02 23.07 59.04 23.01476 59.0581 C 22.96 59.08 22.91 59.1 22.85957 59.11291 C 22.81 59.13 22.76 59.15 22.70399 59.16539 C 22.65 59.18 22.6 59.2 22.54805 59.21554 C 22.5 59.23 22.44 59.25 22.39177 59.26336 C 22.34 59.28 22.29 59.29 22.23519 59.30885 C 22.18 59.32 22.13 59.34 22.07831 59.35203 C 22.03 59.37 21.97 59.38 21.92117 59.39288 C 21.87 59.41 21.82 59.42 21.76378 59.43144 C 21.71 59.44 21.66 59.46 21.60617 59.4677 C 21.55 59.48 21.5 59.49 21.44835 59.50169 C 21.4 59.51 21.34 59.52 21.29036 59.53343 C 21.24 59.54 21.18 59.55 21.1322 59.56292 C 21.08 59.57 21.03 59.58 20.9739 59.5902 C 20.92 59.6 20.87 59.61 20.81548 59.61529 C 20.76 59.62 20.71 59.63 20.65695 59.6382 C 20.6 59.65 20.55 59.65 20.49834 59.65898 C 20.45 59.67 20.39 59.67 20.33965 59.67763 C 20.23 59.69 20.13 59.7 20.02216 59.70871 C 19.92 59.72 19.81 59.73 19.70459 59.73168 C 19.6 59.74 19.49 59.74 19.38708 59.7468 C 19.28 59.75 19.18 59.75 19.06974 59.75434 C 18.96 59.76 18.86 59.76 18.75268 59.75459 C 18.65 59.75 18.54 59.75 18.436 59.74781 C 18.33 59.74 18.23 59.74 18.1198 59.73432 C 17.82 59.72 17.51 59.69 17.21003 59.66024 L 1.7595 57.98027" />
    <path d="M 17.21003 59.66024 C 17.14 59.65 17.06 59.64 16.98623 59.63447 C 16.91 59.63 16.84 59.62 16.76275 59.60594 C 16.69 59.6 16.61 59.59 16.53959 59.57474 C 16.47 59.56 16.39 59.55 16.31677 59.54096 C 16.24 59.53 16.17 59.52 16.09429 59.5047 C 16.02 59.49 15.95 59.48 15.87215 59.46603 C 15.8 59.45 15.72 59.44 15.65035 59.42505 C 15.58 59.41 15.5 59.4 15.4289 59.38184 C 15.36 59.37 15.28 59.35 15.20781 59.33648 C 15.13 59.32 15.06 59.31 14.98706 59.28905 C 14.91 59.27 14.84 59.26 14.76666 59.23962 C 14.69 59.22 14.62 59.21 14.5466 59.18827 C 14.47 59.17 14.4 59.15 14.32689 59.13506 C 14.25 59.12 14.18 59.1 14.10751 59.08007 C 14.03 59.06 13.96 59.04 13.88846 59.02336 C 13.82 59 13.74 58.98 13.66973 58.96499 C 13.6 58.95 13.54 58.93 13.474 58.91133 C 13.41 58.89 13.34 58.87 13.27852 58.85643 C 13.15 58.82 13.02 58.78 12.88833 58.74308 C 12.76 58.7 12.63 58.67 12.49912 58.62526 C 12.37 58.59 12.24 58.54 12.11084 58.50326 C 11.98 58.46 11.85 58.42 11.72346 58.37735 C 11.59 58.33 11.47 58.29 11.33695 58.24779 C 11.21 58.2 11.08 58.16 10.95127 58.11481 C 10.82 58.07 10.69 58.02 10.56637 57.97864 C 10.44 57.93 10.31 57.89 10.18224 57.83949 C 10.05 57.79 9.93 57.75 9.79882 57.69755 C 9.67 57.65 9.54 57.6 9.41609 57.55301 C 9.29 57.5 9.16 57.46 9.03402 57.40603 C 8.53 57.21 8.02 57 7.51154 56.79676 L -1.25893 55.84313 C -1.23 55.85 -1.2 55.86 -1.16848 55.87154 C -1.14 55.88 -1.11 55.89 -1.07787 55.90029 C -1.05 55.91 -1.02 55.92 -0.98715 55.92935 C -0.96 55.94 -0.93 55.95 -0.89639 55.95871 C -0.87 55.97 -0.84 55.98 -0.80566 55.98834 C -0.78 56 -0.75 56.01 -0.71504 56.01823 C -0.68 56.03 -0.65 56.04 -0.62461 56.04835 C -0.59 56.06 -0.56 56.07 -0.53444 56.07868 C -0.49 56.09 -0.44 56.11 -0.39085 56.12762 C -0.34 56.14 -0.3 56.16 -0.24853 56.17691 C -0.2 56.19 -0.15 56.21 -0.10793 56.22642 C -0.06 56.24 -0.02 56.26 0.03052 56.276 C 0.08 56.29 0.12 56.31 0.16641 56.3255 C 0.21 56.34 0.26 56.36 0.29928 56.37478 C 0.34 56.39 0.39 56.41 0.42871 56.42367 C 0.47 56.44 0.51 56.46 0.55426 56.472" />
    <path d="M 1.96326 57.24205 C 1.96 57.24 1.97 57.23 1.96491 57.22437 C 1.96 57.22 1.96 57.21 1.96164 57.20827 C 1.96 57.2 1.96 57.2 1.95402 57.19086 C 1.95 57.18 1.95 57.18 1.94193 57.17212 C 1.94 57.17 1.93 57.16 1.92523 57.152 C 1.92 57.15 1.91 57.14 1.90379 57.13048 C 1.9 57.12 1.89 57.12 1.87747 57.10751 C 1.87 57.1 1.86 57.09 1.84615 57.08307 C 1.83 57.07 1.82 57.07 1.80967 57.05713 C 1.8 57.05 1.79 57.04 1.77924 57.03692 C 1.77 57.03 1.76 57.02 1.74585 57.01585 C 1.73 57.01 1.72 57 1.70946 56.99393 C 1.7 56.99 1.68 56.98 1.67003 56.97114 C 1.66 56.96 1.64 56.96 1.62751 56.94749 C 1.61 56.94 1.6 56.93 1.58186 56.92296 C 1.57 56.91 1.55 56.91 1.53306 56.89757 C 1.52 56.89 1.5 56.88 1.48108 56.87131 C 1.47 56.86 1.45 56.86 1.43764 56.8499 C 1.42 56.84 1.41 56.84 1.39217 56.82795 C 1.38 56.82 1.36 56.81 1.34469 56.80547 C 1.33 56.8 1.31 56.79 1.29521 56.78248 C 1.28 56.77 1.26 56.77 1.24373 56.75898 C 1.23 56.75 1.21 56.74 1.19028 56.73499 C 1.17 56.73 1.15 56.72 1.13488 56.71052 C 1.12 56.7 1.1 56.69 1.07754 56.68559 C 1.06 56.68 1.04 56.67 1.0183 56.66021 C 1 56.65 0.98 56.64 0.95721 56.63441 C 0.94 56.63 0.92 56.62 0.89429 56.6082 C 0.87 56.6 0.85 56.59 0.82959 56.58162 C 0.74 56.55 0.65 56.51 0.55426 56.472" />
    <path d="M 24.53888 58.37254 C 24.56 58.36 24.57 58.35 24.59248 58.33985 C 24.61 58.33 24.63 58.32 24.6447 58.30688 C 24.66 58.3 24.68 58.28 24.69553 58.27367 C 24.71 58.26 24.73 58.25 24.74496 58.24024 C 24.76 58.23 24.78 58.22 24.79298 58.20661 C 24.81 58.2 24.82 58.18 24.83958 58.17281 C 24.85 58.16 24.87 58.15 24.88478 58.13886 C 24.9 58.13 24.91 58.12 24.92855 58.10478 C 24.94 58.09 24.96 58.08 24.97091 58.07061 C 24.98 58.06 25 58.05 25.01185 58.03635 C 25.04 58.01 25.06 57.99 25.08951 57.96769 C 25.11 57.94 25.14 57.92 25.16157 57.89896 C 25.18 57.88 25.21 57.85 25.22809 57.83033 C 25.24 57.81 25.26 57.8 25.27119 57.78266 C 25.29 57.77 25.3 57.75 25.31166 57.73514 C 25.32 57.72 25.34 57.7 25.34953 57.68785 C 25.36 57.67 25.37 57.66 25.38482 57.6408 C 25.4 57.63 25.41 57.61 25.41757 57.59406 C 25.43 57.58 25.44 57.56 25.4478 57.54766 C 25.46 57.53 25.47 57.52 25.47555 57.50163 C 25.48 57.49 25.49 57.47 25.50084 57.45602 C 25.51 57.43 25.53 57.41 25.53647 57.38358 C 25.55 57.36 25.56 57.34 25.56593 57.31246 C 25.57 57.29 25.58 57.27 25.58936 57.24279 C 25.6 57.22 25.6 57.2 25.60686 57.1747 C 25.61 57.15 25.62 57.12 25.62082 57.08981 C 25.62 57.06 25.63 57.03 25.62542 57.00798 L 25.62542 18.02167" />
    <path d="M 24.53888 18.10223 L 24.53888 58.37254" />
    <path d="M -6.2453 55.03464 C -6.24 55.03 -6.24 55.02 -6.2391 55.01914 C -6.24 55.01 -6.23 55.01 -6.22943 55.0048 C -6.23 55 -6.22 55 -6.21639 54.99161 C -6.21 54.99 -6.21 54.98 -6.20006 54.97953 C -6.19 54.97 -6.18 54.97 -6.17232 54.96467 C -6.16 54.96 -6.15 54.96 -6.13869 54.95184 C -6.13 54.95 -6.11 54.94 -6.09935 54.94098 C -6.09 54.94 -6.07 54.93 -6.0545 54.93204 C -6.04 54.93 -6.03 54.93 -6.01999 54.92692 C -6.01 54.93 -6 54.92 -5.98292 54.92268 C -5.97 54.92 -5.96 54.92 -5.94334 54.91934 C -5.93 54.92 -5.92 54.92 -5.9013 54.91687 C -5.89 54.92 -5.87 54.92 -5.85684 54.91525 C -5.84 54.91 -5.83 54.91 -5.81001 54.91448 C -5.79 54.91 -5.78 54.91 -5.76084 54.91456 C -5.74 54.91 -5.73 54.92 -5.70937 54.91545 C -5.69 54.92 -5.67 54.92 -5.65565 54.91717 C -5.64 54.92 -5.62 54.92 -5.5997 54.9197 C -5.58 54.92 -5.56 54.92 -5.54156 54.92304 C -5.52 54.92 -5.5 54.93 -5.48125 54.92717 C -5.46 54.93 -5.44 54.93 -5.41882 54.93209 C -5.4 54.93 -5.38 54.94 -5.35428 54.9378 C -5.33 54.94 -5.31 54.94 -5.28766 54.94429 C -5.27 54.95 -5.24 54.95 -5.21899 54.95156 C -5.17 54.96 -5.13 54.96 -5.08047 54.96782 C -5.03 54.97 -4.98 54.98 -4.93453 54.98696 C -4.83 55 -4.73 55.02 -4.62094 55.03392 C -4.4 55.07 -4.17 55.11 -3.91042 55.163 C -3.72 55.2 -3.51 55.24 -3.30193 55.29326 C -2.69 55.43 -1.99 55.61 -1.25893 55.84313" />
    <path d="M -19.47 52.28673 C -19.5 52.28 -19.53 52.28 -19.5659 52.27653 C -19.6 52.27 -19.63 52.27 -19.6571 52.26731 C -19.69 52.26 -19.72 52.26 -19.74353 52.25906 C -19.77 52.26 -19.8 52.25 -19.82511 52.25182 C -19.85 52.25 -19.88 52.25 -19.90173 52.24561 C -19.93 52.24 -19.95 52.24 -19.97329 52.24044 C -20 52.24 -20.02 52.24 -20.03966 52.23636 C -20.06 52.24 -20.08 52.23 -20.10072 52.23339 C -20.12 52.23 -20.14 52.23 -20.15633 52.23158 C -20.17 52.23 -20.19 52.23 -20.20634 52.23097 C -20.22 52.23 -20.24 52.23 -20.25058 52.23161 C -20.26 52.23 -20.28 52.23 -20.28891 52.23355 C -20.3 52.23 -20.31 52.24 -20.32115 52.23685 C -20.33 52.24 -20.34 52.24 -20.3471 52.24156 C -20.35 52.24 -20.36 52.25 -20.36658 52.24776 C -20.37 52.25 -20.38 52.25 -20.37939 52.25552 C -20.38 52.26 -20.38 52.26 -20.38411 52.26159 C -20.39 52.26 -20.39 52.27 -20.3857 52.2684 L -20.3857 17.70506" />
    <path d="M -20.3857 52.2684 C -20.39 52.27 -20.38 52.28 -20.38116 52.28154 C -20.38 52.29 -20.37 52.29 -20.36733 52.29694 C -20.36 52.3 -20.35 52.31 -20.3439 52.31471 C -20.33 52.32 -20.32 52.33 -20.31054 52.33495 C -20.3 52.34 -20.3 52.34 -20.29004 52.34603 C -20.28 52.35 -20.28 52.35 -20.26695 52.35777 C -20.26 52.36 -20.25 52.37 -20.24123 52.37017 C -20.23 52.37 -20.22 52.38 -20.21286 52.38325 C -20.2 52.39 -20.19 52.39 -20.18179 52.39702 C -20.17 52.4 -20.16 52.41 -20.148 52.41149 C -20.14 52.42 -20.12 52.42 -20.11146 52.42666 C -20.1 52.43 -20.09 52.44 -20.07216 52.44255 C -20.06 52.45 -20.05 52.45 -20.03774 52.45616 C -20.03 52.46 -20.01 52.47 -20.00144 52.47025 C -19.99 52.48 -19.98 52.48 -19.96324 52.48484 C -19.95 52.49 -19.94 52.49 -19.92315 52.4999 C -19.91 52.51 -19.9 52.51 -19.88117 52.51546 C -19.87 52.52 -19.85 52.53 -19.83732 52.53149 C -19.82 52.54 -19.81 52.54 -19.79159 52.54801 C -19.78 52.55 -19.76 52.56 -19.744 52.56499 C -19.73 52.57 -19.71 52.58 -19.69458 52.58245 C -19.68 52.59 -19.66 52.59 -19.64333 52.60036 C -19.63 52.61 -19.61 52.61 -19.59028 52.61873 C -19.57 52.62 -19.55 52.63 -19.53546 52.63754 C -19.52 52.64 -19.5 52.65 -19.4789 52.65678 C -19.46 52.66 -19.44 52.67 -19.42063 52.67644 C -19.4 52.68 -19.38 52.69 -19.3607 52.69651 C -19.34 52.7 -19.32 52.71 -19.29915 52.71696" />
    <path d="M -19.47 52.28673 L -2.27793 54.15606 C -2.25 54.16 -2.21 54.16 -2.17812 54.16714 C -2.14 54.17 -2.11 54.17 -2.07392 54.17915 C -2.04 54.18 -2 54.19 -1.96538 54.19209 C -1.93 54.2 -1.89 54.2 -1.85256 54.20596 C -1.81 54.21 -1.78 54.22 -1.73552 54.22077 C -1.7 54.23 -1.66 54.23 -1.61432 54.23653 C -1.57 54.24 -1.53 54.25 -1.48901 54.25324 C -1.45 54.26 -1.4 54.26 -1.35966 54.27092 C -1.32 54.28 -1.27 54.28 -1.22634 54.28959 C -1.18 54.3 -1.14 54.3 -1.0891 54.30926 C -1.04 54.32 -1 54.32 -0.94804 54.32997 C -0.9 54.34 -0.85 54.34 -0.80321 54.35172 C -0.75 54.36 -0.7 54.37 -0.65469 54.37456 C -0.6 54.38 -0.55 54.39 -0.50258 54.39851 C -0.45 54.41 -0.4 54.42 -0.34695 54.42361 C -0.29 54.43 -0.24 54.44 -0.1879 54.44989 C -0.15 54.46 -0.11 54.46 -0.0656 54.47054 C -0.02 54.48 0.02 54.48 0.0585 54.4919 C 0.1 54.5 0.14 54.51 0.18435 54.51398 C 0.23 54.52 0.27 54.53 0.31186 54.53679 C 0.35 54.54 0.4 54.55 0.44096 54.56035 C 0.48 54.57 0.53 54.58 0.57154 54.58467 C 0.62 54.59 0.66 54.6 0.7035 54.60976 C 0.75 54.62 0.79 54.63 0.83674 54.63563 C 0.87 54.64 0.91 54.65 0.94799 54.65765 C 0.99 54.67 1.02 54.67 1.05994 54.68022 C 1.1 54.69 1.13 54.7 1.17251 54.70334 C 1.21 54.71 1.25 54.72 1.28561 54.72699 C 1.44 54.76 1.59 54.79 1.74104 54.82695 C 2.23 54.94 2.72 55.07 3.15466 55.1974" />
    <path d="M 3.35335 55.25926 C 3.29 55.24 3.22 55.22 3.15466 55.1974" />
    <path d="M 7.51154 56.79676 C 7.43 56.76 7.34 56.73 7.25412 56.69141 C 7.17 56.66 7.08 56.62 6.99641 56.58708 C 6.91 56.55 6.82 56.52 6.73841 56.48379 C 6.65 56.45 6.57 56.42 6.48011 56.3816 C 6.39 56.35 6.31 56.31 6.22149 56.28055 C 6.14 56.25 6.05 56.21 5.96256 56.18068 C 5.88 56.15 5.79 56.11 5.70329 56.08205 C 5.62 56.05 5.53 56.02 5.44368 55.98471 C 5.36 55.95 5.27 55.92 5.18372 55.8887 C 5.1 55.86 5.01 55.83 4.92341 55.7941 C 4.84 55.76 4.75 55.73 4.66272 55.70095 C 4.58 55.67 4.49 55.64 4.40164 55.60931 C 4.31 55.58 4.23 55.55 4.14018 55.51926 C 4.05 55.49 3.97 55.46 3.87832 55.43085 C 3.79 55.4 3.7 55.37 3.61605 55.34416 C 3.53 55.32 3.44 55.29 3.35335 55.25926" />
    <path d="M -171.58778 37.32292 C -171.56 37.33 -171.53 37.34 -171.49733 37.35134 C -171.47 37.36 -171.44 37.37 -171.40672 37.38009 C -171.38 37.39 -171.35 37.4 -171.316 37.40915 C -171.29 37.42 -171.26 37.43 -171.22524 37.4385 C -171.19 37.45 -171.16 37.46 -171.13451 37.46814 C -171.1 37.48 -171.07 37.49 -171.04389 37.49803 C -171.01 37.51 -170.98 37.52 -170.95346 37.52815 C -170.92 37.54 -170.89 37.55 -170.86329 37.55848 C -170.82 37.57 -170.77 37.59 -170.7197 37.60742 C -170.67 37.62 -170.62 37.64 -170.57738 37.65671 C -170.53 37.67 -170.48 37.69 -170.43678 37.70621 C -170.39 37.72 -170.34 37.74 -170.29833 37.7558 C -170.25 37.77 -170.21 37.79 -170.16244 37.8053 C -170.12 37.82 -170.07 37.84 -170.02957 37.85458 C -169.99 37.87 -169.94 37.89 -169.90014 37.90347 C -169.86 37.92 -169.82 37.94 -169.77459 37.9518" />
    <path d="M -168.36559 38.72185 C -168.36 38.72 -168.36 38.71 -168.36394 38.70417 C -168.36 38.7 -168.37 38.69 -168.36721 38.68807 C -168.37 38.68 -168.37 38.68 -168.37483 38.67066 C -168.38 38.66 -168.38 38.66 -168.38692 38.65192 C -168.39 38.65 -168.4 38.64 -168.40362 38.6318 C -168.41 38.62 -168.42 38.62 -168.42506 38.61027 C -168.43 38.6 -168.44 38.6 -168.45138 38.58731 C -168.46 38.58 -168.47 38.57 -168.4827 38.56287 C -168.49 38.55 -168.51 38.55 -168.51918 38.53693 C -168.53 38.53 -168.54 38.52 -168.54961 38.51672 C -168.56 38.51 -168.57 38.5 -168.583 38.49565 C -168.59 38.49 -168.61 38.48 -168.61939 38.47373 C -168.63 38.47 -168.65 38.46 -168.65882 38.45094 C -168.67 38.44 -168.69 38.44 -168.70134 38.42728 C -168.72 38.42 -168.73 38.41 -168.74699 38.40276 C -168.76 38.39 -168.78 38.39 -168.79579 38.37737 C -168.81 38.37 -168.83 38.36 -168.84777 38.35111 C -168.86 38.34 -168.88 38.34 -168.89121 38.3297 C -168.91 38.32 -168.92 38.32 -168.93668 38.30775 C -168.95 38.3 -168.97 38.29 -168.98416 38.28527 C -169 38.28 -169.02 38.27 -169.03364 38.26228 C -169.05 38.25 -169.07 38.25 -169.08512 38.23878 C -169.1 38.23 -169.12 38.22 -169.13857 38.21479 C -169.16 38.21 -169.18 38.2 -169.19397 38.19032 C -169.21 38.18 -169.23 38.17 -169.25131 38.16538 C -169.27 38.16 -169.29 38.15 -169.31055 38.14001 C -169.33 38.13 -169.35 38.12 -169.37164 38.11421 C -169.39 38.11 -169.41 38.1 -169.43456 38.088 C -169.46 38.08 -169.48 38.07 -169.49926 38.06142 C -169.59 38.03 -169.68 37.99 -169.77459 37.9518" />
    <path d="M -176.57415 36.51444 C -176.57 36.51 -176.57 36.5 -176.56795 36.49894 C -176.57 36.49 -176.56 36.49 -176.55828 36.4846 C -176.55 36.48 -176.55 36.48 -176.54524 36.4714 C -176.54 36.47 -176.53 36.46 -176.52891 36.45933 C -176.52 36.45 -176.51 36.45 -176.50117 36.44447 C -176.49 36.44 -176.48 36.44 -176.46754 36.43164 C -176.46 36.43 -176.44 36.42 -176.4282 36.42078 C -176.41 36.42 -176.4 36.41 -176.38335 36.41184 C -176.37 36.41 -176.36 36.41 -176.34884 36.40671 C -176.34 36.41 -176.32 36.4 -176.31177 36.40248 C -176.3 36.4 -176.29 36.4 -176.27219 36.39914 C -176.26 36.4 -176.24 36.4 -176.23015 36.39666 C -176.22 36.4 -176.2 36.4 -176.18569 36.39505 C -176.17 36.39 -176.15 36.39 -176.13886 36.39428 C -176.12 36.39 -176.11 36.39 -176.08969 36.39435 C -176.07 36.39 -176.06 36.39 -176.03822 36.39525 C -176.02 36.4 -176 36.4 -175.9845 36.39697 C -175.97 36.4 -175.95 36.4 -175.92855 36.3995 C -175.91 36.4 -175.89 36.4 -175.87041 36.40283 C -175.85 36.4 -175.83 36.41 -175.8101 36.40696 C -175.79 36.41 -175.77 36.41 -175.74767 36.41189 C -175.73 36.41 -175.7 36.42 -175.68313 36.4176 C -175.66 36.42 -175.64 36.42 -175.61651 36.42409 C -175.59 36.43 -175.57 36.43 -175.54784 36.43136 C -175.5 36.44 -175.46 36.44 -175.40932 36.44761 C -175.36 36.45 -175.31 36.46 -175.26338 36.46676 C -175.16 36.48 -175.06 36.5 -174.94979 36.51372 C -174.73 36.55 -174.49 36.59 -174.23927 36.6428 C -174.05 36.68 -173.84 36.72 -173.63078 36.77306 C -173.02 36.91 -172.32 37.09 -171.58778 37.32292" />
    <path d="M -167.17419 -0.03152 L -167.17419 36.6772" />
    <path d="M -21.64889 17.56771 L -21.64889 -2.3515 L 0.00038 0.00247 L 26.21696 -1.94141 L 13.48209 -3.3261" />
    <path d="M -6.22738 -3.49496 L -21.64889 -2.3515" />
    <path d="M 6.22738 -63.34055 L -2.68703 -64.30983" />
    <path d="M 21.64889 -62.70804 L 21.64889 -64.48401" />
    <path d="M 337.33393 -27.33866 L 328.41952 -28.30794" />
    <path d="M 326.53887 -26.53824 L 337.33393 -27.33866" />
    <path d="M 337.91937 -5.3816 L 339.27373 -5.23434 L 365.49031 -7.17821 L 365.49031 -27.09743" />
    <path d="M 339.27373 -5.23434 L 339.27373 -25.15356" />
    <path d="M 26.21696 17.97781 L 26.21696 -1.94141" />
    <path d="M 2.68703 -2.52568 L 13.48209 -3.3261" />
    <path d="M -6.22738 -3.49496 L 2.68703 -2.52568" />
    <path d="M 158.83422 7.5942 A 4.25 0.7932 199.37193 0 1 157.5231 6.51505" />
    <path d="M 159.1032 6.39789 A 4.25 0.7932 199.37193 0 1 165.54977 9.29817 A 4.25 0.7932 199.37193 0 1 158.83422 7.5942" />
    <path d="M 359.59037 -6.74075 L 359.59037 36.50002" />
    <path d="M 338.77132 -5.28897 L 338.77132 19.30899" />
    <path d="M 329.16307 26.11441 A 4.25 0.7932 199.37193 0 1 327.85984 24.99893 A 4.25 0.7932 199.37193 0 1 335.87862 27.81837 A 4.25 0.7932 199.37193 0 1 329.16307 26.11441 Z" />
    <path d="M 359.95685 -6.76793 L 359.95685 36.94927" />
    <path d="M 24.1724 18.12941 L 24.1724 58.56979" />
    <path d="M 3.35335 19.67307 L 3.35335 55.25926" />
    <path d="M -0.84258 61.53266 A 4.25 0.56323 195.43056 0 1 0.54806 62.36922 A 4.25 0.56323 195.43056 1 1 -7.64555 60.10762 A 4.25 0.56323 195.43056 0 1 -0.84258 61.53266 Z" />
    <path d="M 0.00038 19.92168 L 26.21696 17.97781" />
    <path d="M -21.64889 17.56771 L 0.00038 19.92168 L 0.00038 0.00247" />
    <path d="M 3.15466 19.6878 L 3.15466 55.1974" />
    <path d="M -171.17143 43.01246 A 4.25 0.56323 195.43056 0 1 -169.78079 43.84901 A 4.25 0.56323 195.43056 1 1 -177.9744 41.58742 A 4.25 0.56323 195.43056 0 1 -171.17143 43.01246 Z" />
    <path d="M -333.14616 19.75635 L -341.91663 18.80272" />
    <path d="M -346.97437 18.25278 L -355.43217 17.33315" />
    <path d="M -360.1277 -19.23578 L -360.1277 15.24633" />
    <path d="M -342.93563 -17.53203 L -342.93563 17.11565" />
    <path d="M 315.94797 -5.23165 L 315.94797 17.89318" />
    <path d="M 333.14005 -6.50638 L 333.14005 19.76251" />
    <path d="M 185.10332 12.47937 L 162.81731 10.05616" />
    <path d="M -6.31667 55.29319 L -14.77447 54.37355" />
    <path d="M -162.81731 38.27656 L -171.58778 37.32292" />
    <path d="M -176.64552 36.77299 L -185.10332 35.85335" />
    <path d="M -19.47 17.80463 L -19.47 52.28673" />
    <path d="M -2.27793 19.67396 L -2.27793 54.15606" />
    <path d="M -346.903 17.99424 L -348.30325 23.06722" />
    <path d="M -338.69444 20.20164 L -340.10964 25.32881" />
    <path d="M -323.44767 22.61983 L -338.8982 20.93987" />
    <path d="M -361.04339 15.228 L -361.04339 -19.33534" />
    <path d="M -190.71455 33.7482 L -190.71455 -2.59111" />
    <path d="M -153.11882 41.14004 L -168.56935 39.46007" />
    <path d="M 166.76938 5.82947 L 165.54977 9.29817" />
    <path d="M 329.82763 19.40234 L 327.85984 24.99893" />
    <path d="M 338.26402 21.03406 L 335.87862 27.81837" />
    <path d="M -6.2453 55.03464 L -7.64555 60.10762" />
    <path d="M 1.96326 57.24205 L 0.54806 62.36922" />
    <path d="M -176.57415 36.51444 L -177.9744 41.58742" />
    <path d="M -168.36559 38.72185 L -169.78079 43.84901" />
</svg>