<svg version="1.1" xmlns="http://www.w3.org/2000/svg" viewBox="-366.4937690726871 -67.95444242962022 732.9875381453742 131.55618274760977" fill="none" stroke="black" stroke-width="0.6%" vector-effect="non-scaling-stroke">
    <path d="M -341.91957 18.7847 C -341.89 18.79 -341.86 18.8 -341.82912 18.81311 C -341.8 18.82 -341.77 18.83 -341.7385 18.84185 C -341.71 18.85 -341.68 18.86 -341.64778 18.8709 C -341.62 18.88 -341.59 18.89 -341.55703 18.90025 C -341.53 18.91 -341.5 18.92 -341.4663 18.92987 C -341.44 18.94 -341.41 18.95 -341.37568 18.95975 C -341.35 18.97 -341.32 18.98 -341.28525 18.98986 C -341.26 19 -341.23 19.01 -341.19509 19.02018 C -341.15 19.04 -341.1 19.05 -341.05149 19.0691 C -341 19.09 -340.96 19.1 -340.90918 19.11837 C -340.86 19.13 -340.82 19.15 -340.76859 19.16785 C -340.72 19.18 -340.68 19.2 -340.63013 19.21741 C -340.58 19.23 -340.54 19.25 -340.49426 19.26688 C -340.45 19.28 -340.41 19.3 -340.36139 19.31613 C -340.32 19.33 -340.27 19.35 -340.23196 19.36499 C -340.19 19.38 -340.15 19.4 -340.10642 19.41329" />
    <path d="M -346.90616 17.975 C -346.9 17.97 -346.9 17.96 -346.89996 17.95951 C -346.9 17.95 -346.89 17.95 -346.89029 17.94519 C -346.89 17.94 -346.88 17.94 -346.87723 17.93202 C -346.87 17.93 -346.87 17.92 -346.86088 17.91997 C -346.85 17.91 -346.84 17.91 -346.83313 17.90516 C -346.82 17.9 -346.81 17.9 -346.79949 17.89239 C -346.79 17.89 -346.77 17.88 -346.76015 17.88158 C -346.75 17.88 -346.73 17.88 -346.71528 17.87269 C -346.7 17.87 -346.69 17.87 -346.68077 17.86759 C -346.67 17.87 -346.66 17.86 -346.6437 17.86339 C -346.63 17.86 -346.62 17.86 -346.60411 17.86008 C -346.59 17.86 -346.58 17.86 -346.56207 17.85764 C -346.55 17.86 -346.53 17.86 -346.5176 17.85606 C -346.5 17.86 -346.49 17.86 -346.47077 17.85532 C -346.45 17.86 -346.44 17.86 -346.42159 17.85542 C -346.4 17.86 -346.39 17.86 -346.37012 17.85635 C -346.35 17.86 -346.33 17.86 -346.31639 17.8581 C -346.3 17.86 -346.28 17.86 -346.26043 17.86066 C -346.24 17.86 -346.22 17.86 -346.20229 17.86402 C -346.18 17.87 -346.16 17.87 -346.14198 17.86818 C -346.12 17.87 -346.1 17.87 -346.07954 17.87313 C -346.06 17.87 -346.04 17.88 -346.015 17.87887 C -345.99 17.88 -345.97 17.88 -345.94838 17.88539 C -345.93 17.89 -345.9 17.89 -345.8797 17.89269 C -345.83 17.9 -345.79 17.9 -345.74117 17.90899 C -345.69 17.91 -345.65 17.92 -345.59523 17.92819 C -345.5 17.94 -345.39 17.96 -345.28162 17.97523 C -345.06 18.01 -344.83 18.05 -344.57108 18.10446 C -344.38 18.14 -344.18 18.19 -343.96258 18.23479 C -343.35 18.37 -342.65 18.56 -341.91957 18.7847" />
    <path d="M -338.69756 20.18223 C -338.7 20.18 -338.7 20.17 -338.69591 20.16467 C -338.7 20.16 -338.7 20.15 -338.69918 20.14861 C -338.7 20.14 -338.7 20.14 -338.70679 20.13125 C -338.71 20.13 -338.71 20.12 -338.71888 20.11254 C -338.72 20.11 -338.73 20.1 -338.73557 20.09247 C -338.74 20.09 -338.75 20.08 -338.757 20.07099 C -338.76 20.06 -338.77 20.06 -338.78331 20.04807 C -338.79 20.04 -338.8 20.03 -338.81463 20.02368 C -338.83 20.02 -338.84 20.01 -338.8511 19.99778 C -338.86 19.99 -338.87 19.98 -338.88153 19.9776 C -338.89 19.97 -338.9 19.96 -338.91491 19.95657 C -338.93 19.95 -338.94 19.94 -338.95129 19.93468 C -338.96 19.93 -338.98 19.92 -338.99072 19.91192 C -339 19.9 -339.02 19.9 -339.03324 19.8883 C -339.05 19.88 -339.06 19.87 -339.07888 19.86381 C -339.09 19.86 -339.11 19.85 -339.12767 19.83845 C -339.14 19.83 -339.16 19.82 -339.17965 19.81222 C -339.19 19.81 -339.21 19.8 -339.22309 19.79084 C -339.24 19.78 -339.25 19.78 -339.26855 19.76891 C -339.28 19.76 -339.3 19.75 -339.31603 19.74646 C -339.33 19.74 -339.35 19.73 -339.36551 19.72349 C -339.38 19.72 -339.4 19.71 -339.41698 19.70002 C -339.43 19.69 -339.45 19.68 -339.47042 19.67605 C -339.49 19.67 -339.51 19.66 -339.52583 19.6516 C -339.54 19.64 -339.56 19.64 -339.58316 19.6267 C -339.6 19.62 -339.62 19.61 -339.64239 19.60134 C -339.66 19.59 -339.68 19.58 -339.70349 19.57557 C -339.72 19.57 -339.75 19.56 -339.7664 19.54938 C -339.79 19.54 -339.81 19.53 -339.83109 19.52282 C -339.92 19.49 -340.01 19.45 -340.10642 19.41329" />
    <path d="M -341.5032 24.47418 A 4.25 0.562 195.4293 0 1 -340.11269 25.30962 A 4.25 0.562 195.4293 1 1 -348.30635 23.0482 A 4.25 0.562 195.4293 0 1 -341.5032 24.47418 Z" />
    <path d="M -316.12193 21.31282 C -316.18 21.35 -316.24 21.38 -316.30472 21.41329 C -316.37 21.45 -316.43 21.48 -316.48839 21.51017 C -316.57 21.55 -316.65 21.59 -316.73707 21.62716 C -316.82 21.67 -316.9 21.7 -316.98715 21.73811 C -317.07 21.77 -317.15 21.81 -317.23856 21.84295 C -317.32 21.88 -317.41 21.91 -317.4912 21.94161 C -317.54 21.96 -317.59 21.98 -317.64598 21.99878 C -317.7 22.02 -317.75 22.04 -317.80117 22.05363 C -317.85 22.07 -317.9 22.09 -317.95674 22.10615 C -318.01 22.12 -318.06 22.14 -318.11267 22.15634 C -318.16 22.17 -318.22 22.19 -318.26894 22.2042 C -318.32 22.22 -318.37 22.23 -318.42552 22.24974 C -318.48 22.26 -318.53 22.28 -318.58239 22.29295 C -318.63 22.31 -318.69 22.32 -318.73953 22.33385 C -318.79 22.35 -318.84 22.36 -318.89691 22.37244 C -318.95 22.38 -319 22.4 -319.05452 22.40875 C -319.11 22.42 -319.16 22.43 -319.21232 22.44278 C -319.26 22.45 -319.32 22.46 -319.37031 22.47456 C -319.42 22.48 -319.48 22.49 -319.52847 22.50409 C -319.58 22.51 -319.63 22.52 -319.68676 22.53141 C -319.74 22.54 -319.79 22.55 -319.84518 22.55654 C -319.9 22.56 -319.95 22.57 -320.0037 22.5795 C -320.06 22.59 -320.11 22.59 -320.1623 22.60031 C -320.22 22.61 -320.27 22.61 -320.32098 22.61901 C -320.43 22.63 -320.53 22.64 -320.63846 22.65017 C -320.74 22.66 -320.85 22.67 -320.95602 22.67322 C -321.06 22.68 -321.17 22.68 -321.27352 22.68843 C -321.38 22.69 -321.49 22.69 -321.59084 22.69606 C -321.7 22.7 -321.8 22.7 -321.90789 22.69638 C -322.01 22.7 -322.12 22.69 -322.22455 22.6897 C -322.33 22.69 -322.44 22.68 -322.54075 22.67629 C -322.85 22.66 -323.16 22.63 -323.46151 22.60125 C -323.54 22.59 -323.61 22.58 -323.6846 22.57549 C -323.76 22.57 -323.83 22.56 -323.90737 22.54699 C -323.98 22.54 -324.06 22.53 -324.12982 22.51583 C -324.2 22.51 -324.28 22.49 -324.35193 22.48212 C -324.43 22.47 -324.5 22.46 -324.57371 22.44594 C -324.65 22.43 -324.72 22.42 -324.79515 22.40738 C -324.87 22.39 -324.94 22.38 -325.01624 22.36652 C -325.09 22.35 -325.16 22.34 -325.23699 22.32345 C -325.31 22.31 -325.38 22.29 -325.45738 22.27824 C -325.53 22.26 -325.6 22.25 -325.67744 22.23097 C -325.75 22.21 -325.82 22.2 -325.89714 22.18172 C -325.97 22.16 -326.04 22.15 -326.11651 22.13056 C -326.19 22.11 -326.26 22.1 -326.33553 22.07756 C -326.41 22.06 -326.48 22.04 -326.55422 22.02279 C -326.63 22 -326.7 21.99 -326.77259 21.9663 C -326.85 21.95 -326.92 21.93 -326.99063 21.90817 C -327.06 21.89 -327.12 21.87 -327.18636 21.85456 C -327.25 21.84 -327.32 21.82 -327.38183 21.79972 C -327.51 21.76 -327.64 21.72 -327.772 21.68648 C -327.9 21.65 -328.03 21.61 -328.1612 21.56877 C -328.29 21.53 -328.42 21.49 -328.54946 21.44687 C -328.68 21.41 -328.81 21.36 -328.93682 21.32107 C -329.07 21.28 -329.19 21.24 -329.32332 21.19161 C -329.45 21.15 -329.58 21.1 -329.70899 21.05874 C -329.84 21.01 -329.97 20.97 -330.09386 20.92268 C -330.22 20.88 -330.35 20.83 -330.47799 20.78363 C -330.61 20.74 -330.73 20.69 -330.86139 20.6418 C -330.99 20.59 -331.12 20.55 -331.2441 20.49736 C -331.37 20.45 -331.5 20.4 -331.62616 20.35049 C -332.14 20.15 -332.64 19.95 -333.14857 19.74164 C -333.23 19.71 -333.32 19.67 -333.40598 19.63637 C -333.49 19.6 -333.58 19.57 -333.66368 19.53211 C -333.75 19.5 -333.84 19.46 -333.92167 19.42889 C -334.01 19.39 -334.09 19.36 -334.17996 19.32677 C -334.27 19.29 -334.35 19.26 -334.43857 19.22579 C -334.52 19.19 -334.61 19.16 -334.69749 19.126 C -334.78 19.09 -334.87 19.06 -334.95675 19.02744 C -335.04 18.99 -335.13 18.96 -335.21635 18.93017 C -335.3 18.9 -335.39 18.87 -335.47629 18.83424 C -335.56 18.8 -335.65 18.77 -335.7366 18.7397 C -335.82 18.71 -335.91 18.68 -335.99728 18.64662 C -336.08 18.62 -336.17 18.59 -336.25834 18.55506 C -336.35 18.52 -336.43 18.49 -336.51979 18.46508 C -336.61 18.44 -336.69 18.41 -336.78164 18.37674 C -336.87 18.35 -336.96 18.32 -337.04391 18.29013 C -337.13 18.26 -337.22 18.23 -337.30659 18.2053 C -337.37 18.18 -337.44 18.16 -337.50528 18.14349" />
    <path d="M -347.43983 19.90858 C -347.52 19.89 -347.59 19.88 -347.67091 19.862 C -347.75 19.85 -347.82 19.83 -347.90161 19.81314 C -347.98 19.8 -348.06 19.78 -348.13193 19.76207 C -348.21 19.74 -348.29 19.73 -348.36187 19.70888 C -348.44 19.69 -348.51 19.67 -348.59144 19.65366 C -348.67 19.63 -348.74 19.62 -348.82064 19.59649 C -348.9 19.58 -348.97 19.56 -349.04949 19.53743 C -349.13 19.52 -349.2 19.5 -349.27798 19.47655 C -349.34 19.46 -349.41 19.44 -349.4737 19.42294 C -349.54 19.4 -349.6 19.39 -349.66917 19.3681 C -349.8 19.33 -349.93 19.29 -350.05935 19.25486 C -350.19 19.22 -350.32 19.18 -350.44854 19.13715 C -350.58 19.1 -350.71 19.06 -350.8368 19.01525 C -350.97 18.97 -351.1 18.93 -351.22416 18.88945 C -351.35 18.85 -351.48 18.8 -351.61066 18.75999 C -351.74 18.72 -351.87 18.67 -351.99633 18.62712 C -352.12 18.58 -352.25 18.54 -352.38121 18.49106 C -352.51 18.45 -352.64 18.4 -352.76533 18.35201 C -352.89 18.31 -353.02 18.26 -353.14873 18.21018 C -353.28 18.16 -353.4 18.11 -353.53144 18.06574 C -353.66 18.02 -353.79 17.97 -353.9135 17.91887 C -354.04 17.87 -354.17 17.82 -354.29494 17.76972 C -354.42 17.72 -354.55 17.67 -354.6758 17.61844 C -354.8 17.57 -354.93 17.52 -355.05611 17.46516 C -355.18 17.41 -355.31 17.36 -355.43591 17.31002 C -355.52 17.27 -355.61 17.24 -355.69333 17.20475 C -355.78 17.17 -355.87 17.14 -355.95102 17.10049 C -356.04 17.07 -356.12 17.03 -356.20901 16.99727 C -356.3 16.96 -356.38 16.93 -356.46731 16.89516 C -356.55 16.86 -356.64 16.83 -356.72591 16.79418 C -356.81 16.76 -356.9 16.73 -356.98483 16.69438 C -357.07 16.66 -357.16 16.63 -357.24409 16.59582 C -357.33 16.56 -357.42 16.53 -357.50369 16.49855 C -357.59 16.47 -357.68 16.43 -357.76364 16.40262 C -357.85 16.37 -357.94 16.34 -358.02395 16.30808 C -358.11 16.28 -358.2 16.25 -358.28463 16.215 C -358.37 16.18 -358.46 16.15 -358.54569 16.12344 C -358.63 16.09 -358.72 16.06 -358.80714 16.03346 C -358.89 16 -358.98 15.97 -359.06899 15.94512 C -359.16 15.92 -359.24 15.89 -359.33125 15.85851 C -359.42 15.83 -359.51 15.8 -359.59394 15.77368 C -359.6 15.77 -359.6 15.77 -359.60088 15.77138 C -359.6 15.77 -359.61 15.77 -359.60876 15.76878 C -359.61 15.77 -359.61 15.77 -359.6175 15.7659 C -359.62 15.76 -359.62 15.76 -359.62701 15.76276 C -359.63 15.76 -359.63 15.76 -359.63723 15.75939 C -359.64 15.76 -359.64 15.76 -359.64808 15.75582 C -359.65 15.75 -359.66 15.75 -359.65949 15.75207 C -359.66 15.75 -359.67 15.75 -359.67139 15.74816 C -359.68 15.75 -359.68 15.75 -359.68373 15.74412 C -359.69 15.74 -359.69 15.74 -359.69643 15.73996 C -359.7 15.74 -359.71 15.74 -359.70943 15.7357 C -359.71 15.73 -359.72 15.73 -359.72269 15.73137 C -359.73 15.73 -359.73 15.73 -359.73613 15.72699 C -359.74 15.73 -359.75 15.72 -359.74972 15.72256 C -359.76 15.72 -359.77 15.72 -359.77711 15.71365 C -359.79 15.71 -359.8 15.71 -359.80442 15.7048 C -359.81 15.7 -359.82 15.7 -359.83128 15.69611 C -359.84 15.69 -359.85 15.69 -359.85728 15.68773 C -359.87 15.68 -359.87 15.68 -359.88203 15.67977 C -359.89 15.68 -359.9 15.67 -359.90514 15.67236 C -359.91 15.67 -359.91 15.67 -359.91595 15.66889 C -359.92 15.67 -359.92 15.67 -359.9262 15.66562 C -359.93 15.66 -359.93 15.66 -359.93582 15.66254 C -359.94 15.66 -359.94 15.66 -359.94477 15.65968 C -359.95 15.66 -359.95 15.66 -359.95298 15.65706 C -359.96 15.66 -359.96 15.66 -359.9604 15.6547 C -359.98 15.65 -360 15.64 -360.01859 15.63539 C -360.04 15.63 -360.06 15.62 -360.07532 15.61642 C -360.09 15.61 -360.11 15.6 -360.13058 15.59782 C -360.15 15.59 -360.17 15.59 -360.18432 15.57959 C -360.2 15.57 -360.22 15.57 -360.23651 15.56174 C -360.25 15.56 -360.27 15.55 -360.28713 15.54429 C -360.3 15.54 -360.32 15.53 -360.33615 15.52723 C -360.35 15.52 -360.37 15.52 -360.38356 15.51058 C -360.4 15.51 -360.41 15.5 -360.42932 15.49435 C -360.44 15.49 -360.46 15.48 -360.47344 15.47854 C -360.49 15.47 -360.5 15.47 -360.51589 15.46315 C -360.53 15.46 -360.54 15.45 -360.55667 15.4482 C -360.57 15.44 -360.58 15.44 -360.59577 15.43367 C -360.61 15.43 -360.62 15.42 -360.63319 15.41958 C -360.65 15.41 -360.66 15.41 -360.66891 15.40592 C -360.68 15.4 -360.69 15.4 -360.70295 15.39269 C -360.72 15.39 -360.73 15.38 -360.74769 15.37494 C -360.76 15.37 -360.78 15.36 -360.78915 15.35804 C -360.8 15.35 -360.82 15.35 -360.82737 15.34197 C -360.84 15.34 -360.85 15.33 -360.86237 15.32672 C -360.87 15.32 -360.88 15.32 -360.89419 15.31229 C -360.9 15.31 -360.91 15.3 -360.92285 15.29867 C -360.93 15.29 -360.94 15.29 -360.9484 15.28583 C -360.96 15.28 -360.96 15.28 -360.9709 15.27378 C -360.98 15.27 -361 15.26 -361.0046 15.25345 C -361.01 15.25 -361.02 15.24 -361.02827 15.23563 C -361.03 15.23 -361.04 15.22 -361.04223 15.22019 C -361.05 15.22 -361.05 15.21 -361.04681 15.20704 C -361.05 15.2 -361.05 15.2 -361.04253 15.19628 C -361.04 15.19 -361.04 15.19 -361.02989 15.1875 C -361.03 15.19 -361.02 15.18 -361.01249 15.18144 C -361.01 15.18 -361 15.18 -360.98926 15.17672 C -360.98 15.18 -360.97 15.17 -360.96036 15.17329 C -360.95 15.17 -360.94 15.17 -360.92596 15.17109 C -360.91 15.17 -360.9 15.17 -360.8862 15.17006 C -360.87 15.17 -360.86 15.17 -360.84123 15.17018 C -360.83 15.17 -360.81 15.17 -360.79118 15.17138 C -360.77 15.17 -360.76 15.17 -360.73618 15.17364 C -360.72 15.17 -360.7 15.18 -360.67636 15.17692 C -360.66 15.18 -360.63 15.18 -360.61182 15.18119 C -360.59 15.18 -360.57 15.18 -360.54267 15.18642 C -360.52 15.19 -360.49 15.19 -360.46901 15.19258 C -360.44 15.19 -360.42 15.2 -360.39093 15.19965 C -360.36 15.2 -360.34 15.2 -360.30853 15.20761 C -360.28 15.21 -360.25 15.21 -360.22186 15.21645 C -360.19 15.22 -360.16 15.22 -360.13099 15.22616 L -342.9379 17.10198 C -342.9 17.11 -342.87 17.11 -342.83661 17.11327 C -342.8 17.12 -342.77 17.12 -342.73077 17.12551 C -342.69 17.13 -342.66 17.13 -342.62045 17.13871 C -342.58 17.14 -342.54 17.15 -342.5057 17.15288 C -342.47 17.16 -342.43 17.16 -342.38659 17.16801 C -342.35 17.17 -342.31 17.18 -342.26319 17.18411 C -342.22 17.19 -342.18 17.2 -342.13556 17.2012 C -342.09 17.21 -342.05 17.21 -342.00377 17.21929 C -341.96 17.23 -341.91 17.23 -341.86789 17.2384 C -341.82 17.24 -341.78 17.25 -341.72799 17.25855 C -341.68 17.27 -341.63 17.27 -341.58415 17.27976 C -341.54 17.29 -341.49 17.29 -341.43646 17.30205 C -341.39 17.31 -341.34 17.32 -341.28498 17.32547 C -341.23 17.33 -341.18 17.34 -341.12982 17.35004 C -341.08 17.36 -341.02 17.37 -340.97105 17.37579 C -340.92 17.38 -340.86 17.39 -340.80876 17.40277 C -340.77 17.41 -340.73 17.42 -340.68725 17.42342 C -340.65 17.43 -340.61 17.44 -340.564 17.44476 C -340.52 17.45 -340.48 17.46 -340.43906 17.46681 C -340.4 17.47 -340.35 17.48 -340.31252 17.48958 C -340.27 17.5 -340.23 17.51 -340.18445 17.51308 C -340.14 17.52 -340.1 17.53 -340.05496 17.53733 C -340.01 17.55 -339.97 17.55 -339.92413 17.56233 C -339.88 17.57 -339.84 17.58 -339.7921 17.5881 C -339.76 17.6 -339.72 17.6 -339.68129 17.61014 C -339.64 17.62 -339.61 17.63 -339.56981 17.63273 C -339.53 17.64 -339.5 17.65 -339.45775 17.65584 C -339.42 17.66 -339.38 17.67 -339.34519 17.6795 C -339.19 17.71 -339.04 17.74 -338.89222 17.77936 C -338.41 17.89 -337.93 18.02 -337.50528 18.14349" />
    <path d="M -316.12193 21.31282 C -316.1 21.3 -316.09 21.29 -316.06843 21.28017 C -316.05 21.27 -316.03 21.26 -316.01631 21.24725 C -316 21.24 -315.98 21.23 -315.96558 21.21409 C -315.95 21.2 -315.93 21.19 -315.91624 21.1807 C -315.9 21.17 -315.88 21.16 -315.8683 21.14712 C -315.85 21.14 -315.84 21.12 -315.82177 21.11337 C -315.81 21.1 -315.79 21.09 -315.77665 21.07947 C -315.76 21.07 -315.75 21.06 -315.73295 21.04544 C -315.72 21.03 -315.7 21.02 -315.69065 21.01132 C -315.68 21 -315.66 20.99 -315.64976 20.97711 C -315.62 20.95 -315.6 20.93 -315.5722 20.90854 C -315.55 20.89 -315.52 20.86 -315.50021 20.83991 C -315.48 20.82 -315.45 20.79 -315.43375 20.77137 C -315.42 20.76 -315.4 20.74 -315.39062 20.72368 C -315.38 20.71 -315.36 20.69 -315.35011 20.67616 C -315.34 20.66 -315.32 20.64 -315.31221 20.62886 C -315.3 20.61 -315.29 20.6 -315.27688 20.5818 C -315.27 20.57 -315.25 20.55 -315.24409 20.53505 C -315.23 20.52 -315.22 20.5 -315.21381 20.48863 C -315.2 20.47 -315.19 20.46 -315.18602 20.44259 C -315.18 20.43 -315.17 20.41 -315.16068 20.39696 C -315.15 20.37 -315.14 20.35 -315.12499 20.32451 C -315.11 20.3 -315.1 20.28 -315.09545 20.25337 C -315.09 20.23 -315.08 20.21 -315.07194 20.18367 C -315.07 20.16 -315.06 20.14 -315.05434 20.11555 C -315.05 20.09 -315.04 20.06 -315.04019 20.02998 C -315.04 20 -315.04 19.97 -315.03552 19.9475 L -315.03552 -16.11081" />
    <path d="M -316.12193 -16.22934 L -316.12193 21.31282" />
    <path d="M -316.48839 -16.26932 L -316.48839 21.51017" />
    <path d="M -337.30659 -18.54066 L -337.30659 18.2053" />
    <path d="M -342.20318 -17.59896 L -342.20318 -19.07489" />
    <path d="M -337.50528 -18.56233 L -337.50528 18.14349" />
    <path d="M -342.30112 -19.08557 L -189.79201 -2.44635 L -189.79201 33.81068 L -172.59891 35.6865" />
    <path d="M -343.84321 -17.47692 L -342.20318 -17.59896" />
    <path d="M -365.49377 -19.83907 L -343.84321 -17.47692 L -343.84321 -37.39557 L -328.42232 -38.54311 L -328.42232 -37.04921 L -342.30112 -36.01642 L -21.63189 -1.0304" />
    <path d="M -326.54263 -38.82514 L -326.54263 -40.31904 L -337.33725 -39.51576 L -328.42232 -38.54311" />
    <path d="M -326.54263 -40.31904 L -339.27825 -41.70853 L -365.49377 -39.75771 L -343.84321 -37.39557" />
    <path d="M -342.30112 -36.01642 L -342.30112 -19.08557" />
    <path d="M -185.09693 35.89454 C -185.18 35.86 -185.27 35.82 -185.35434 35.78927 C -185.44 35.75 -185.53 35.72 -185.61204 35.68501 C -185.7 35.65 -185.78 35.62 -185.87003 35.58179 C -185.96 35.55 -186.04 35.51 -186.12832 35.47967 C -186.21 35.45 -186.3 35.41 -186.38693 35.37869 C -186.47 35.35 -186.56 35.31 -186.64585 35.2789 C -186.73 35.25 -186.82 35.21 -186.90511 35.18034 C -186.99 35.15 -187.08 35.12 -187.1647 35.08307 C -187.25 35.05 -187.34 35.02 -187.42465 34.98714 C -187.51 34.96 -187.6 34.92 -187.68496 34.8926 C -187.77 34.86 -187.86 34.83 -187.94564 34.79952 C -188.03 34.77 -188.12 34.74 -188.2067 34.70796 C -188.29 34.68 -188.38 34.65 -188.46815 34.61798 C -188.56 34.59 -188.64 34.56 -188.73 34.52964 C -188.82 34.5 -188.9 34.47 -188.99227 34.44303 C -189.08 34.41 -189.17 34.39 -189.25495 34.3582 C -189.26 34.36 -189.26 34.36 -189.26189 34.3559 C -189.26 34.36 -189.27 34.35 -189.26977 34.3533 C -189.27 34.35 -189.28 34.35 -189.27851 34.35042 C -189.28 34.35 -189.28 34.35 -189.28803 34.34728 C -189.29 34.35 -189.29 34.35 -189.29825 34.34391 C -189.3 34.34 -189.31 34.34 -189.3091 34.34034 C -189.31 34.34 -189.32 34.34 -189.32051 34.33659 C -189.32 34.34 -189.33 34.33 -189.33241 34.33268 C -189.34 34.33 -189.34 34.33 -189.34474 34.32864 C -189.35 34.33 -189.35 34.33 -189.35744 34.32448 C -189.36 34.32 -189.37 34.32 -189.37045 34.32022 C -189.37 34.32 -189.38 34.32 -189.3837 34.31589 C -189.39 34.31 -189.39 34.31 -189.39715 34.3115 C -189.4 34.31 -189.41 34.31 -189.41074 34.30708 C -189.42 34.3 -189.43 34.3 -189.43812 34.29817 C -189.45 34.3 -189.46 34.29 -189.46544 34.28932 C -189.47 34.29 -189.48 34.28 -189.49229 34.28063 C -189.5 34.28 -189.51 34.27 -189.51829 34.27225 C -189.53 34.27 -189.54 34.27 -189.54305 34.26429 C -189.55 34.26 -189.56 34.26 -189.56616 34.25687 C -189.57 34.26 -189.57 34.25 -189.57697 34.25341 C -189.58 34.25 -189.58 34.25 -189.58721 34.25013 C -189.59 34.25 -189.59 34.25 -189.59684 34.24706 C -189.6 34.25 -189.6 34.25 -189.60579 34.2442 C -189.61 34.24 -189.61 34.24 -189.614 34.24158 C -189.62 34.24 -189.62 34.24 -189.62142 34.23922" />
    <path d="M -177.10084 38.4931 C -177.18 38.48 -177.25 38.46 -177.33192 38.44652 C -177.41 38.43 -177.49 38.41 -177.56262 38.39766 C -177.64 38.38 -177.72 38.36 -177.79294 38.34659 C -177.87 38.33 -177.95 38.31 -178.02289 38.2934 C -178.1 38.28 -178.18 38.26 -178.25246 38.23818 C -178.33 38.22 -178.41 38.2 -178.48166 38.18101 C -178.56 38.16 -178.63 38.14 -178.7105 38.12194 C -178.79 38.1 -178.86 38.08 -178.93899 38.06107 C -179 38.04 -179.07 38.03 -179.13472 38.00746 C -179.2 37.99 -179.27 37.97 -179.33019 37.95262 C -179.46 37.92 -179.59 37.88 -179.72036 37.83938 C -179.85 37.8 -179.98 37.76 -180.10956 37.72166 C -180.24 37.68 -180.37 37.64 -180.49782 37.59977 C -180.63 37.56 -180.76 37.52 -180.88518 37.47397 C -181.01 37.43 -181.14 37.39 -181.27168 37.34451 C -181.4 37.3 -181.53 37.26 -181.65735 37.21164 C -181.79 37.17 -181.91 37.12 -182.04222 37.07558 C -182.17 37.03 -182.3 36.98 -182.42635 36.93653 C -182.55 36.89 -182.68 36.84 -182.80974 36.7947 C -182.94 36.75 -183.06 36.7 -183.19246 36.65026 C -183.32 36.6 -183.45 36.55 -183.57452 36.50339 C -183.7 36.45 -183.83 36.4 -183.95596 36.35424 C -184.08 36.3 -184.21 36.25 -184.33681 36.20296 C -184.46 36.15 -184.59 36.1 -184.71713 36.04968 C -184.84 36 -184.97 35.95 -185.09693 35.89454" />
    <path d="M -189.79201 33.81068 C -189.82 33.81 -189.86 33.8 -189.88791 33.80045 C -189.92 33.8 -189.95 33.79 -189.97912 33.79118 C -190.01 33.79 -190.04 33.79 -190.06556 33.7829 C -190.09 33.78 -190.12 33.78 -190.14714 33.77562 C -190.17 33.77 -190.2 33.77 -190.22377 33.76936 C -190.25 33.77 -190.27 33.77 -190.29534 33.76415 C -190.32 33.76 -190.34 33.76 -190.36172 33.76002 C -190.38 33.76 -190.4 33.76 -190.42278 33.75701 C -190.44 33.76 -190.46 33.76 -190.4784 33.75515 C -190.5 33.75 -190.51 33.75 -190.52841 33.75449 C -190.54 33.75 -190.56 33.75 -190.57267 33.75508 C -190.59 33.76 -190.6 33.76 -190.611 33.75697 C -190.62 33.76 -190.63 33.76 -190.64325 33.76022 C -190.65 33.76 -190.66 33.76 -190.66921 33.76489 C -190.68 33.77 -190.68 33.77 -190.6887 33.77104 C -190.69 33.77 -190.7 33.78 -190.70151 33.77874 C -190.7 33.78 -190.71 33.78 -190.70624 33.78478 C -190.71 33.79 -190.71 33.79 -190.70783 33.79156 C -190.71 33.8 -190.71 33.8 -190.70329 33.80464 C -190.7 33.81 -190.7 33.81 -190.68947 33.81998 C -190.68 33.83 -190.68 33.83 -190.66604 33.83768 C -190.66 33.84 -190.65 33.85 -190.63269 33.85786 C -190.63 33.86 -190.62 33.87 -190.6122 33.86891 C -190.6 33.87 -190.6 33.88 -190.58912 33.88061 C -190.58 33.88 -190.57 33.89 -190.5634 33.89298 C -190.55 33.9 -190.54 33.9 -190.53503 33.90603 C -190.53 33.91 -190.51 33.92 -190.50397 33.91977 C -190.49 33.92 -190.48 33.93 -190.47019 33.9342 C -190.46 33.94 -190.45 33.94 -190.43366 33.94934 C -190.42 33.95 -190.41 33.96 -190.39437 33.9652 C -190.38 33.97 -190.37 33.97 -190.35996 33.97878 C -190.35 33.98 -190.34 33.99 -190.32365 33.99285 C -190.31 34 -190.3 34 -190.28546 34.00741 C -190.27 34.01 -190.26 34.02 -190.24537 34.02245 C -190.23 34.03 -190.22 34.03 -190.2034 34.03798 C -190.19 34.04 -190.17 34.05 -190.15955 34.05399 C -190.14 34.06 -190.13 34.06 -190.11383 34.07048 C -190.1 34.08 -190.08 34.08 -190.06624 34.08744 C -190.05 34.09 -190.03 34.1 -190.01682 34.10487 C -190 34.11 -189.98 34.12 -189.96558 34.12276 C -189.95 34.13 -189.93 34.13 -189.91253 34.1411 C -189.89 34.15 -189.88 34.15 -189.85772 34.15989 C -189.84 34.17 -189.82 34.17 -189.80116 34.17911 C -189.78 34.19 -189.76 34.19 -189.7429 34.19874 C -189.72 34.21 -189.7 34.21 -189.68297 34.21879 C -189.66 34.23 -189.64 34.23 -189.62142 34.23922" />
    <path d="M -172.59891 -0.57053 L -21.63189 15.90045" />
    <path d="M -172.59891 -0.57053 L -172.59891 35.6865" />
    <path d="M -365.49377 -19.83907 L -365.49377 -39.75771" />
    <path d="M -24.96062 -63.37077 L -329.86435 -40.68145" />
    <path d="M -26.23418 -63.276 L -26.23418 -65.00362 L -13.49856 -63.61412 L -13.49856 -62.12023 L -2.70393 -62.9235 L -2.70393 -64.4174 L -13.49856 -63.61412" />
    <path d="M -13.49856 -62.12023 L -24.96062 -63.37077" />
    <path d="M -329.19691 -38.62762 L -326.54263 -38.82514" />
    <path d="M -2.70393 -62.9235 L 6.211 -61.95086 L 6.211 -63.44476 L 21.63189 -64.5923 L -0.01867 -66.95444 L -26.23418 -65.00362" />
    <path d="M 20.0898 -62.98364 L 6.211 -61.95086" />
    <path d="M 334.16077 -28.71751 L 20.0898 -62.98364" />
    <path d="M 328.42232 -26.79659 L 329.19691 -26.71208" />
    <path d="M 338.00469 -23.77012 L 326.54263 -25.02066 L 326.54263 -26.51456 L 339.27825 -25.12507 L 365.49377 -27.07589 L 343.84321 -29.43803 L 328.42232 -28.29049 L 328.42232 -26.79659" />
    <path d="M 26.23418 -0.5698 L 338.00469 -23.77012 L 338.00469 -6.83927" />
    <path d="M -176.56718 36.55952 C -176.57 36.55 -176.56 36.55 -176.56098 36.54403 C -176.56 36.54 -176.56 36.53 -176.5513 36.52971 C -176.55 36.53 -176.54 36.52 -176.53825 36.51654 C -176.53 36.51 -176.53 36.51 -176.5219 36.50449 C -176.51 36.5 -176.5 36.49 -176.49414 36.48968 C -176.48 36.49 -176.47 36.48 -176.4605 36.4769 C -176.45 36.47 -176.44 36.47 -176.42116 36.46609 C -176.41 36.46 -176.39 36.46 -176.3763 36.4572 C -176.37 36.46 -176.35 36.45 -176.34179 36.45211 C -176.33 36.45 -176.32 36.45 -176.30471 36.44791 C -176.29 36.45 -176.28 36.45 -176.26513 36.4446 C -176.25 36.44 -176.24 36.44 -176.22308 36.44216 C -176.21 36.44 -176.19 36.44 -176.17862 36.44058 C -176.16 36.44 -176.15 36.44 -176.13178 36.43984 C -176.12 36.44 -176.1 36.44 -176.08261 36.43994 C -176.07 36.44 -176.05 36.44 -176.03114 36.44087 C -176.01 36.44 -176 36.44 -175.97741 36.44262 C -175.96 36.44 -175.94 36.44 -175.92145 36.44518 C -175.9 36.45 -175.88 36.45 -175.8633 36.44854 C -175.84 36.45 -175.82 36.45 -175.803 36.4527 C -175.78 36.45 -175.76 36.46 -175.74056 36.45765 C -175.72 36.46 -175.7 36.46 -175.67601 36.46339 C -175.65 36.47 -175.63 36.47 -175.60939 36.46991 C -175.59 36.47 -175.56 36.47 -175.54072 36.4772 C -175.5 36.48 -175.45 36.49 -175.40219 36.49351 C -175.35 36.5 -175.31 36.51 -175.25624 36.5127 C -175.16 36.53 -175.05 36.54 -174.94264 36.55975 C -174.72 36.59 -174.49 36.64 -174.2321 36.68897 C -174.04 36.73 -173.84 36.77 -173.62359 36.81931 C -173.01 36.96 -172.31 37.14 -171.58058 37.36922 C -171.55 37.38 -171.52 37.39 -171.49013 37.39763 C -171.46 37.41 -171.43 37.42 -171.39952 37.42637 C -171.37 37.44 -171.34 37.45 -171.3088 37.45542 C -171.28 37.47 -171.25 37.47 -171.21804 37.48477 C -171.19 37.49 -171.16 37.5 -171.12732 37.51439 C -171.1 37.52 -171.07 37.53 -171.0367 37.54427 C -171.01 37.55 -170.98 37.56 -170.94627 37.57438 C -170.92 37.58 -170.89 37.59 -170.8561 37.6047 C -170.81 37.62 -170.76 37.64 -170.71251 37.65362 C -170.66 37.67 -170.62 37.69 -170.5702 37.70289 C -170.52 37.72 -170.48 37.74 -170.4296 37.75237 C -170.38 37.77 -170.34 37.79 -170.29115 37.80193 C -170.25 37.82 -170.2 37.83 -170.15527 37.8514 C -170.11 37.87 -170.07 37.88 -170.0224 37.90065 C -169.98 37.92 -169.94 37.93 -169.89298 37.94951 C -169.85 37.97 -169.81 37.98 -169.76743 37.99781" />
    <path d="M -167.16629 36.72801 C -167.2 36.72 -167.23 36.71 -167.26968 36.69703 C -167.3 36.69 -167.34 36.68 -167.37521 36.66618 C -167.41 36.66 -167.45 36.65 -167.4827 36.6355 C -167.52 36.63 -167.56 36.62 -167.59197 36.60505 C -167.63 36.59 -167.67 36.58 -167.7028 36.57487 C -167.74 36.56 -167.78 36.55 -167.81504 36.54501 C -167.85 36.54 -167.89 36.53 -167.92847 36.5155 C -167.97 36.51 -168 36.5 -168.04294 36.48638 C -168.08 36.48 -168.12 36.47 -168.15824 36.45769 C -168.2 36.45 -168.24 36.44 -168.27422 36.42944 C -168.31 36.42 -168.35 36.41 -168.39069 36.40167 C -168.43 36.39 -168.47 36.38 -168.5075 36.3744 C -168.55 36.37 -168.59 36.36 -168.62446 36.34766 C -168.66 36.34 -168.7 36.33 -168.74143 36.32145 C -168.78 36.31 -168.82 36.3 -168.85825 36.29579 C -168.9 36.29 -168.94 36.28 -168.97477 36.2707 C -169.01 36.26 -169.04 36.26 -169.07401 36.24971 C -169.11 36.24 -169.14 36.24 -169.17289 36.22914 C -169.21 36.22 -169.24 36.22 -169.27136 36.20899 C -169.3 36.2 -169.34 36.2 -169.36934 36.18925 C -169.4 36.18 -169.43 36.18 -169.46679 36.16992 C -169.5 36.16 -169.53 36.16 -169.56364 36.15101 C -169.6 36.14 -169.63 36.14 -169.65986 36.13251 C -169.69 36.13 -169.72 36.12 -169.75539 36.11441 C -169.79 36.11 -169.82 36.1 -169.85019 36.09672 C -169.88 36.09 -169.91 36.09 -169.94422 36.07944 C -169.98 36.07 -170.01 36.07 -170.03744 36.06254 C -170.07 36.06 -170.1 36.05 -170.12982 36.04604 C -170.25 36.02 -170.37 36 -170.4903 35.98384 C -171.36 35.84 -172.08 35.74 -172.59891 35.6865" />
    <path d="M -166.96761 36.78982 C -167.03 36.77 -167.1 36.75 -167.16629 36.72801" />
    <path d="M -162.80958 38.32616 C -162.9 38.29 -162.98 38.26 -163.067 38.22089 C -163.15 38.19 -163.24 38.15 -163.3247 38.11663 C -163.41 38.08 -163.5 38.05 -163.58269 38.01341 C -163.67 37.98 -163.75 37.95 -163.84098 37.91129 C -163.93 37.88 -164.01 37.84 -164.09958 37.81031 C -164.19 37.78 -164.27 37.74 -164.35851 37.71052 C -164.44 37.68 -164.53 37.64 -164.61776 37.61196 C -164.7 37.58 -164.79 37.55 -164.87736 37.51469 C -164.96 37.48 -165.05 37.45 -165.13731 37.41876 C -165.22 37.39 -165.31 37.36 -165.39762 37.32422 C -165.48 37.29 -165.57 37.26 -165.6583 37.23114 C -165.75 37.2 -165.83 37.17 -165.91936 37.13958 C -166.01 37.11 -166.09 37.08 -166.18081 37.0496 C -166.27 37.02 -166.36 36.99 -166.44266 36.96126 C -166.53 36.93 -166.62 36.9 -166.70492 36.87464 C -166.79 36.85 -166.88 36.82 -166.96761 36.78982" />
    <path d="M -145.78294 39.89734 C -145.84 39.93 -145.9 39.96 -145.96573 39.99781 C -146.03 40.03 -146.09 40.06 -146.14941 40.09469 C -146.23 40.13 -146.31 40.17 -146.39808 40.21168 C -146.48 40.25 -146.56 40.29 -146.64817 40.32263 C -146.73 40.36 -146.82 40.39 -146.89957 40.42747 C -146.98 40.46 -147.07 40.49 -147.15221 40.52613 C -147.2 40.55 -147.26 40.56 -147.307 40.5833 C -147.36 40.6 -147.41 40.62 -147.46218 40.63815 C -147.51 40.66 -147.57 40.67 -147.61776 40.69067 C -147.67 40.71 -147.72 40.72 -147.77369 40.74086 C -147.83 40.76 -147.88 40.77 -147.92996 40.78872 C -147.98 40.8 -148.03 40.82 -148.08654 40.83425 C -148.14 40.85 -148.19 40.86 -148.24341 40.87747 C -148.3 40.89 -148.35 40.91 -148.40054 40.91836 C -148.45 40.93 -148.51 40.94 -148.55793 40.95696 C -148.61 40.97 -148.66 40.98 -148.71553 40.99327 C -148.77 41 -148.82 41.02 -148.87334 41.0273 C -148.93 41.04 -148.98 41.05 -149.03133 41.05907 C -149.08 41.07 -149.14 41.08 -149.18948 41.08861 C -149.24 41.1 -149.29 41.11 -149.34778 41.11593 C -149.4 41.12 -149.45 41.13 -149.50619 41.14106 C -149.56 41.15 -149.61 41.16 -149.66471 41.16402 C -149.72 41.17 -149.77 41.18 -149.82332 41.18483 C -149.88 41.19 -149.93 41.2 -149.98199 41.20353 C -150.09 41.22 -150.19 41.23 -150.29948 41.23469 C -150.41 41.24 -150.51 41.25 -150.61703 41.25774 C -150.72 41.26 -150.83 41.27 -150.93453 41.27295 C -151.04 41.28 -151.15 41.28 -151.25186 41.28057 C -151.36 41.28 -151.46 41.28 -151.5689 41.2809 C -151.67 41.28 -151.78 41.28 -151.88557 41.27422 C -151.99 41.27 -152.1 41.27 -152.20176 41.26081 C -152.51 41.24 -152.82 41.22 -153.12253 41.18577 L -168.56132 39.50135" />
    <path d="M -153.12253 41.18577 C -153.2 41.18 -153.27 41.17 -153.34562 41.16001 C -153.42 41.15 -153.49 41.14 -153.56839 41.13151 C -153.64 41.12 -153.72 41.11 -153.79083 41.10035 C -153.86 41.09 -153.94 41.08 -154.01295 41.06664 C -154.09 41.05 -154.16 41.04 -154.23473 41.03046 C -154.31 41.02 -154.38 41.01 -154.45616 40.9919 C -154.53 40.98 -154.6 40.97 -154.67725 40.95104 C -154.75 40.94 -154.82 40.92 -154.898 40.90797 C -154.97 40.89 -155.04 40.88 -155.1184 40.86276 C -155.19 40.85 -155.27 40.83 -155.33845 40.81549 C -155.41 40.8 -155.48 40.78 -155.55816 40.76624 C -155.63 40.75 -155.7 40.73 -155.77752 40.71508 C -155.85 40.7 -155.92 40.68 -155.99655 40.66208 C -156.07 40.64 -156.14 40.63 -156.21524 40.60731 C -156.29 40.59 -156.36 40.57 -156.4336 40.55082 C -156.51 40.53 -156.58 40.51 -156.65165 40.49269 C -156.72 40.48 -156.78 40.46 -156.84737 40.43908 C -156.91 40.42 -156.98 40.4 -157.04284 40.38424 C -157.17 40.35 -157.3 40.31 -157.43302 40.271 C -157.56 40.23 -157.69 40.19 -157.82222 40.15328 C -157.95 40.11 -158.08 40.07 -158.21048 40.03139 C -158.34 39.99 -158.47 39.95 -158.59783 39.90559 C -158.73 39.86 -158.86 39.82 -158.98433 39.77613 C -159.11 39.73 -159.24 39.69 -159.37 39.64326 C -159.5 39.6 -159.63 39.55 -159.75488 39.50719 C -159.88 39.46 -160.01 39.41 -160.139 39.36815 C -160.27 39.32 -160.39 39.27 -160.5224 39.22632 C -160.65 39.18 -160.78 39.13 -160.90511 39.08188 C -161.03 39.03 -161.16 38.98 -161.28717 38.93501 C -161.8 38.74 -162.3 38.53 -162.80958 38.32616 L -171.58058 37.36922" />
    <path d="M -168.35857 38.76675 C -168.36 38.76 -168.36 38.76 -168.35693 38.74919 C -168.36 38.74 -168.36 38.74 -168.36019 38.73313 C -168.36 38.73 -168.36 38.72 -168.36781 38.71576 C -168.37 38.71 -168.38 38.7 -168.37989 38.69706 C -168.38 38.69 -168.39 38.68 -168.39659 38.67699 C -168.4 38.67 -168.41 38.66 -168.41802 38.65551 C -168.43 38.65 -168.43 38.64 -168.44433 38.63259 C -168.45 38.62 -168.46 38.62 -168.47565 38.6082 C -168.49 38.6 -168.5 38.59 -168.51211 38.5823 C -168.52 38.58 -168.53 38.57 -168.54254 38.56212 C -168.55 38.56 -168.56 38.55 -168.57593 38.54109 C -168.59 38.53 -168.6 38.53 -168.61231 38.5192 C -168.62 38.51 -168.64 38.5 -168.65174 38.49644 C -168.67 38.49 -168.68 38.48 -168.69426 38.47282 C -168.71 38.46 -168.72 38.46 -168.7399 38.44833 C -168.76 38.44 -168.77 38.43 -168.78869 38.42297 C -168.81 38.41 -168.82 38.41 -168.84066 38.39674 C -168.85 38.39 -168.87 38.38 -168.88411 38.37536 C -168.9 38.37 -168.91 38.36 -168.92957 38.35343 C -168.95 38.35 -168.96 38.34 -168.97704 38.33098 C -168.99 38.32 -169.01 38.32 -169.02652 38.30801 C -169.04 38.3 -169.06 38.29 -169.07799 38.28454 C -169.1 38.28 -169.11 38.27 -169.13144 38.26057 C -169.15 38.25 -169.17 38.24 -169.18684 38.23612 C -169.21 38.23 -169.22 38.22 -169.24418 38.21122 C -169.26 38.2 -169.28 38.19 -169.30341 38.18586 C -169.32 38.18 -169.34 38.17 -169.3645 38.16009 C -169.39 38.15 -169.41 38.14 -169.42742 38.1339 C -169.45 38.13 -169.47 38.12 -169.49211 38.10734 C -169.58 38.07 -169.67 38.04 -169.76743 37.99781" />
    <path d="M -145.78294 39.89734 C -145.76 39.89 -145.75 39.88 -145.72945 39.86469 C -145.71 39.85 -145.69 39.84 -145.67733 39.83177 C -145.66 39.82 -145.64 39.81 -145.62659 39.79861 C -145.61 39.79 -145.59 39.78 -145.57725 39.76522 C -145.56 39.75 -145.55 39.74 -145.52932 39.73164 C -145.51 39.72 -145.5 39.71 -145.48279 39.69789 C -145.47 39.69 -145.45 39.68 -145.43767 39.66399 C -145.42 39.65 -145.41 39.64 -145.39396 39.62996 C -145.38 39.62 -145.37 39.61 -145.35167 39.59583 C -145.34 39.58 -145.32 39.57 -145.31078 39.56163 C -145.28 39.54 -145.26 39.52 -145.23321 39.49306 C -145.21 39.47 -145.18 39.45 -145.16123 39.42443 C -145.14 39.4 -145.12 39.38 -145.09477 39.35589 C -145.08 39.34 -145.07 39.32 -145.05163 39.3082 C -145.04 39.29 -145.02 39.28 -145.01113 39.26068 C -145 39.24 -144.99 39.23 -144.97322 39.21337 C -144.96 39.2 -144.95 39.18 -144.93789 39.16632 C -144.93 39.15 -144.92 39.14 -144.9051 39.11956 C -144.89 39.1 -144.88 39.09 -144.87483 39.07315 C -144.87 39.06 -144.86 39.04 -144.84704 39.0271 C -144.84 39.01 -144.83 39 -144.8217 38.98148 C -144.81 38.96 -144.8 38.93 -144.786 38.90903 C -144.78 38.89 -144.77 38.86 -144.75646 38.83788 C -144.75 38.81 -144.74 38.79 -144.73295 38.76819 C -144.73 38.75 -144.72 38.72 -144.71536 38.70007 C -144.71 38.67 -144.7 38.64 -144.7012 38.6145 C -144.7 38.59 -144.7 38.56 -144.69653 38.53202 L -144.69653 2.47371" />
    <path d="M -6.211 -3.38884 L -21.63189 -2.2413 L 0.01867 0.12084 L 26.23418 -1.82998 L 13.49856 -3.21947" />
    <path d="M -21.63189 17.67735 L -21.63189 -2.2413" />
    <path d="M -167.16629 0.02219 L -167.16629 36.72801" />
    <path d="M 6.211 -63.44476 L -2.70393 -64.4174" />
    <path d="M 21.63189 -62.8154 L 21.63189 -64.5923" />
    <path d="M 172.59891 18.99528 L 189.79201 20.8711" />
    <path d="M 337.33725 -27.31784 L 328.42232 -28.29049" />
    <path d="M 326.54263 -26.51456 L 337.33725 -27.31784" />
    <path d="M 337.92381 -5.35419 L 339.27825 -5.20642 L 365.49377 -7.15724 L 365.49377 -27.07589" />
    <path d="M 337.92381 -5.35419 L 337.92381 -6.83325" />
    <path d="M 339.27825 -5.20642 L 339.27825 -25.12507" />
    <path d="M 26.23418 16.36105 L 338.00469 -6.83927" />
    <path d="M 26.23418 18.08867 L 26.23418 -1.82998" />
    <path d="M 2.70393 -2.41619 L 13.49856 -3.21947" />
    <path d="M -6.211 -3.38884 L 2.70393 -2.41619" />
    <path d="M -14.75794 54.47906 C -14.84 54.44 -14.93 54.41 -15.01536 54.37379 C -15.1 54.34 -15.19 54.3 -15.27306 54.26953 C -15.36 54.23 -15.44 54.2 -15.53105 54.16631 C -15.62 54.13 -15.7 54.1 -15.78934 54.06419 C -15.88 54.03 -15.96 54 -16.04794 53.96321 C -16.13 53.93 -16.22 53.9 -16.30687 53.86342 C -16.39 53.83 -16.48 53.8 -16.56612 53.76486 C -16.65 53.73 -16.74 53.7 -16.82572 53.66759 C -16.91 53.64 -17 53.6 -17.08567 53.57166 C -17.17 53.54 -17.26 53.51 -17.34598 53.47712 C -17.43 53.45 -17.52 53.41 -17.60666 53.38404 C -17.69 53.35 -17.78 53.32 -17.86772 53.29248 C -17.95 53.26 -18.04 53.23 -18.12917 53.2025 C -18.22 53.17 -18.3 53.14 -18.39102 53.11416 C -18.48 53.08 -18.57 53.06 -18.65328 53.02754 C -18.74 53 -18.83 52.97 -18.91597 52.94272 C -18.92 52.94 -18.92 52.94 -18.92291 52.94042 C -18.93 52.94 -18.93 52.94 -18.93079 52.93782 C -18.93 52.94 -18.94 52.94 -18.93953 52.93493 C -18.94 52.93 -18.95 52.93 -18.94905 52.9318 C -18.95 52.93 -18.96 52.93 -18.95926 52.92843 C -18.96 52.93 -18.97 52.93 -18.97011 52.92486 C -18.97 52.92 -18.98 52.92 -18.98152 52.92111 C -18.99 52.92 -18.99 52.92 -18.99343 52.9172 C -19 52.92 -19 52.91 -19.00576 52.91315 C -19.01 52.91 -19.01 52.91 -19.01846 52.909 C -19.02 52.91 -19.03 52.91 -19.03146 52.90474 C -19.04 52.9 -19.04 52.9 -19.04472 52.90041 C -19.05 52.9 -19.05 52.9 -19.05817 52.89602 C -19.06 52.89 -19.07 52.89 -19.07175 52.8916 C -19.08 52.89 -19.09 52.89 -19.09914 52.88269 C -19.11 52.88 -19.12 52.88 -19.12645 52.87383 C -19.14 52.87 -19.14 52.87 -19.15331 52.86515 C -19.16 52.86 -19.17 52.86 -19.17931 52.85677 C -19.19 52.85 -19.2 52.85 -19.20406 52.84881 C -19.21 52.85 -19.22 52.84 -19.22717 52.84139 C -19.23 52.84 -19.23 52.84 -19.23798 52.83793 C -19.24 52.84 -19.24 52.84 -19.24823 52.83465 C -19.25 52.83 -19.25 52.83 -19.25785 52.83158 C -19.26 52.83 -19.26 52.83 -19.2668 52.82872 C -19.27 52.83 -19.27 52.83 -19.27502 52.8261 C -19.28 52.83 -19.28 52.82 -19.28244 52.82374" />
    <path d="M -6.76186 57.07762 C -6.84 57.06 -6.92 57.05 -6.99294 57.03104 C -7.07 57.02 -7.15 57 -7.22364 56.98217 C -7.3 56.97 -7.38 56.95 -7.45396 56.93111 C -7.53 56.91 -7.61 56.9 -7.6839 56.87792 C -7.76 56.86 -7.84 56.84 -7.91347 56.8227 C -7.99 56.8 -8.07 56.78 -8.14267 56.76552 C -8.22 56.75 -8.3 56.73 -8.37152 56.70646 C -8.45 56.69 -8.52 56.67 -8.60001 56.64559 C -8.67 56.63 -8.73 56.61 -8.79573 56.59198 C -8.86 56.57 -8.93 56.56 -8.9912 56.53714 C -9.12 56.5 -9.25 56.46 -9.38138 56.4239 C -9.51 56.39 -9.64 56.35 -9.77058 56.30618 C -9.9 56.27 -10.03 56.23 -10.15883 56.18429 C -10.29 56.14 -10.42 56.1 -10.54619 56.05848 C -10.68 56.02 -10.8 55.97 -10.93269 55.92903 C -11.06 55.89 -11.19 55.84 -11.31836 55.79616 C -11.45 55.75 -11.58 55.71 -11.70324 55.66009 C -11.83 55.61 -11.96 55.57 -12.08736 55.52105 C -12.22 55.47 -12.34 55.43 -12.47076 55.37922 C -12.6 55.33 -12.73 55.28 -12.85347 55.23478 C -12.98 55.19 -13.11 55.14 -13.23553 55.08791 C -13.36 55.04 -13.49 54.99 -13.61697 54.93876 C -13.74 54.89 -13.87 54.84 -13.99783 54.78748 C -14.12 54.74 -14.25 54.69 -14.37814 54.6342 C -14.5 54.58 -14.63 54.53 -14.75794 54.47906" />
    <path d="M -146.14941 2.31519 L -146.14941 40.09469" />
    <path d="M -166.96761 0.04386 L -166.96761 36.78982" />
    <path d="M -145.78294 2.35518 L -145.78294 39.89734" />
    <path d="M -171.16422 43.0587 A 4.25 0.562 195.4293 0 1 -169.77371 43.89414 A 4.25 0.562 195.4293 1 1 -177.96737 41.63272 A 4.25 0.562 195.4293 0 1 -171.16422 43.0587 Z" />
    <path d="M 0.01867 20.03949 L 26.23418 18.08867" />
    <path d="M -21.63189 17.67735 L 0.01867 20.03949 L 0.01867 0.12084" />
    <path d="M -19.45302 52.3952 C -19.49 52.39 -19.52 52.39 -19.54893 52.38497 C -19.58 52.38 -19.61 52.38 -19.64014 52.3757 C -19.67 52.37 -19.7 52.37 -19.72658 52.36742 C -19.75 52.36 -19.78 52.36 -19.80816 52.36014 C -19.83 52.36 -19.86 52.36 -19.88479 52.35388 C -19.91 52.35 -19.93 52.35 -19.95635 52.34867 C -19.98 52.35 -20 52.35 -20.02273 52.34454 C -20.04 52.34 -20.06 52.34 -20.0838 52.34153 C -20.1 52.34 -20.12 52.34 -20.13941 52.33967 C -20.16 52.34 -20.17 52.34 -20.18943 52.33901 C -20.21 52.34 -20.22 52.34 -20.23368 52.3396 C -20.25 52.34 -20.26 52.34 -20.27202 52.34149 C -20.28 52.34 -20.29 52.34 -20.30426 52.34474 C -20.31 52.35 -20.32 52.35 -20.33022 52.34941 C -20.34 52.35 -20.34 52.35 -20.34971 52.35555 C -20.36 52.36 -20.36 52.36 -20.36253 52.36326 C -20.36 52.37 -20.37 52.37 -20.36725 52.36929 C -20.37 52.37 -20.37 52.37 -20.36885 52.37608 L -20.36885 17.81515" />
    <path d="M -20.36885 52.37608 C -20.37 52.38 -20.37 52.38 -20.36431 52.38916 C -20.36 52.39 -20.36 52.4 -20.35049 52.4045 C -20.34 52.41 -20.34 52.42 -20.32706 52.4222 C -20.32 52.43 -20.31 52.44 -20.29371 52.44238 C -20.29 52.45 -20.28 52.45 -20.27322 52.45343 C -20.27 52.46 -20.26 52.46 -20.25013 52.46513 C -20.24 52.47 -20.23 52.47 -20.22442 52.4775 C -20.22 52.48 -20.21 52.49 -20.19605 52.49055 C -20.19 52.5 -20.18 52.5 -20.16499 52.50429 C -20.15 52.51 -20.14 52.51 -20.1312 52.51872 C -20.12 52.52 -20.11 52.53 -20.09468 52.53386 C -20.08 52.54 -20.07 52.54 -20.05539 52.54972 C -20.04 52.55 -20.03 52.56 -20.02097 52.5633 C -20.01 52.57 -20 52.57 -19.98467 52.57737 C -19.97 52.58 -19.96 52.59 -19.94647 52.59192 C -19.93 52.6 -19.92 52.6 -19.90639 52.60697 C -19.89 52.61 -19.88 52.62 -19.86442 52.6225 C -19.85 52.63 -19.84 52.63 -19.82056 52.63851 C -19.81 52.64 -19.79 52.65 -19.77484 52.65499 C -19.76 52.66 -19.74 52.67 -19.72726 52.67196 C -19.71 52.68 -19.69 52.68 -19.67784 52.68939 C -19.66 52.7 -19.64 52.7 -19.62659 52.70728 C -19.61 52.71 -19.59 52.72 -19.57355 52.72562 C -19.56 52.73 -19.54 52.74 -19.51873 52.74441 C -19.5 52.75 -19.48 52.76 -19.46217 52.76362 C -19.44 52.77 -19.42 52.78 -19.40391 52.78326 C -19.38 52.79 -19.36 52.8 -19.34398 52.8033 C -19.32 52.81 -19.3 52.82 -19.28244 52.82374" />
    <path d="M 172.59891 18.99528 C 172.57 18.99 172.54 18.99 172.51449 18.9848 C 172.49 18.98 172.46 18.98 172.42692 18.97145 C 172.4 18.97 172.37 18.96 172.33629 18.95524 C 172.31 18.95 172.27 18.94 172.24272 18.93618 C 172.21 18.93 172.18 18.92 172.14629 18.91428 C 172.11 18.91 172.08 18.9 172.04714 18.88956 C 172.01 18.88 171.98 18.87 171.94536 18.86202 C 171.91 18.85 171.88 18.84 171.84109 18.83168 C 171.81 18.82 171.77 18.81 171.73444 18.79856 C 171.7 18.79 171.66 18.78 171.62554 18.76267 C 171.59 18.75 171.55 18.74 171.51454 18.72404 C 171.48 18.71 171.44 18.7 171.40156 18.68267 C 171.36 18.67 171.33 18.65 171.28675 18.63861 C 171.25 18.62 171.21 18.61 171.17026 18.59187 C 171.13 18.58 171.09 18.56 171.05224 18.54248 C 171.01 18.53 170.97 18.51 170.93285 18.49049 C 170.88 18.47 170.84 18.45 170.78689 18.4242 C 170.74 18.4 170.69 18.38 170.63945 18.35423 C 170.59 18.33 170.54 18.31 170.49082 18.28068 C 170.44 18.26 170.39 18.23 170.3413 18.20364 C 170.29 18.18 170.24 18.15 170.19118 18.12322 C 170.14 18.1 170.09 18.07 170.04076 18.03955 C 169.99 18.01 169.94 17.98 169.89031 17.95273 C 169.84 17.92 169.79 17.89 169.74011 17.86292 C 169.69 17.83 169.64 17.8 169.58707 17.76811 C 169.54 17.74 169.49 17.7 169.43486 17.67047 C 169.38 17.64 169.33 17.6 169.28374 17.57015 C 169.23 17.54 169.18 17.5 169.13395 17.46732 C 168.94 17.33 168.74 17.18 168.55252 17.03417 C 168.03 16.62 167.57 16.18 167.16629 15.73257 C 167.1 15.66 167.03 15.58 166.96761 15.50436 C 166.88 15.4 166.79 15.29 166.69447 15.17807 C 166.6 15.07 166.51 14.96 166.42357 14.84868 C 166.33 14.74 166.24 14.63 166.15481 14.5164 C 166.07 14.41 165.98 14.29 165.88807 14.18142 C 165.8 14.07 165.71 13.96 165.62323 13.84391 C 165.54 13.73 165.45 13.62 165.36019 13.50404 C 165.27 13.39 165.19 13.28 165.09886 13.16197 C 165.01 13.05 164.93 12.93 164.83914 12.81785 C 164.75 12.7 164.67 12.59 164.58094 12.4718 C 164.5 12.36 164.41 12.24 164.32418 12.12396 C 164.24 12.01 164.15 11.89 164.06878 11.77444 C 163.98 11.66 163.9 11.54 163.81466 11.42334 C 163.73 11.31 163.65 11.19 163.56175 11.07078 C 163.48 10.95 163.39 10.84 163.30998 10.71685 C 163.23 10.6 163.14 10.48 163.05928 10.36162 C 162.98 10.24 162.89 10.12 162.80958 10.00517 C 162.74 9.91 162.67 9.81 162.60211 9.709 C 162.53 9.61 162.46 9.51 162.39381 9.41383 C 162.32 9.32 162.25 9.22 162.18465 9.11972 C 162.11 9.02 162.04 8.92 161.97459 8.82671" />
    <path d="M 189.25495 17.93598 C 189.16 17.83 189.07 17.72 188.98181 17.60969 C 188.89 17.5 188.8 17.39 188.71092 17.2803 C 188.62 17.17 188.53 17.06 188.44216 16.94802 C 188.35 16.84 188.26 16.73 188.17541 16.61304 C 188.09 16.5 188 16.39 187.91057 16.27553 C 187.82 16.16 187.73 16.05 187.64753 15.93566 C 187.56 15.82 187.47 15.71 187.3862 15.59359 C 187.3 15.48 187.21 15.36 187.12648 15.24947 C 187.04 15.13 186.95 15.02 186.86828 14.90342 C 186.78 14.79 186.7 14.67 186.61153 14.55558 C 186.53 14.44 186.44 14.32 186.35613 14.20606 C 186.27 14.09 186.19 13.97 186.10201 13.85496 C 186.02 13.74 185.93 13.62 185.8491 13.5024 C 185.76 13.38 185.68 13.27 185.59733 13.14847 C 185.51 13.03 185.43 12.91 185.34663 12.79324 C 185.26 12.67 185.18 12.56 185.09693 12.43679 L 162.80958 10.00517" />
    <path d="M 189.62142 18.38511 C 189.56 18.31 189.5 18.24 189.43762 18.16141 C 189.38 18.09 189.32 18.01 189.25495 17.93598" />
    <path d="M 189.62142 18.38511 C 189.64 18.41 189.66 18.43 189.67769 18.4572 C 189.7 18.48 189.71 18.51 189.73288 18.52886 C 189.75 18.55 189.77 18.58 189.78696 18.60006 C 189.8 18.62 189.82 18.65 189.83988 18.67077 C 189.87 18.72 189.91 18.76 189.94216 18.8106 C 189.98 18.86 190.01 18.9 190.03944 18.94811 C 190.07 18.99 190.1 19.04 190.13143 19.08304 C 190.16 19.13 190.19 19.17 190.21783 19.21511 C 190.25 19.26 190.27 19.3 190.29832 19.34406 C 190.32 19.39 190.35 19.43 190.37259 19.4696 C 190.4 19.51 190.42 19.55 190.43831 19.58776 C 190.46 19.63 190.48 19.66 190.49757 19.70217 C 190.52 19.74 190.53 19.78 190.55006 19.81257 C 190.57 19.85 190.58 19.88 190.5955 19.9187 C 190.6 19.94 190.61 19.95 190.61635 19.97242 C 190.62 19.99 190.63 20.01 190.63516 20.02486 C 190.64 20.04 190.65 20.06 190.65189 20.07599 C 190.66 20.09 190.66 20.11 190.66649 20.12578 C 190.67 20.14 190.68 20.16 190.67894 20.17419 C 190.68 20.19 190.69 20.21 190.6892 20.22118 C 190.69 20.24 190.69 20.25 190.69725 20.26674 C 190.7 20.28 190.7 20.3 190.70305 20.31082 C 190.7 20.33 190.71 20.34 190.70663 20.35421 C 190.71 20.37 190.71 20.38 190.70783 20.39601 L 190.70783 4.12179" />
    <path d="M 190.70783 20.39601 C 190.71 20.41 190.71 20.42 190.7069 20.43144 C 190.71 20.44 190.71 20.45 190.7041 20.46561 C 190.7 20.48 190.7 20.49 190.69942 20.4985 C 190.7 20.51 190.7 20.52 190.69284 20.53011 C 190.69 20.54 190.69 20.55 190.68438 20.56041 C 190.68 20.57 190.68 20.58 190.674 20.58941 C 190.67 20.6 190.67 20.61 190.66173 20.61708 C 190.66 20.63 190.65 20.63 190.64754 20.64341 C 190.64 20.66 190.63 20.67 190.62337 20.67951 C 190.61 20.69 190.61 20.7 190.59512 20.71271 C 190.59 20.72 190.57 20.73 190.56281 20.74302 C 190.55 20.75 190.54 20.76 190.52647 20.7704 C 190.51 20.78 190.5 20.79 190.48612 20.79486 C 190.47 20.8 190.46 20.81 190.44181 20.81639 C 190.43 20.82 190.41 20.83 190.39356 20.83499 C 190.38 20.84 190.36 20.85 190.34143 20.85065 C 190.32 20.86 190.3 20.86 190.28547 20.86339 C 190.27 20.87 190.25 20.87 190.22574 20.8732 C 190.21 20.88 190.18 20.88 190.1623 20.8801 C 190.14 20.88 190.12 20.88 190.09522 20.88409 C 190.07 20.88 190.05 20.89 190.02457 20.88517 C 190 20.89 189.98 20.88 189.95043 20.88336 C 189.93 20.88 189.9 20.88 189.87288 20.87867 C 189.85 20.88 189.82 20.87 189.79201 20.8711" />
    <path d="M 189.62142 4.20263 L 189.62142 18.38511" />
    <path d="M 337.50528 34.31709 C 337.53 34.35 337.56 34.38 337.59467 34.41554 C 337.62 34.45 337.66 34.48 337.68615 34.51378 C 337.72 34.55 337.75 34.58 337.7797 34.61175 C 337.81 34.64 337.84 34.68 337.87528 34.7094 C 337.91 34.74 337.94 34.77 337.97286 34.80665 C 338.01 34.84 338.04 34.87 338.07243 34.90345 C 338.11 34.94 338.14 34.97 338.17394 34.99973 C 338.21 35.03 338.24 35.06 338.27734 35.09541 C 338.31 35.12 338.34 35.15 338.36773 35.17715 C 338.4 35.2 338.43 35.23 338.45947 35.25835 C 338.49 35.29 338.52 35.31 338.55251 35.33898 C 338.58 35.37 338.62 35.39 338.64683 35.41897 C 338.68 35.45 338.71 35.47 338.74239 35.49827 C 338.77 35.52 338.81 35.55 338.83913 35.57685 C 338.87 35.6 338.9 35.63 338.937 35.65463 C 338.97 35.68 339 35.71 339.03597 35.73158 C 339.07 35.76 339.1 35.78 339.13598 35.80763 C 339.17 35.83 339.2 35.86 339.23695 35.88273 C 339.27 35.91 339.3 35.93 339.33885 35.95683 C 339.37 35.98 339.41 36.01 339.44159 36.02988 C 339.48 36.05 339.51 36.08 339.5451 36.10181 C 339.58 36.13 339.61 36.15 339.64932 36.17258 C 339.68 36.2 339.72 36.22 339.75417 36.24212 C 339.79 36.27 339.82 36.29 339.85956 36.31039 C 339.89 36.33 339.92 36.35 339.94699 36.3658 C 339.98 36.38 340.01 36.4 340.03469 36.42027 C 340.09 36.46 340.15 36.49 340.21066 36.52628 C 340.33 36.6 340.45 36.66 340.56335 36.72578 C 340.8 36.85 341.03 36.97 341.25879 37.0692 C 341.9 37.36 342.49 37.53 342.9379 37.5798 L 360.13099 39.45562" />
    <path d="M 338.57705 -5.28292 L 338.57705 19.3615" />
    <path d="M 333.14443 19.78888 C 333.18 19.79 333.22 19.8 333.26151 19.80029 C 333.3 19.8 333.34 19.81 333.38455 19.80962 C 333.47 19.82 333.56 19.82 333.64821 19.82204 C 333.69 19.82 333.74 19.82 333.78868 19.82513 C 333.84 19.83 333.89 19.83 333.93478 19.82614 C 333.98 19.83 334.03 19.83 334.08644 19.82506 C 334.14 19.82 334.19 19.82 334.24357 19.82191 C 334.3 19.82 334.35 19.82 334.40608 19.81669 C 334.46 19.81 334.52 19.81 334.57388 19.80943 C 334.63 19.81 334.69 19.8 334.74685 19.80013 C 334.81 19.8 334.86 19.79 334.9249 19.78884 C 334.99 19.78 335.05 19.78 335.10792 19.77558 C 335.17 19.77 335.23 19.77 335.29579 19.76039 C 335.36 19.76 335.42 19.75 335.4884 19.74332 C 335.55 19.74 335.62 19.73 335.68564 19.72443 C 335.73 19.72 335.77 19.72 335.8134 19.71149 C 335.86 19.71 335.9 19.7 335.94286 19.69788 C 335.99 19.69 336.03 19.69 336.07397 19.6836 C 336.12 19.68 336.16 19.67 336.20665 19.66869 C 336.25 19.66 336.3 19.66 336.3408 19.65318 C 336.39 19.65 336.43 19.64 336.47632 19.6371 C 336.52 19.63 336.57 19.63 336.61311 19.62049 C 336.66 19.61 336.7 19.61 336.75103 19.6034 C 336.79 19.6 336.82 19.59 336.85354 19.59049 C 336.89 19.59 336.92 19.58 336.95652 19.57737 C 336.99 19.57 337.03 19.57 337.05989 19.56404 C 337.09 19.56 337.13 19.56 337.16357 19.55055 C 337.23 19.54 337.3 19.53 337.37152 19.52315 C 337.44 19.51 337.51 19.5 337.57954 19.4954 C 337.92 19.45 338.26 19.4 338.57705 19.3615" />
    <path d="M 24.55604 58.48186 C 24.57 58.47 24.59 58.46 24.60964 58.44914 C 24.63 58.44 24.64 58.43 24.66186 58.41616 C 24.68 58.41 24.7 58.39 24.71268 58.38293 C 24.73 58.37 24.75 58.36 24.76211 58.34948 C 24.78 58.34 24.79 58.33 24.81013 58.31583 C 24.83 58.3 24.84 58.29 24.85673 58.28201 C 24.87 58.27 24.89 58.26 24.90192 58.24804 C 24.92 58.24 24.93 58.23 24.94569 58.21395 C 24.96 58.2 24.97 58.19 24.98804 58.17976 C 25 58.17 25.02 58.16 25.02899 58.14548 C 25.06 58.12 25.08 58.1 25.10664 58.07678 C 25.13 58.05 25.16 58.03 25.17869 58.00801 C 25.2 57.99 25.22 57.96 25.2452 57.93934 C 25.26 57.92 25.27 57.91 25.2883 57.89164 C 25.3 57.88 25.32 57.86 25.32877 57.8441 C 25.34 57.83 25.35 57.81 25.36663 57.79677 C 25.38 57.78 25.39 57.77 25.40192 57.7497 C 25.41 57.73 25.42 57.72 25.43466 57.70293 C 25.45 57.69 25.46 57.67 25.46489 57.6565 C 25.47 57.64 25.48 57.63 25.49263 57.61044 C 25.5 57.6 25.51 57.58 25.51792 57.5648 C 25.53 57.54 25.54 57.52 25.55354 57.49232 C 25.56 57.47 25.57 57.44 25.58299 57.42115 C 25.59 57.4 25.6 57.37 25.60641 57.35143 C 25.61 57.33 25.62 57.31 25.62391 57.28329 C 25.63 57.25 25.63 57.23 25.63785 57.19839 C 25.64 57.17 25.64 57.14 25.64245 57.11654 L 25.64245 18.1327" />
    <path d="M 24.55604 18.21355 L 24.55604 58.48186 C 24.5 58.52 24.43 58.55 24.37325 58.58233 C 24.31 58.62 24.25 58.65 24.18958 58.67921 C 24.11 58.72 24.02 58.76 23.9409 58.7962 C 23.86 58.83 23.77 58.87 23.69082 58.90715 C 23.61 58.94 23.52 58.98 23.43941 59.01199 C 23.36 59.05 23.27 59.08 23.18677 59.11065 C 23.14 59.13 23.08 59.15 23.03199 59.16782 C 22.98 59.19 22.93 59.2 22.8768 59.22267 C 22.83 59.24 22.77 59.26 22.72123 59.27519 C 22.67 59.29 22.62 59.31 22.56529 59.32538 C 22.51 59.34 22.46 59.36 22.40903 59.37324 C 22.36 59.39 22.3 59.4 22.25245 59.41877 C 22.2 59.43 22.15 59.45 22.09558 59.46198 C 22.04 59.48 21.99 59.49 21.93844 59.50288 C 21.89 59.52 21.83 59.53 21.78106 59.54148 C 21.73 59.55 21.68 59.57 21.62345 59.57779 C 21.57 59.59 21.52 59.6 21.46564 59.61182 C 21.41 59.62 21.36 59.63 21.30765 59.64359 C 21.25 59.65 21.2 59.66 21.1495 59.67313 C 21.1 59.68 21.04 59.69 20.99121 59.70045 C 20.94 59.71 20.89 59.72 20.83279 59.72558 C 20.78 59.73 20.73 59.74 20.67427 59.74853 C 20.62 59.76 20.57 59.76 20.51566 59.76935 C 20.46 59.78 20.41 59.78 20.35699 59.78804 C 20.25 59.8 20.15 59.81 20.03951 59.81921 C 19.93 59.83 19.83 59.84 19.72195 59.84226 C 19.62 59.85 19.51 59.85 19.40445 59.85747 C 19.3 59.86 19.19 59.86 19.08713 59.86509 C 18.98 59.87 18.88 59.87 18.77008 59.86542 C 18.66 59.86 18.56 59.86 18.45341 59.85874 C 18.35 59.86 18.24 59.85 18.13722 59.84532 C 17.83 59.83 17.52 59.8 17.21645 59.77029 L 1.77767 58.08587" />
    <path d="M 315.95134 17.91306 C 315.93 17.91 315.91 17.91 315.88488 17.90533 C 315.86 17.9 315.84 17.9 315.82062 17.89688 C 315.8 17.89 315.78 17.89 315.75858 17.88771 C 315.74 17.88 315.72 17.88 315.6988 17.87784 C 315.68 17.87 315.66 17.87 315.6413 17.86725 C 315.62 17.86 315.6 17.86 315.58612 17.85596 C 315.57 17.85 315.55 17.85 315.53329 17.84398 C 315.52 17.84 315.5 17.84 315.48285 17.8313 C 315.47 17.83 315.45 17.82 315.43483 17.81794 C 315.42 17.81 315.4 17.81 315.38928 17.8039 C 315.37 17.8 315.36 17.79 315.34624 17.78918 C 315.33 17.78 315.32 17.78 315.30574 17.77381 C 315.29 17.77 315.28 17.76 315.26784 17.75777 C 315.26 17.75 315.24 17.75 315.23258 17.7411 C 315.22 17.74 315.21 17.73 315.20002 17.72378 C 315.19 17.72 315.18 17.71 315.1702 17.70584 C 315.16 17.7 315.15 17.69 315.1395 17.68455 C 315.13 17.68 315.12 17.67 315.11258 17.66249 C 315.1 17.66 315.1 17.65 315.08951 17.63966 C 315.08 17.63 315.08 17.62 315.07038 17.6161 C 315.06 17.61 315.06 17.6 315.05531 17.59183 C 315.05 17.58 315.05 17.58 315.0444 17.56687 C 315.04 17.56 315.04 17.55 315.03776 17.54126 C 315.04 17.53 315.04 17.52 315.03552 17.51504 L 315.03552 -5.13002" />
    <path d="M 333.14857 28.58969 C 333.08 28.49 333.01 28.39 332.94109 28.29352 C 332.87 28.19 332.8 28.1 332.73279 27.99835 C 332.66 27.9 332.59 27.8 332.52364 27.70424 C 332.45 27.61 332.38 27.51 332.31358 27.41123" />
    <path d="M 328.65363 22.77222 C 328.59 22.7 328.53 22.63 328.46503 22.56155 C 328.4 22.49 328.34 22.42 328.27519 22.35273 C 328.21 22.28 328.15 22.21 328.08406 22.14583 C 328.02 22.08 327.96 22.01 327.89159 21.94095 C 327.83 21.88 327.77 21.81 327.71107 21.75198 C 327.65 21.69 327.59 21.63 327.52933 21.56493 C 327.47 21.5 327.41 21.44 327.34635 21.37987 C 327.29 21.32 327.22 21.26 327.1621 21.19688 C 327.1 21.14 327.04 21.08 326.97653 21.01605 C 326.91 20.96 326.85 20.9 326.78963 20.83748 C 326.73 20.78 326.66 20.72 326.60135 20.66125 C 326.54 20.6 326.48 20.54 326.41168 20.48746 C 326.35 20.43 326.28 20.37 326.22057 20.31622 C 326.16 20.26 326.09 20.2 326.02801 20.14762 C 325.96 20.09 325.9 20.04 325.83396 19.98178 C 325.77 19.93 325.7 19.87 325.63839 19.81881 C 325.57 19.76 325.51 19.71 325.44129 19.65882 C 325.38 19.61 325.31 19.55 325.24263 19.50192 C 325.18 19.45 325.11 19.4 325.04238 19.34825 C 324.98 19.3 324.91 19.25 324.84052 19.1979 C 324.75 19.13 324.67 19.07 324.57679 19.00843 C 324.49 18.95 324.4 18.89 324.31031 18.82505" />
    <path d="M 337.30659 34.08888 C 337.22 33.98 337.12 33.87 337.03345 33.76259 C 336.94 33.65 336.85 33.54 336.76256 33.4332 C 336.67 33.32 336.58 33.21 336.4938 33.10092 C 336.4 32.99 336.32 32.88 336.22705 32.76594 C 336.14 32.65 336.05 32.54 335.96221 32.42843 C 335.87 32.32 335.79 32.2 335.69918 32.08856 C 335.61 31.97 335.52 31.86 335.43784 31.74649 C 335.35 31.63 335.26 31.52 335.17812 31.40237 C 335.09 31.29 335.01 31.17 334.91993 31.05632 C 334.83 30.94 334.75 30.82 334.66317 30.70848 C 334.58 30.59 334.49 30.48 334.40777 30.35895 C 334.32 30.24 334.24 30.13 334.15365 30.00786 C 334.07 29.89 333.98 29.77 333.90074 29.6553 C 333.82 29.54 333.73 29.42 333.64897 29.30137 C 333.57 29.18 333.48 29.06 333.39827 28.94614 C 333.31 28.83 333.23 28.71 333.14857 28.58969" />
    <path d="M 315.95134 17.91306 L 333.14443 19.78888" />
    <path d="M -6.2282 55.14404 C -6.23 55.14 -6.22 55.13 -6.22199 55.12855 C -6.22 55.12 -6.22 55.12 -6.21232 55.11423 C -6.21 55.11 -6.2 55.11 -6.19926 55.10106 C -6.19 55.1 -6.19 55.09 -6.18291 55.089 C -6.17 55.08 -6.17 55.08 -6.15516 55.0742 C -6.14 55.07 -6.13 55.07 -6.12152 55.06142 C -6.11 55.06 -6.1 55.05 -6.08218 55.05061 C -6.07 55.05 -6.05 55.04 -6.03732 55.04172 C -6.03 55.04 -6.01 55.04 -6.0028 55.03663 C -5.99 55.04 -5.98 55.03 -5.96573 55.03243 C -5.95 55.03 -5.94 55.03 -5.92615 55.02912 C -5.91 55.03 -5.9 55.03 -5.8841 55.02668 C -5.87 55.03 -5.85 55.03 -5.83964 55.02509 C -5.82 55.02 -5.81 55.02 -5.7928 55.02436 C -5.78 55.02 -5.76 55.02 -5.74362 55.02446 C -5.73 55.02 -5.71 55.02 -5.69215 55.02539 C -5.67 55.03 -5.66 55.03 -5.63842 55.02714 C -5.62 55.03 -5.6 55.03 -5.58247 55.0297 C -5.56 55.03 -5.54 55.03 -5.52432 55.03306 C -5.5 55.03 -5.48 55.04 -5.46401 55.03722 C -5.44 55.04 -5.42 55.04 -5.40157 55.04217 C -5.38 55.04 -5.36 55.05 -5.33703 55.04791 C -5.32 55.05 -5.29 55.05 -5.27041 55.05443 C -5.25 55.06 -5.22 55.06 -5.20173 55.06172 C -5.16 55.07 -5.11 55.07 -5.0632 55.07803 C -5.02 55.08 -4.97 55.09 -4.91726 55.09722 C -4.82 55.11 -4.71 55.13 -4.60366 55.14427 C -4.39 55.18 -4.15 55.22 -3.89311 55.27349 C -3.7 55.31 -3.5 55.36 -3.28461 55.40383 C -2.67 55.54 -1.97 55.73 -1.2416 55.95374 C -1.21 55.96 -1.18 55.97 -1.15115 55.98215 C -1.12 55.99 -1.09 56 -1.06053 56.01089 C -1.03 56.02 -1 56.03 -0.96982 56.03994 C -0.94 56.05 -0.91 56.06 -0.87906 56.06929 C -0.85 56.08 -0.82 56.09 -0.78833 56.09891 C -0.76 56.11 -0.73 56.12 -0.69771 56.12879 C -0.67 56.14 -0.64 56.15 -0.60728 56.1589 C -0.58 56.17 -0.55 56.18 -0.51712 56.18922 C -0.47 56.21 -0.42 56.22 -0.37352 56.23814 C -0.33 56.25 -0.28 56.27 -0.23122 56.28741 C -0.18 56.3 -0.14 56.32 -0.09062 56.33689 C -0.04 56.35 0 56.37 0.04784 56.38644 C 0.09 56.4 0.14 56.42 0.18371 56.43592 C 0.23 56.45 0.27 56.47 0.31658 56.48517 C 0.36 56.5 0.4 56.52 0.446 56.53403 C 0.49 56.55 0.53 56.57 0.57155 56.58233" />
    <path d="M -19.45302 52.3952 L -2.25993 54.27102 C -2.23 54.27 -2.19 54.28 -2.16012 54.28214 C -2.13 54.29 -2.09 54.29 -2.05591 54.29418 C -2.02 54.3 -1.98 54.3 -1.94737 54.30716 C -1.91 54.31 -1.87 54.32 -1.83454 54.32106 C -1.8 54.33 -1.76 54.33 -1.7175 54.3359 C -1.68 54.34 -1.64 54.35 -1.59629 54.35169 C -1.56 54.36 -1.51 54.36 -1.47098 54.36843 C -1.43 54.37 -1.39 54.38 -1.34162 54.38614 C -1.3 54.39 -1.25 54.4 -1.2083 54.40483 C -1.16 54.41 -1.12 54.42 -1.07106 54.42453 C -1.02 54.43 -0.98 54.44 -0.92999 54.44525 C -0.88 54.45 -0.83 54.46 -0.78515 54.46703 C -0.74 54.47 -0.69 54.48 -0.63664 54.48988 C -0.59 54.5 -0.54 54.51 -0.48452 54.51385 C -0.43 54.52 -0.38 54.53 -0.32889 54.53896 C -0.28 54.55 -0.22 54.56 -0.16984 54.56526 C -0.13 54.57 -0.09 54.58 -0.04754 54.58592 C -0.01 54.59 0.03 54.6 0.07657 54.60728 C 0.12 54.61 0.16 54.62 0.20242 54.62936 C 0.24 54.64 0.29 54.64 0.32993 54.65218 C 0.37 54.66 0.42 54.67 0.45902 54.67574 C 0.5 54.68 0.55 54.69 0.58961 54.70006 C 0.63 54.71 0.68 54.72 0.72157 54.72515 C 0.77 54.73 0.81 54.74 0.85481 54.75102 C 0.89 54.76 0.93 54.77 0.96606 54.77305 C 1 54.78 1.04 54.79 1.07801 54.79562 C 1.12 54.8 1.15 54.81 1.19058 54.81873 C 1.23 54.83 1.27 54.83 1.30368 54.84238 C 1.45 54.87 1.61 54.91 1.75911 54.94231 C 2.25 55.05 2.74 55.18 3.17269 55.31253" />
    <path d="M 3.37137 55.37433 C 3.31 55.35 3.24 55.33 3.17269 55.31253" />
    <path d="M 7.5294 56.91068 C 7.44 56.88 7.36 56.84 7.27199 56.80541 C 7.19 56.77 7.1 56.74 7.01429 56.70114 C 6.93 56.67 6.84 56.63 6.7563 56.59793 C 6.67 56.56 6.58 56.53 6.49801 56.49581 C 6.41 56.46 6.33 56.43 6.2394 56.39483 C 6.15 56.36 6.07 56.33 5.98048 56.29504 C 5.89 56.26 5.81 56.23 5.72122 56.19648 C 5.63 56.16 5.55 56.13 5.46162 56.09921 C 5.38 56.07 5.29 56.04 5.20168 56.00327 C 5.11 55.97 5.03 55.94 4.94137 55.90874 C 4.85 55.88 4.77 55.85 4.68069 55.81566 C 4.59 55.78 4.51 55.75 4.41963 55.7241 C 4.33 55.69 4.25 55.66 4.15818 55.63412 C 4.07 55.6 3.98 55.57 3.89632 55.54578 C 3.81 55.52 3.72 55.49 3.63406 55.45916 C 3.55 55.43 3.46 55.4 3.37137 55.37433" />
    <path d="M 17.21645 59.77029 C 17.14 59.76 17.07 59.75 16.99337 59.74453 C 16.92 59.74 16.84 59.73 16.7706 59.71603 C 16.7 59.71 16.62 59.7 16.54815 59.68487 C 16.47 59.67 16.4 59.66 16.32604 59.65116 C 16.25 59.64 16.18 59.63 16.10426 59.61498 C 16.03 59.6 15.96 59.59 15.88282 59.57642 C 15.81 59.56 15.74 59.55 15.66173 59.53556 C 15.59 59.52 15.51 59.51 15.44098 59.49249 C 15.37 59.48 15.29 59.46 15.22058 59.44728 C 15.15 59.43 15.07 59.42 15.00053 59.40001 C 14.93 59.38 14.85 59.37 14.78083 59.35076 C 14.71 59.33 14.63 59.32 14.56146 59.2996 C 14.49 59.28 14.42 59.26 14.34244 59.2466 C 14.27 59.23 14.2 59.21 14.12374 59.19182 C 14.05 59.17 13.98 59.15 13.90538 59.13534 C 13.83 59.12 13.76 59.1 13.68734 59.07721 C 13.62 59.06 13.56 59.04 13.49161 59.0236 C 13.43 59.01 13.36 58.99 13.29614 58.96875 C 13.17 58.93 13.04 58.89 12.90597 58.85552 C 12.78 58.82 12.65 58.78 12.51677 58.7378 C 12.39 58.7 12.26 58.66 12.12851 58.61591 C 12 58.57 11.87 58.53 11.74115 58.4901 C 11.61 58.45 11.48 58.4 11.35465 58.36065 C 11.23 58.32 11.1 58.27 10.96898 58.22778 C 10.84 58.18 10.71 58.14 10.5841 58.09171 C 10.46 58.05 10.33 58 10.19998 57.95267 C 10.07 57.91 9.94 57.86 9.81658 57.81084 C 9.69 57.76 9.56 57.71 9.43387 57.6664 C 9.31 57.62 9.18 57.57 9.05181 57.51953 C 8.54 57.32 8.04 57.12 7.5294 56.91068 L -1.2416 55.95374" />
    <path d="M 1.98041 57.35127 C 1.98 57.35 1.98 57.34 1.98205 57.33371 C 1.98 57.33 1.98 57.32 1.97879 57.31765 C 1.98 57.31 1.97 57.31 1.97118 57.30028 C 1.97 57.29 1.96 57.29 1.95909 57.28158 C 1.95 57.28 1.95 57.27 1.9424 57.26151 C 1.94 57.25 1.93 57.25 1.92096 57.24003 C 1.91 57.23 1.9 57.22 1.89466 57.21711 C 1.89 57.21 1.87 57.2 1.86334 57.19271 C 1.85 57.18 1.84 57.18 1.82687 57.16682 C 1.82 57.16 1.81 57.15 1.79644 57.14664 C 1.79 57.14 1.77 57.13 1.76306 57.1256 C 1.75 57.12 1.74 57.11 1.72667 57.10371 C 1.71 57.1 1.7 57.09 1.68725 57.08096 C 1.67 57.07 1.66 57.07 1.64473 57.05734 C 1.63 57.05 1.61 57.04 1.59909 57.03285 C 1.58 57.02 1.57 57.02 1.5503 57.00749 C 1.53 57 1.52 56.99 1.49832 56.98126 C 1.48 56.97 1.47 56.97 1.45488 56.95987 C 1.44 56.95 1.42 56.95 1.40942 56.93795 C 1.39 56.93 1.38 56.92 1.36194 56.9155 C 1.35 56.91 1.33 56.9 1.31246 56.89253 C 1.3 56.88 1.28 56.88 1.26099 56.86906 C 1.24 56.86 1.23 56.85 1.20754 56.84509 C 1.19 56.84 1.17 56.83 1.15214 56.82064 C 1.13 56.81 1.11 56.8 1.09481 56.79573 C 1.08 56.79 1.06 56.78 1.03558 56.77038 C 1.02 56.76 1 56.75 0.97448 56.7446 C 0.95 56.74 0.93 56.73 0.91156 56.71842 C 0.89 56.71 0.87 56.7 0.84688 56.69186 C 0.76 56.66 0.67 56.62 0.57155 56.58233" />
    <path d="M 189.25495 4.2299 L 189.25495 17.93598" />
    <path d="M 185.09693 12.43679 C 184.99 12.29 184.89 12.14 184.78773 11.9962 C 184.68 11.85 184.58 11.7 184.47668 11.5579 C 184.37 11.41 184.27 11.27 184.16363 11.12204 C 184.11 11.05 184.06 10.98 184.00631 10.90507 C 183.95 10.83 183.9 10.76 183.84844 10.68879 C 183.8 10.62 183.74 10.54 183.69001 10.4732 C 183.64 10.4 183.58 10.33 183.53098 10.25835 C 183.48 10.19 183.42 10.12 183.37135 10.04424 C 183.32 9.97 183.26 9.9 183.21109 9.83092 C 183.16 9.76 183.1 9.69 183.05018 9.61842 C 183 9.55 182.94 9.48 182.88861 9.40677 C 182.83 9.34 182.78 9.27 182.72635 9.19599 C 182.67 9.13 182.62 9.06 182.56338 8.98613 C 182.51 8.92 182.45 8.85 182.39968 8.77722 C 182.34 8.71 182.29 8.64 182.23523 8.5693 C 182.18 8.5 182.13 8.43 182.07 8.36241 C 182.01 8.29 181.96 8.23 181.90398 8.1566 C 181.85 8.09 181.79 8.02 181.73713 7.9519 C 181.68 7.88 181.63 7.82 181.56944 7.74836 C 181.51 7.68 181.46 7.61 181.40088 7.54602 C 181.34 7.48 181.29 7.41 181.23141 7.34494 C 181.17 7.28 181.12 7.21 181.06102 7.14517 C 181 7.08 180.95 7.01 180.88968 6.94676 C 180.83 6.88 180.77 6.82 180.71736 6.74976 C 180.66 6.68 180.6 6.62 180.54402 6.55424 C 180.49 6.49 180.43 6.42 180.36965 6.36024 C 180.31 6.3 180.25 6.23 180.1942 6.16783 C 180.14 6.1 180.08 6.04 180.01765 5.97708 C 179.96 5.91 179.9 5.85 179.83995 5.78805 C 179.58 5.52 179.32 5.25 179.05439 4.98898" />
    <path d="M 3.17269 19.80478 L 3.17269 55.31253" />
    <path d="M 3.37137 19.79 L 3.37137 55.37433" />
    <path d="M 24.18958 18.24082 L 24.18958 58.67921" />
    <path d="M 337.50528 34.31709 C 337.44 34.24 337.37 34.17 337.30659 34.08888" />
    <path d="M 338.77574 -5.26125 L 338.77574 19.33552 C 338.71 19.34 338.64 19.35 338.57705 19.3615" />
    <path d="M 359.59394 -6.71821 L 359.59394 36.5205 C 359.5 36.41 359.41 36.3 359.32079 36.19421 C 359.23 36.08 359.14 35.98 359.0499 35.86482 C 358.96 35.75 358.87 35.64 358.78114 35.53254 C 358.69 35.42 358.6 35.31 358.5144 35.19756 C 358.43 35.09 358.34 34.97 358.24956 34.86005 C 358.16 34.75 358.07 34.63 357.98652 34.52018 C 357.9 34.41 357.81 34.29 357.72519 34.17811 C 357.64 34.06 357.55 33.95 357.46547 33.83399 C 357.38 33.72 357.29 33.6 357.20727 33.48794 C 357.12 33.37 357.04 33.26 356.95051 33.1401 C 356.87 33.02 356.78 32.91 356.69511 32.79057 C 356.61 32.67 356.53 32.56 356.44099 32.43948 C 356.36 32.32 356.27 32.2 356.18808 32.08692 C 356.1 31.97 356.02 31.85 355.93631 31.73298 C 355.85 31.61 355.77 31.5 355.68561 31.37776 C 355.6 31.26 355.52 31.14 355.43591 31.02131 L 333.14857 28.58969" />
    <path d="M 355.43591 31.02131 C 355.33 30.87 355.23 30.73 355.12672 30.58072 C 355.02 30.43 354.92 30.29 354.81566 30.14242 C 354.71 30 354.61 29.85 354.50261 29.70656 C 354.45 29.63 354.4 29.56 354.3453 29.48959 C 354.29 29.42 354.24 29.35 354.18743 29.27331 C 354.13 29.2 354.08 29.13 354.02899 29.05772 C 353.98 28.99 353.92 28.91 353.86996 28.84286 C 353.82 28.77 353.76 28.7 353.71033 28.62876 C 353.66 28.56 353.6 28.49 353.55007 28.41544 C 353.5 28.34 353.44 28.27 353.38917 28.20294 C 353.34 28.13 353.28 28.06 353.22759 27.99128 C 353.17 27.92 353.12 27.85 353.06533 27.78051 C 353.01 27.71 352.96 27.64 352.90236 27.57065 C 352.85 27.5 352.79 27.43 352.73867 27.36174 C 352.68 27.29 352.63 27.22 352.57421 27.15382 C 352.52 27.08 352.46 27.02 352.40899 26.94693 C 352.35 26.88 352.3 26.81 352.24296 26.74112 C 352.19 26.67 352.13 26.6 352.07612 26.53641 C 352.02 26.47 351.96 26.4 351.90843 26.33287 C 351.85 26.27 351.8 26.2 351.73986 26.13054 C 351.68 26.06 351.63 26 351.5704 25.92946 C 351.51 25.86 351.46 25.8 351.40001 25.72969 C 351.34 25.66 351.29 25.6 351.22866 25.53128 C 351.17 25.47 351.11 25.4 351.05634 25.33428 C 351 25.27 350.94 25.2 350.88301 25.13875 C 350.83 25.07 350.77 25.01 350.70863 24.94476 C 350.65 24.88 350.59 24.82 350.53318 24.75235 C 350.47 24.69 350.42 24.62 350.35663 24.5616 C 350.3 24.5 350.24 24.44 350.17894 24.37257 C 347.72 21.75 344.79 19.62 341.48585 19.29512 C 341.43 19.29 341.37 19.28 341.3176 19.27815 C 341.26 19.27 341.21 19.27 341.14908 19.2639 C 341.09 19.26 341.04 19.26 340.98031 19.25236 C 340.92 19.25 340.87 19.25 340.81133 19.24351 C 340.75 19.24 340.7 19.24 340.64216 19.23731 C 340.59 19.24 340.53 19.23 340.47282 19.23374 C 340.42 19.23 340.36 19.23 340.30334 19.23278 C 340.25 19.23 340.19 19.23 340.13375 19.23439 C 340.08 19.24 340.02 19.24 339.96408 19.23853 C 339.91 19.24 339.85 19.24 339.79433 19.24518 C 339.74 19.25 339.68 19.25 339.62454 19.2543 C 339.57 19.26 339.51 19.26 339.45473 19.26585 C 339.34 19.27 339.23 19.28 339.11515 19.29607 C 339 19.31 338.89 19.32 338.77574 19.33552" />
    <path d="M 359.9604 -6.74548 L 359.9604 36.96963 C 359.98 36.99 360 37.02 360.01661 37.04163 C 360.04 37.07 360.05 37.09 360.07173 37.1132 C 360.09 37.14 360.11 37.16 360.12575 37.18432 C 360.14 37.21 360.16 37.23 360.17861 37.25494 C 360.21 37.3 360.25 37.35 360.28078 37.39461 C 360.31 37.44 360.35 37.49 360.37797 37.53197 C 360.41 37.58 360.44 37.62 360.46988 37.66675 C 360.5 37.71 360.53 37.76 360.55621 37.79868 C 360.58 37.84 360.61 37.89 360.63665 37.9275 C 360.66 37.97 360.69 38.01 360.71088 38.05292 C 360.73 38.09 360.76 38.13 360.77666 38.17109 C 360.8 38.21 360.82 38.25 360.83598 38.28552 C 360.85 38.32 360.87 38.36 360.88853 38.39595 C 360.9 38.43 360.92 38.47 360.93403 38.50211 C 360.94 38.52 360.95 38.54 360.95492 38.55583 C 360.96 38.57 360.97 38.59 360.97377 38.60828 C 360.98 38.63 360.99 38.64 360.99053 38.65942 C 361 38.68 361 38.69 361.00518 38.70922 C 361.01 38.73 361.01 38.74 361.01767 38.75764 C 361.02 38.77 361.02 38.79 361.02798 38.80465 C 361.03 38.82 361.03 38.84 361.03607 38.85022 C 361.04 38.87 361.04 38.88 361.04193 38.89432 C 361.04 38.91 361.04 38.92 361.04559 38.93823 C 361.05 38.95 361.05 38.97 361.04681 38.98052 L 361.04681 -6.82632" />
    <path d="M 359.9604 36.96963 C 359.9 36.9 359.84 36.82 359.7766 36.74592 C 359.72 36.67 359.65 36.6 359.59394 36.5205" />
    <path d="M 361.04681 38.98052 C 361.05 38.99 361.05 39 361.04589 39.01581 C 361.05 39.03 361.04 39.04 361.04311 39.04984 C 361.04 39.06 361.04 39.07 361.03847 39.0826 C 361.04 39.09 361.03 39.1 361.03196 39.11409 C 361.03 39.12 361.03 39.13 361.02356 39.14429 C 361.02 39.15 361.02 39.16 361.01328 39.17319 C 361.01 39.18 361.01 39.19 361.00111 39.20078 C 361 39.21 360.99 39.22 360.98705 39.22704 C 360.98 39.24 360.97 39.25 360.96293 39.26326 C 360.95 39.27 360.94 39.29 360.93473 39.29658 C 360.92 39.31 360.91 39.32 360.90245 39.32698 C 360.89 39.34 360.88 39.35 360.86613 39.35446 C 360.85 39.36 360.84 39.37 360.8258 39.379 C 360.81 39.39 360.8 39.39 360.78148 39.40061 C 360.77 39.41 360.75 39.41 360.73321 39.41928 C 360.72 39.43 360.7 39.43 360.68105 39.435 C 360.66 39.44 360.64 39.44 360.62505 39.44779 C 360.61 39.45 360.59 39.45 360.56527 39.45765 C 360.54 39.46 360.52 39.46 360.50176 39.46458 C 360.48 39.47 360.46 39.47 360.43461 39.46859 C 360.41 39.47 360.39 39.47 360.36387 39.46969 C 360.34 39.47 360.31 39.47 360.28963 39.46789 C 360.26 39.47 360.24 39.47 360.21198 39.46319 C 360.19 39.46 360.16 39.46 360.13099 39.45562" />
    <path d="M 338.26757 21.05437 C 338.27 21.05 338.27 21.04 338.27572 21.02782 C 338.28 21.02 338.28 21.01 338.28184 21.00025 C 338.28 20.99 338.28 20.98 338.28588 20.97165 C 338.29 20.96 338.29 20.95 338.28779 20.94205 C 338.29 20.93 338.29 20.91 338.28692 20.901 C 338.29 20.89 338.28 20.87 338.28205 20.85817 C 338.28 20.84 338.28 20.83 338.27303 20.81358 C 338.27 20.8 338.26 20.78 338.25973 20.76726 C 338.25 20.75 338.25 20.74 338.24201 20.71923 C 338.24 20.7 338.23 20.69 338.21973 20.66952 C 338.21 20.65 338.2 20.64 338.19274 20.61819 C 338.18 20.6 338.17 20.58 338.16089 20.56528 C 338.15 20.55 338.14 20.54 338.1344 20.52556 C 338.13 20.51 338.12 20.5 338.10517 20.48505 C 338.09 20.47 338.08 20.46 338.07315 20.44378 C 338.06 20.43 338.05 20.42 338.03829 20.40178 C 338.03 20.39 338.01 20.37 338.00054 20.35911 C 337.99 20.34 337.97 20.33 337.95986 20.31578 C 337.95 20.3 337.93 20.29 337.91621 20.27186 C 337.9 20.26 337.89 20.24 337.86956 20.22739 C 337.86 20.22 337.84 20.2 337.83197 20.19316 C 337.82 20.18 337.81 20.17 337.79262 20.15867 C 337.78 20.15 337.77 20.14 337.75149 20.12393 C 337.74 20.11 337.72 20.1 337.70858 20.089 C 337.69 20.08 337.68 20.07 337.66391 20.05388 C 337.65 20.04 337.63 20.03 337.61747 20.01863 C 337.6 20.01 337.59 20 337.56929 19.98326 C 337.55 19.97 337.54 19.96 337.51937 19.94782 C 337.38 19.85 337.23 19.76 337.06086 19.66583 C 337.01 19.64 336.96 19.61 336.90557 19.58388" />
    <path d="M -0.82523 61.64322 A 4.25 0.562 195.4293 0 1 0.56527 62.47866 A 4.25 0.562 195.4293 1 1 -7.62838 60.21724 A 4.25 0.562 195.4293 0 1 -0.82523 61.64322 Z" />
    <path d="M 158.82751 7.54982 A 4.25 0.79202 199.37003 0 1 157.54114 6.58988" />
    <path d="M 159.53012 6.44187 A 4.25 0.79202 199.37003 0 1 165.54326 9.25467 A 4.25 0.79202 199.37003 0 1 158.82751 7.54982" />
    <path d="M 329.16649 26.13433 A 4.25 0.79202 199.37003 0 1 327.86338 25.02001 A 4.25 0.79202 199.37003 1 1 335.88224 27.83919 A 4.25 0.79202 199.37003 0 1 329.16649 26.13433 Z" />
    <path d="M -333.14857 19.74164 L -341.91957 18.7847" />
    <path d="M -346.97734 18.23288 L -355.43591 17.31002" />
    <path d="M -360.13099 -19.25397 L -360.13099 15.22616" />
    <path d="M -342.9379 -17.54429 L -342.9379 17.10198" />
    <path d="M -176.63835 36.8174 L -185.09693 35.89454" />
    <path d="M -19.45302 17.91507 L -19.45302 52.3952" />
    <path d="M 333.14443 -6.47759 L 333.14443 19.78888" />
    <path d="M 315.95134 -5.19817 L 315.95134 17.91306" />
    <path d="M -6.29937 55.40192 L -14.75794 54.47906" />
    <path d="M -2.25993 19.79089 L -2.25993 54.27102" />
    <path d="M -346.90616 17.975 L -348.30635 23.0482" />
    <path d="M -338.69756 20.18223 L -340.11269 25.30962" />
    <path d="M -323.46151 22.60125 L -338.9003 20.91683" />
    <path d="M -361.04681 15.20704 L -361.04681 -19.35389" />
    <path d="M -190.70783 33.79156 L -190.70783 -2.54627" />
    <path d="M -176.56718 36.55952 L -177.96737 41.63272" />
    <path d="M -168.35857 38.76675 L -169.77371 43.89414" />
    <path d="M -6.2282 55.14404 L -7.62838 60.21724" />
    <path d="M 1.98041 57.35127 L 0.56527 62.47866" />
    <path d="M 166.72026 5.90682 L 165.54326 9.25467" />
    <path d="M 329.82962 19.42722 L 327.86338 25.02001" />
    <path d="M 338.26757 21.05437 L 335.88224 27.83919" />
</svg>